<?xml version="1.0" encoding="utf-8"?>
<!-- Generator: Adobe Illustrator 21.0.0, SVG Export Plug-In . SVG Version: 6.00 Build 0)  -->
<svg version="1.1" id="Слой_1" xmlns="http://www.w3.org/2000/svg" xmlns:xlink="http://www.w3.org/1999/xlink" x="0px" y="0px"
	 viewBox="0 0 100 100" style="enable-background:new 0 0 100 100;" xml:space="preserve">
<style type="text/css">
	.st0{fill:#E0186C;}
	.st1{fill:#0349C6;}
</style>
<g>
	<g>
		<path class="st0" d="M64.6,16.7C60.3,15,55.6,14,51,14c-7.6,0-15,2.4-21.1,6.8l1.4,1.9c15.1-10.9,36.1-7.5,47,7.6
			c6.8,9.4,8.3,21.7,3.9,32.4l2.2,0.9C91.8,45.3,83,24.3,64.6,16.7z M21.5,66.2c-4.2-7.6-5.3-16.6-3-25l-2.3-0.6
			c-5.2,19.2,6.2,39,25.4,44.2c3.1,0.8,6.2,1.2,9.4,1.2c6.1,0,12.1-1.5,17.4-4.5l-1.2-2.1C50.9,88.4,30.5,82.5,21.5,66.2z M51,26
			c-13.3,0-24,10.8-24,24c0,9.3,5.4,17.8,13.9,21.8l1-2.2C31,64.6,26.3,51.8,31.4,41c5-10.8,17.9-15.5,28.7-10.5
			c10.8,5,15.5,17.9,10.5,28.7c-2.2,4.6-5.9,8.4-10.5,10.5l1,2.2c12-5.6,17.3-19.9,11.7-31.9C68.8,31.5,60.3,26,51,26z M83.4,17.6
			H81V20h2.4V17.6z M18.5,82.5h2.4v-2.4h-2.4V82.5z M14.9,86.1h2.4v-2.4h-2.4V86.1z"/>
	</g>
</g>
<g>
	<g>
		<path class="st1" d="M56.4,39.3c0.4-0.8,0.6-1.6,0.6-2.5c0-3.3-2.7-6-6-6c-3.3,0-6,2.7-6,6c0,0.9,0.2,1.7,0.6,2.5
			C41.7,40,39,43.3,39,47.1v11.4c0,0.7,0.5,1.2,1.2,1.2h3.6v15.6c0,0.7,0.5,1.2,1.2,1.2h12c0.7,0,1.2-0.5,1.2-1.2V59.7h3.6
			c0.7,0,1.2-0.5,1.2-1.2V47.1C63,43.3,60.2,40,56.4,39.3z M60.6,57.3h-2.4v-12h-2.4v28.8h-3.6V57.3h-2.4v16.8h-3.6V45.2h-2.4v12
			h-2.4V47.1c0-3,2.4-5.4,5.4-5.4h1c0.7,0,1.2-0.5,1.2-1.2c0-0.3-0.1-0.7-0.4-0.9c-0.8-0.7-1.2-1.7-1.2-2.7c0-2,1.6-3.6,3.6-3.6
			s3.6,1.6,3.6,3.6c0,1-0.5,2-1.2,2.7c-0.5,0.4-0.5,1.2-0.1,1.7c0.2,0.3,0.6,0.4,0.9,0.4h1c3,0,5.4,2.4,5.4,5.4V57.3z M80.8,67.1
			c0.3-0.8,0.3-1.6,0-2.4c-0.4-1.4-1.5-2.5-2.9-2.8c-1.3-0.3-2.7-0.1-3.7,0.8c-1.4,1.1-1.9,2.9-1.4,4.5c-1.5,0.4-2.6,1.8-2.6,3.4v7
			c0,0.7,0.5,1.2,1.2,1.2h1.2v6.1c0,0.7,0.5,1.2,1.2,1.2h6c0.7,0,1.2-0.5,1.2-1.2v-6.1h1.2c0.7,0,1.2-0.5,1.2-1.2v-7
			C83.4,69,82.3,67.6,80.8,67.1z M81,76.4h-1.2c-0.7,0-1.2,0.5-1.2,1.2v6.1H75v-6.1c0-0.7-0.5-1.2-1.2-1.2h-1.2v-5.8
			c0-0.6,0.6-1.2,1.2-1.1H75c0.7,0,1.2-0.5,1.2-1.2c0-0.4-0.2-0.7-0.5-1c-0.8-0.5-0.9-1.6-0.4-2.3c0.1-0.1,0.2-0.3,0.4-0.4
			c0.5-0.4,1.1-0.5,1.6-0.3c0.6,0.2,1,0.6,1.2,1.2c0.2,0.7,0,1.5-0.6,1.9c-0.5,0.4-0.7,1.1-0.3,1.7c0.2,0.3,0.6,0.5,1,0.5h1.2
			c0.6,0,1.2,0.5,1.2,1.1V76.4z M25.5,19.4c0.3-0.8,0.3-1.6,0-2.4c-0.4-1.4-1.5-2.5-2.9-2.8c-1.3-0.3-2.7-0.1-3.7,0.8
			c-1.4,1.1-1.9,2.9-1.4,4.5c-1.5,0.4-2.6,1.8-2.6,3.4v6.8c0,0.7,0.5,1.2,1.2,1.2h1.2V38c0,0.7,0.5,1.2,1.2,1.2h6
			c0.7,0,1.2-0.5,1.2-1.2v-7.2h1.2c0.7,0,1.2-0.5,1.2-1.2v-6.8C28.1,21.2,27.1,19.9,25.5,19.4z M25.7,28.4h-1.2
			c-0.7,0-1.2,0.5-1.2,1.2v7.2h-3.6v-7.2c0-0.7-0.5-1.2-1.2-1.2h-1.2v-5.6c0-0.6,0.6-1.2,1.2-1.1h1.2c0.7,0,1.2-0.5,1.2-1.2
			c0-0.4-0.2-0.7-0.5-1C19.7,19,19.5,18,20,17.2c0.1-0.1,0.2-0.3,0.4-0.4c0.5-0.4,1.1-0.5,1.6-0.3c0.6,0.1,1,0.6,1.2,1.2
			c0.2,0.7,0,1.5-0.6,1.9c-0.5,0.4-0.7,1.1-0.3,1.7c0.2,0.3,0.6,0.5,1,0.5h1.2c0.6,0,1.2,0.5,1.2,1.1V28.4z M84.6,14v2.4H87V14H84.6
			z M81,20h2.4v-2.4H81V20z M18.5,82.5h2.4v-2.4h-2.4V82.5z M14.9,86.1h2.4v-2.4h-2.4V86.1z"/>
	</g>
</g>
</svg>
