<?xml version="1.0" encoding="utf-8"?>
<!-- Generator: Adobe Illustrator 21.0.0, SVG Export Plug-In . SVG Version: 6.00 Build 0)  -->
<svg version="1.1" id="Слой_1" xmlns="http://www.w3.org/2000/svg" xmlns:xlink="http://www.w3.org/1999/xlink" x="0px" y="0px"
	 viewBox="0 0 100 100" style="enable-background:new 0 0 100 100;" xml:space="preserve">
<style type="text/css">
	.st0{fill:#E0186C;}
	.st1{fill:#0349C6;}
</style>
<path class="st0" d="M81.5,42.5c0-0.1,0-0.1,0-0.2c0-0.1,0-0.1-0.1-0.2c0-0.1-0.1-0.1-0.1-0.2c0-0.1-0.1-0.1-0.1-0.2c0,0,0,0,0,0
	l-10.3-8v-8.3c0-1.8-1.4-3.2-3.2-3.2H56.1l-4.6-3.6c-1.1-0.9-2.7-0.9-3.9,0l-4.6,3.6H31.4c-1.8,0-3.2,1.4-3.2,3.2v8.3l-10.3,8
	c0,0,0,0,0,0.1c-0.1,0-0.1,0.1-0.1,0.2c0,0.1-0.1,0.1-0.1,0.2c0,0.1,0,0.1-0.1,0.2c0,0.1,0,0.1,0,0.2c0,0,0,0,0,0.1v36.3
	c0,0.7,0.2,1.3,0.6,1.9c0,0,0,0,0,0c0,0,0,0,0,0c0.6,0.8,1.5,1.3,2.5,1.3h57.6c1,0,1.9-0.5,2.5-1.3c0,0,0,0,0,0c0,0,0,0,0,0
	c0.4-0.5,0.6-1.2,0.6-1.9L81.5,42.5C81.5,42.5,81.5,42.5,81.5,42.5z M48.9,20.3c0.4-0.3,0.9-0.3,1.3,0l2.5,1.9h-6.2L48.9,20.3z
	 M21,79.9l27.9-21.7c0.4-0.3,0.9-0.3,1.3,0L78,79.9H21z M79.4,78.2L51.4,56.5c-1.1-0.9-2.7-0.9-3.9,0L19.6,78.2V44.1l17.5,13.6
	c0.5,0.4,1.1,0.3,1.5-0.2s0.3-1.1-0.2-1.5L20.7,42.2l7.5-5.8v8.2c0,0.6,0.5,1.1,1.1,1.1c0.6,0,1.1-0.5,1.1-1.1V25.4
	c0-0.6,0.5-1.1,1.1-1.1h36.3c0.6,0,1.1,0.5,1.1,1.1v19.2c0,0.6,0.5,1.1,1.1,1.1s1.1-0.5,1.1-1.1v-8.2l7.5,5.8L60.5,56.1
	c-0.3,0.2-0.5,0.6-0.4,1c0.1,0.4,0.3,0.7,0.7,0.8c0.4,0.1,0.8,0.1,1.1-0.2l17.5-13.6L79.4,78.2L79.4,78.2z"/>
<path class="st1" d="M62.3,44.6v-4.3c0-7.1-5.7-12.8-12.8-12.8c-7.1,0-12.8,5.7-12.8,12.8c0,7.1,5.7,12.8,12.8,12.8
	c0.6,0,1.1-0.5,1.1-1.1c0-0.6-0.5-1.1-1.1-1.1c-5.9,0-10.7-4.8-10.7-10.7s4.8-10.7,10.7-10.7c5.9,0,10.7,4.8,10.7,10.7v4.3
	c0,1.2-1,2.1-2.1,2.1c-1.2,0-2.1-1-2.1-2.1v-4.3c0-0.6-0.5-1.1-1.1-1.1c-0.6,0-1.1,0.5-1.1,1.1c0,2.4-1.9,4.3-4.3,4.3
	c-2.4,0-4.3-1.9-4.3-4.3c0-2.4,1.9-4.3,4.3-4.3c0.6,0,1.1-0.5,1.1-1.1c0-0.6-0.5-1.1-1.1-1.1c-2.9,0-5.4,1.9-6.2,4.6
	c-0.8,2.8,0.4,5.7,2.8,7.2c2.4,1.5,5.6,1.2,7.7-0.7c0.2,2.3,2.2,3.9,4.5,3.8C60.5,48.7,62.3,46.9,62.3,44.6z"/>
</svg>
