<?xml version="1.0" encoding="utf-8"?>
<!-- Generator: Adobe Illustrator 21.0.0, SVG Export Plug-In . SVG Version: 6.00 Build 0)  -->
<svg version="1.1" id="Слой_1" xmlns="http://www.w3.org/2000/svg" xmlns:xlink="http://www.w3.org/1999/xlink" x="0px" y="0px"
	 viewBox="0 0 100 100" style="enable-background:new 0 0 100 100;" xml:space="preserve">
<g>
	<g>
		<path d="M67.8,58.7L54.1,48.4v-21c0-2.1-1.7-3.8-3.8-3.8c-2.1,0-3.8,1.7-3.8,3.8v22.9c0,1.2,0.6,2.3,1.5,3.1l15.3,11.4
			c0.7,0.5,1.5,0.8,2.3,0.8c1.2,0,2.3-0.5,3.1-1.5C69.8,62.3,69.5,59.9,67.8,58.7z M50.3,0.7C23.1,0.7,1,22.8,1,50
			c0,27.2,22.1,49.3,49.3,49.3c27.2,0,49.2-22.1,49.2-49.3C99.5,22.8,77.4,0.7,50.3,0.7z M50.3,91.6C27.3,91.6,8.6,72.9,8.6,50
			C8.6,27,27.3,8.4,50.3,8.4C73.2,8.4,91.9,27,91.9,50C91.9,72.9,73.2,91.6,50.3,91.6z"/>
	</g>
</g>
</svg>
