<?xml version="1.0" encoding="utf-8"?>
<!-- Generator: Adobe Illustrator 21.0.0, SVG Export Plug-In . SVG Version: 6.00 Build 0)  -->
<svg version="1.1" id="Слой_1" xmlns="http://www.w3.org/2000/svg" xmlns:xlink="http://www.w3.org/1999/xlink" x="0px" y="0px"
	 viewBox="0 0 100 100" style="enable-background:new 0 0 100 100;" xml:space="preserve">
<style type="text/css">
	.st0{display:none;}
	.st1{display:inline;}
</style>
<g>
	<g>
		<path d="M78.2,33.3v-4.1c0-15.9-12.9-28.9-28.9-28.9c-15.9,0-28.9,13-28.9,28.9v4.1c-6.8,0-12.4,5.6-12.4,12.4V87
			c0,6.8,5.5,12.4,12.4,12.4h57.7c6.8,0,12.4-5.6,12.4-12.4V45.7C90.6,38.9,85,33.3,78.2,33.3z M28.8,29.2
			c0-11.4,9.2-20.6,20.6-20.6C60.7,8.5,70,17.8,70,29.2v4.1H28.8V29.2z M82.3,87c0,2.3-1.9,4.1-4.1,4.1H20.5c-2.3,0-4.1-1.8-4.1-4.1
			V45.7c0-2.3,1.9-4.1,4.1-4.1h57.7c2.3,0,4.1,1.8,4.1,4.1V87z M49.4,47.8c-6.8,0-12.4,5.6-12.4,12.4c0,5.4,3.5,9.9,8.2,11.6v7
			c0,2.3,1.8,4.1,4.1,4.1c2.3,0,4.1-1.8,4.1-4.1v-7c4.8-1.7,8.2-6.2,8.2-11.6C61.7,53.3,56.2,47.8,49.4,47.8z M49.4,64.3
			c-2.3,0-4.1-1.9-4.1-4.1c0-2.3,1.9-4.1,4.1-4.1c2.3,0,4.1,1.9,4.1,4.1C53.5,62.4,51.6,64.3,49.4,64.3z"/>
	</g>
</g>
<g class="st0">
	<g class="st1">
		<path d="M50.8,91.1H13.7c-2.3,0-4.1-1.9-4.1-4.1v-4.1c0-13,7.5-24.2,18.4-29.6c4.1,3,9.1,4.8,14.6,4.8c13.6,0,24.7-11.1,24.7-24.8
			v-8.3c0-13.7-11.1-24.8-24.7-24.8S17.8,11.4,17.8,25.1v8.3c0,5.1,1.6,9.9,4.2,13.8C9.7,54.3,1.3,67.6,1.3,82.8V87
			c0,6.8,5.5,12.4,12.4,12.4h37.1c2.3,0,4.1-1.9,4.1-4.1C54.9,92.9,53,91.1,50.8,91.1z M26,25.1C26,16,33.4,8.6,42.5,8.6
			C51.6,8.6,59,16,59,25.1v8.3c0,9.1-7.4,16.5-16.5,16.5c-9.1,0-16.5-7.4-16.5-16.5V25.1z M96.1,70.5H79.6V54c0-2.3-1.8-4.1-4.1-4.1
			s-4.1,1.9-4.1,4.1v16.5H54.9c-2.3,0-4.1,1.8-4.1,4.1c0,2.3,1.8,4.1,4.1,4.1h16.5v16.5c0,2.3,1.8,4.1,4.1,4.1
			c2.3,0,4.1-1.9,4.1-4.1V78.7h16.5c2.3,0,4.1-1.8,4.1-4.1C100.2,72.3,98.3,70.5,96.1,70.5z"/>
	</g>
</g>
</svg>
