<?xml version="1.0" encoding="utf-8"?>
<!-- Generator: Adobe Illustrator 21.0.0, SVG Export Plug-In . SVG Version: 6.00 Build 0)  -->
<svg version="1.1" id="Слой_1" xmlns="http://www.w3.org/2000/svg" xmlns:xlink="http://www.w3.org/1999/xlink" x="0px" y="0px"
	 viewBox="0 0 100 100" style="enable-background:new 0 0 100 100;" xml:space="preserve">
<path d="M97.1,45.8l-37-39.5c-2.4-2.6-6.2-2.5-8.6,0.1c-2.4,2.6-2.3,6.8,0.1,9.3L78,43.9H7.2c-3.4,0-6.1,2.9-6.1,6.6
	c0,3.6,2.7,6.6,6.1,6.6H78L51.6,85.3c-2.4,2.6-2.4,6.7-0.1,9.3c1.2,1.3,2.8,2,4.3,2c1.5,0,3.1-0.6,4.3-1.9l37-39.5
	c1.2-1.2,1.8-2.9,1.8-4.7C98.9,48.7,98.2,47,97.1,45.8z"/>
</svg>
