<?xml version="1.0" encoding="utf-8"?>
<!-- Generator: Adobe Illustrator 21.0.0, SVG Export Plug-In . SVG Version: 6.00 Build 0)  -->
<svg version="1.1" id="Слой_1" xmlns="http://www.w3.org/2000/svg" xmlns:xlink="http://www.w3.org/1999/xlink" x="0px" y="0px"
	 viewBox="0 0 100 100" style="enable-background:new 0 0 100 100;" xml:space="preserve">
<style type="text/css">
	.st0{display:none;}
</style>
<path d="M65,98V84.8c10.7-1.1,18.4-10.6,17.3-21.2c-0.5-5.2-3.2-10-7.3-13.2c4.7-3.7,7.4-9.2,7.4-15.2c0-9.9-7.5-18.2-17.4-19.3V2.6
	h-8.7v13h-8.7v-13h-8.7v13H21.5V85h17.4v13h8.7V85h8.7v13H65z M30.2,24.3h32.6c6,0,10.9,4.9,10.9,10.8c0,6-4.9,10.8-10.9,10.8H30.2
	V24.3z M30.2,76.3V54.7h32.6c6,0,10.9,4.9,10.9,10.8c0,6-4.9,10.8-10.9,10.8H30.2z"/>
<path class="st0" d="M18.8,53.5L50.6,99l31.8-45.5L50.6,1L18.8,53.5z M50.6,83.1L37.2,64l13.4,5.9L64,64L50.6,83.1z M50.6,60
	l-19.8-8.7l19.8-32.7l19.8,32.7L50.6,60z"/>
<path class="st0" d="M87.7,88.4v-9.5H40.5l4.2-20.7l20.7-8.1l-3.6-8.8L47,47.1l6.9-33.7l-9.5-1.9l-8.1,39.7l-22.8,8.9l3.6,8.8
	L34,62.4l-5.3,25.9H87.7z"/>
</svg>
