<?xml version="1.0" encoding="utf-8"?>
<!-- Generator: Adobe Illustrator 21.0.0, SVG Export Plug-In . SVG Version: 6.00 Build 0)  -->
<svg version="1.1" id="Слой_1" xmlns="http://www.w3.org/2000/svg" xmlns:xlink="http://www.w3.org/1999/xlink" x="0px" y="0px"
	 viewBox="0 0 100 100" style="enable-background:new 0 0 100 100;" xml:space="preserve">
<path d="M49.8,1.6c-27.1,0-49,21.9-49,49s21.9,49,49,49s49-21.9,49-49S76.9,1.6,49.8,1.6z M66.8,53.2L42.3,68.5
	c-0.5,0.3-1.1,0.5-1.6,0.5c-0.5,0-1-0.1-1.5-0.4c-1-0.5-1.6-1.6-1.6-2.7V35.3c0-1.1,0.6-2.1,1.6-2.7c1-0.5,2.2-0.5,3.1,0.1L66.8,48
	c0.9,0.6,1.4,1.5,1.4,2.6C68.2,51.7,67.7,52.6,66.8,53.2z"/>
</svg>
