<?xml version="1.0" encoding="utf-8"?>
<!-- Generator: Adobe Illustrator 21.0.0, SVG Export Plug-In . SVG Version: 6.00 Build 0)  -->
<svg version="1.1" id="Слой_1" xmlns="http://www.w3.org/2000/svg" xmlns:xlink="http://www.w3.org/1999/xlink" x="0px" y="0px"
	 viewBox="0 0 100 100" style="enable-background:new 0 0 100 100;" xml:space="preserve">
<path d="M40.2,87c-1.2,0-2.4-0.4-3.4-1.2L3.3,60.2c-1.2-0.8-1.8-2.1-2-3.5c-0.2-1.4,0.2-2.7,1.2-3.9c0.8-1.2,2.2-1.7,3.6-1.9
	c1.4-0.2,2.8,0.2,4,1.2l29.6,22.7l49.8-54.2c1-1,2.2-1.6,3.6-1.7c1.4,0,2.8,0.4,3.8,1.4c1,1,1.6,2.1,1.8,3.5c0,1.4-0.4,2.7-1.4,3.7
	L44.2,85.3C43.2,86.4,41.6,87,40.2,87z"/>
</svg>
