<?xml version="1.0" encoding="utf-8"?>
<!-- Generator: Adobe Illustrator 21.0.0, SVG Export Plug-In . SVG Version: 6.00 Build 0)  -->
<svg version="1.1" id="Слой_1" xmlns="http://www.w3.org/2000/svg" xmlns:xlink="http://www.w3.org/1999/xlink" x="0px" y="0px"
	 viewBox="0 0 100 100" style="enable-background:new 0 0 100 100;" xml:space="preserve">
<g>
	<g>
		<path d="M45.7,44.9v7.7h7.7v-7.7H45.7z M87.2,8.5h-4.6V0.8h-7.7v7.7H24.3V0.8h-7.7v7.7H12C5.7,8.5,0.5,13.7,0.5,20v67.5
			C0.5,93.8,5.7,99,12,99h39.5c-2.7-2.2-5-4.8-6.8-7.7H12c-2.1,0-3.8-1.7-3.8-3.8V36.9H91V45c2.9,1.9,5.5,4.2,7.7,6.8V20
			C98.7,13.7,93.5,8.5,87.2,8.5z M91,29.2H8.2V20c0-2.1,1.7-3.8,3.8-3.8h4.6v7.7h7.7v-7.7h50.6v7.7h7.7v-7.7h4.6
			c2.1,0,3.8,1.7,3.8,3.8V29.2z M72.8,47.2c-14.3,0-25.9,11.6-25.9,25.9C46.9,87.4,58.5,99,72.8,99s25.9-11.6,25.9-25.9
			C98.7,58.8,87.1,47.2,72.8,47.2z M72.8,91.3c-10,0-18.2-8.2-18.2-18.2s8.2-18.2,18.2-18.2c10,0,18.2,8.2,18.2,18.2
			S82.8,91.3,72.8,91.3z M76.4,60.3h-7.7v16.7h14.2v-7.7h-6.5V60.3z M38.1,60.3h-7.7v7.7h7.7V60.3z M22.7,60.3h-7.7v7.7h7.7V60.3z
			 M22.7,44.9h-7.7v7.7h7.7V44.9z M15.1,83.3h7.7v-7.7h-7.7V83.3z M38.1,44.9h-7.7v7.7h7.7V44.9z M30.4,83.3h7.7v-7.7h-7.7V83.3z"/>
	</g>
</g>
</svg>
