<?xml version="1.0" encoding="utf-8"?>
<!-- Generator: Adobe Illustrator 21.0.0, SVG Export Plug-In . SVG Version: 6.00 Build 0)  -->
<svg version="1.1" id="Слой_1" xmlns="http://www.w3.org/2000/svg" xmlns:xlink="http://www.w3.org/1999/xlink" x="0px" y="0px"
	 viewBox="0 0 100 100" style="enable-background:new 0 0 100 100;" xml:space="preserve">
<style type="text/css">
	.st0{display:none;}
</style>
<path d="M94.4,59.7c0.7-3.3,1-6.5,1-9.6c0-6.1-1.2-11.9-3.6-17.5c-2.4-5.6-5.6-10.4-9.7-14.4c-4.1-4-8.9-7.2-14.5-9.6
	C62,6.1,56.2,5,50,5c-3.1,0-6.4,0.3-9.7,1c-4.5-3.4-9.5-5.1-15.1-5.1c-6.8,0-12.7,2.4-17.5,7.2c-4.8,4.8-7.3,10.6-7.3,17.4
	c0,5.6,1.7,10.5,5.2,15c-0.7,3.3-1,6.5-1,9.6c0,6.1,1.2,11.9,3.6,17.5c2.4,5.6,5.6,10.4,9.7,14.4c4.1,4,8.9,7.2,14.5,9.6
	C38,94,43.9,95.1,50,95.1c3.1,0,6.4-0.3,9.7-1c4.5,3.4,9.5,5.1,15.1,5.1c6.8,0,12.7-2.4,17.5-7.2c4.8-4.8,7.3-10.6,7.3-17.4
	C99.5,69.1,97.8,64.1,94.4,59.7z M74,69.2c-1.4,2.5-3.3,4.5-5.7,6c-2.4,1.5-5,2.6-7.9,3.4c-2.9,0.8-5.9,1.2-9,1.2
	c-7.3,0-13.5-1.4-18.8-4.2c-5.2-2.8-7.9-6.2-7.9-10.1c0-1.9,0.5-3.5,1.6-4.8c1.1-1.3,2.7-1.9,4.9-1.9c1.2,0,2.4,0.3,3.5,1
	c1.1,0.7,2.1,1.5,3,2.5c0.9,1,1.9,1.9,2.9,2.9c1.1,1,2.5,1.8,4.2,2.5c1.7,0.7,3.7,1,5.9,1c2.8,0,5.1-0.5,6.8-1.6
	c1.7-1.1,2.6-2.5,2.6-4.1c0-1.7-0.7-3-2.1-3.8c-0.9-0.6-3.4-1.4-7.2-2.3l-9.4-2.3c-2.6-0.6-4.8-1.3-6.6-2.1
	c-1.8-0.8-3.6-1.8-5.2-3.1c-1.6-1.3-2.8-2.9-3.6-4.8c-0.8-1.9-1.2-4.2-1.2-6.8c0-3.1,0.7-5.9,2.2-8.2c1.4-2.4,3.4-4.2,5.7-5.6
	c2.4-1.3,5-2.3,7.7-3c2.8-0.7,5.6-1,8.5-1c4.1,0,8,0.5,11.7,1.5c3.7,1,6.7,2.4,9.2,4.3c2.4,1.9,3.6,4,3.6,6.4c0,1.9-0.6,3.6-1.8,4.9
	c-1.2,1.4-2.8,2-4.9,2c-1.1,0-2.1-0.3-3.1-0.8c-0.9-0.5-1.8-1.1-2.6-1.9c-0.8-0.7-1.6-1.4-2.5-2.1c-0.9-0.7-2-1.3-3.5-1.8
	c-1.5-0.5-3.1-0.8-5-0.8c-6.2,0-9.3,1.6-9.3,4.9c0,0.7,0.2,1.4,0.5,1.9c0.3,0.6,0.7,1,1.1,1.3c0.4,0.3,1,0.7,1.9,1
	c0.9,0.3,1.7,0.6,2.3,0.7c0.6,0.2,1.5,0.4,2.8,0.7l6.7,1.5c2.1,0.5,4,1,5.6,1.5c1.7,0.5,3.4,1.2,5.3,2.2c1.9,0.9,3.5,2,4.7,3.1
	c1.2,1.2,2.3,2.6,3.1,4.4c0.8,1.8,1.3,3.7,1.3,5.9C76.1,63.9,75.4,66.7,74,69.2z"/>
<path class="st0" d="M7.3,50.9l20.5,7.4l8,24.7c0.5,1.6,2.5,2.2,3.8,1.1l11.4-9c1.2-0.9,2.9-1,4.2-0.1l20.6,14.5
	c1.4,1,3.4,0.2,3.8-1.4l15.1-70.3c0.4-1.8-1.5-3.3-3.2-2.7L7.3,46.5C5.2,47.3,5.2,50.1,7.3,50.9z M34.5,54.3l40.1-23.9
	c0.7-0.4,1.5,0.5,0.8,1.1L42.3,61.3c-1.2,1-1.9,2.4-2.1,4l-1.1,8.1c-0.1,1.1-1.7,1.2-2,0.1l-4.3-14.7C32.2,57,32.9,55.2,34.5,54.3z"
	/>
<path class="st0" d="M39.5,52.6H29.2V38.4h10.2V30c0-6.4,1.2-11.1,3.5-14.2c2.3-3.1,6.7-4.6,13.1-4.6h14.1v14.2h-9.8
	c-2.5,0-4,0.4-4.6,1.3c-0.6,0.9-1,2.4-1,4.5v7.1h15.4l-1.4,14.2H54.8v41.4H39.5V52.6z"/>
</svg>
