<?xml version="1.0" encoding="utf-8"?>
<!-- Generator: Adobe Illustrator 21.0.0, SVG Export Plug-In . SVG Version: 6.00 Build 0)  -->
<svg version="1.1" id="Слой_1" xmlns="http://www.w3.org/2000/svg" xmlns:xlink="http://www.w3.org/1999/xlink" x="0px" y="0px"
	 viewBox="0 0 100 100" style="enable-background:new 0 0 100 100;" xml:space="preserve">
<style type="text/css">
	.st0{display:none;}
	.st1{display:inline;}
</style>
<path class="st0" d="M49.8,1C22.8,1,0.7,23,0.7,50.2c0,17.3,9,32.5,22.5,41.2c0.4,0.4,0.9,0.7,1.5,0.9c7.4,4.4,16,7,25.2,7
	C77,99.3,99,77.3,99,50.2C99,23,77,1,49.8,1z M49.8,91.7c-7.2,0-14-1.9-19.9-5.1C31,77,39,70.3,49.8,70.3c10.9,0,18.8,6.8,19.9,16.4
	C63.7,89.9,57,91.7,49.8,91.7z M38.2,48.7c0-6.4,5.2-11.7,11.7-11.7c6.4,0,11.7,5.2,11.7,11.7s-5.2,11.7-11.7,11.7
	C43.4,60.4,38.2,55.2,38.2,48.7z M76.5,81.9c-2.1-8-7.9-14.3-15.8-17.3c5.1-3.5,8.4-9.3,8.4-15.9c0-10.6-8.7-19.3-19.3-19.3
	c-10.6,0-19.3,8.7-19.3,19.3c0,6.6,3.3,12.4,8.3,15.9c-7.9,3-13.7,9.3-15.8,17.2c-9-7.6-14.7-19-14.7-31.7
	c0-22.9,18.6-41.5,41.5-41.5s41.5,18.6,41.5,41.5C91.4,62.9,85.6,74.3,76.5,81.9z"/>
<g class="st0">
	<g class="st1">
		<path d="M94.9,19H68.8V5.5c0-2.2-1.8-4.1-4.1-4.1H34.9c-2.2,0-4.1,1.8-4.1,4.1V19H4.8c-2.2,0-4.1,1.8-4.1,4.1v71.8
			c0,2.2,1.8,4.1,4.1,4.1h90.2c2.2,0,4.1-1.8,4.1-4.1V23.1C99,20.8,97.2,19,94.9,19z M39,9.5h21.7V19H39V9.5z M90.9,90.8h-82V27.1
			h82V90.8z"/>
	</g>
</g>
<g>
	<g>
		<path d="M76.2,65.1c-2.4,0-4.3,2-4.3,4.4v13.7c0,2.4-1.9,4.4-4.3,4.4H20.4c-2.4,0-4.3-2-4.3-4.4V26.4c0-2.4,1.9-4.4,4.3-4.4h24.9
			c2.4,0,4.3-2,4.3-4.4s-1.9-4.4-4.3-4.4H20.4c-7.1,0-12.9,5.9-12.9,13.1v56.8c0,7.2,5.8,13.1,12.9,13.1h47.2
			c7.1,0,12.9-5.9,12.9-13.1V69.4C80.5,67,78.6,65.1,76.2,65.1z M91.1,12.7C88,9.6,83.9,8,79.8,7.9c-4.3-0.1-8.6,1.5-11.9,4.8
			l-29,29.6c-4.2,4.3-6.6,10.1-6.6,16.2v9.8c0,2.4,1.9,4.4,4.3,4.4h9.6c6,0,11.6-2.4,15.9-6.7l29-29.5
			C97.5,29.9,97.5,19.3,91.1,12.7z M56,59.7c-2.6,2.7-6.1,4.1-9.8,4.1h-5.3v-5.4c0-3.8,1.4-7.3,4.1-10l19.1-19.5l11.1,11.3L56,59.7z
			 M85,30.2l-3.8,3.9L70.1,22.8l3.8-3.9c3.1-3.1,8-3.1,11.1,0C88.1,22,88.1,27.1,85,30.2z"/>
	</g>
</g>
<g class="st0">
	<g class="st1">
		<path d="M88.8,70.9v-14c0-5.6-4.6-10.2-10.2-10.2H53.2V29.4c5.8-1.5,10.2-6.8,10.2-13.1c0-7.5-6.1-13.5-13.6-13.5
			c-7.5,0-13.6,6.1-13.6,13.5c0,6.3,4.3,11.6,10.2,13.1v17.4H21c-5.6,0-10.2,4.5-10.2,10.2v14C5,72.4,0.7,77.7,0.7,84
			c0,7.5,6.1,13.5,13.6,13.5c7.5,0,13.6-6.1,13.6-13.5c0-6.3-4.3-11.6-10.2-13.1v-14c0-1.9,1.5-3.4,3.4-3.4h25.4v17.4
			c-5.8,1.5-10.2,6.8-10.2,13.1c0,7.5,6.1,13.5,13.6,13.5c7.5,0,13.6-6.1,13.6-13.5c0-6.3-4.3-11.6-10.2-13.1V53.5h25.4
			c1.9,0,3.4,1.5,3.4,3.4v14c-5.8,1.5-10.2,6.8-10.2,13.1c0,7.5,6.1,13.5,13.6,13.5C92.9,97.6,99,91.5,99,84
			C99,77.7,94.7,72.4,88.8,70.9z M21,84c0,3.7-3,6.8-6.8,6.8c-3.7,0-6.8-3-6.8-6.8c0-3.7,3-6.8,6.8-6.8C18,77.2,21,80.3,21,84z
			 M43.1,16.3c0-3.7,3-6.8,6.8-6.8c3.7,0,6.8,3,6.8,6.8c0,3.7-3,6.8-6.8,6.8C46.1,23.1,43.1,20,43.1,16.3z M56.6,84
			c0,3.7-3,6.8-6.8,6.8c-3.7,0-6.8-3-6.8-6.8c0-3.7,3-6.8,6.8-6.8C53.6,77.2,56.6,80.3,56.6,84z M85.4,90.8c-3.7,0-6.8-3-6.8-6.8
			c0-3.7,3-6.8,6.8-6.8c3.7,0,6.8,3,6.8,6.8C92.2,87.8,89.2,90.8,85.4,90.8z"/>
	</g>
</g>
<g class="st0">
	<g class="st1">
		<path d="M49.8,29.9c-11.3,0-20.5,9.2-20.5,20.5c0,11.3,9.2,20.5,20.5,20.5c11.3,0,20.5-9.2,20.5-20.5
			C70.3,39.1,61.1,29.9,49.8,29.9z M49.8,62.7c-6.8,0-12.3-5.5-12.3-12.3c0-6.8,5.5-12.3,12.3-12.3c6.8,0,12.3,5.5,12.3,12.3
			C62.1,57.2,56.6,62.7,49.8,62.7z M95.5,38.1l-11.6-1.9l7-9.3c1.2-1.6,1.1-3.9-0.4-5.3L78.8,9.8c-1.4-1.5-3.7-1.6-5.4-0.4l-9.5,6.7
			L62.1,4.6c-0.3-2-2-3.4-4-3.4H41.6c-2,0-3.8,1.5-4.1,3.5l-1.9,11.6l-9.5-6.9c-1.6-1.2-3.9-1-5.3,0.4L9.3,21.4
			c-1.5,1.4-1.6,3.7-0.4,5.4l6.8,9.5L4.2,37.9c-2,0.3-3.5,2-3.5,4.1v16.4c0,2,1.5,3.8,3.5,4.1l11.6,1.9l-7,9.3
			c-1.2,1.6-1.1,3.9,0.4,5.4l11.6,11.6c1.4,1.5,3.7,1.6,5.4,0.4l9.5-6.8l1.6,11.5c0.3,2,2,3.5,4.1,3.5h16.4c2,0,3.8-1.5,4.1-3.5
			l1.9-11.7l9.3,7c1.6,1.2,3.9,1.1,5.4-0.4L90,78.9c1.4-1.4,1.6-3.7,0.4-5.4l-6.9-9.5l11.9-1.4c2.1-0.2,3.6-2,3.6-4.1V42.2
			C99,40.2,97.5,38.4,95.5,38.1z M82.4,55.9c-3,0.4-5.6,2.4-6.5,5.1c-1.2,2.7-0.8,5.8,0.9,8.2l4.8,6.4l-6.6,6.6l-6.4-4.9
			c-2.4-1.8-5.5-2.1-7.9-1c-2.9,1-4.9,3.6-5.3,6.6l-1.1,8H45L43.9,83c-0.4-3-2.4-5.6-5.1-6.5c-2.7-1.2-5.8-0.8-8.2,0.9l-6.4,4.8
			l-6.6-6.6l4.8-6.4c1.7-2.4,2.1-5.5,1-7.9c-1-2.9-3.6-4.9-6.6-5.3l-8-1.1v-9.3l7.9-1.1c3-0.4,5.6-2.4,6.5-5.1
			c1.2-2.7,0.8-5.8-0.9-8.2l-4.8-6.4l6.6-6.6l6.6,4.8c2.4,1.8,5.5,2.1,7.9,1c2.9-1.1,4.9-3.6,5.3-6.6l1.1-8h9.3l1.3,7.9
			c0.4,3.1,2.4,5.6,5.1,6.6c2.7,1.2,5.8,0.8,8.2-0.9l6.4-4.8l6.7,6.7l-4.9,6.5c-1.7,2.4-2.1,5.5-1,7.9c1,2.9,3.6,4.9,6.6,5.3l8,1.1
			V55h0L82.4,55.9z"/>
	</g>
</g>
<g class="st0">
	<g class="st1">
		<path d="M51.6,88.9h-33c-2,0-3.7-1.6-3.7-3.7V19c0-2,1.6-3.7,3.7-3.7h33c2,0,3.7-1.6,3.7-3.7c0-2-1.6-3.7-3.7-3.7h-33
			c-6.1,0-11,5-11,11v66.2c0,6.1,4.9,11,11,11h33c2,0,3.7-1.6,3.7-3.7C55.3,90.5,53.6,88.9,51.6,88.9z M94.8,49.4L72.5,27.4
			c-1.4-1.4-3.8-1.4-5.2,0c-1.4,1.4-1.4,3.8,0,5.2l15.9,15.8H40.6c-2,0-3.7,1.6-3.7,3.7c0,2,1.6,3.7,3.7,3.7h42.7L67.4,71.5
			c-1.4,1.4-1.5,3.8,0,5.2c0.7,0.7,1.7,1.1,2.6,1.1c0.9,0,1.9-0.4,2.6-1.1l22.3-22.1c0.7-0.7,1.1-1.6,1.1-2.6
			C95.9,51.1,95.5,50.1,94.8,49.4z"/>
	</g>
</g>
</svg>
