<?xml version="1.0" encoding="utf-8"?>
<!-- Generator: Adobe Illustrator 21.0.0, SVG Export Plug-In . SVG Version: 6.00 Build 0)  -->
<svg version="1.1" id="Слой_1" xmlns="http://www.w3.org/2000/svg" xmlns:xlink="http://www.w3.org/1999/xlink" x="0px" y="0px"
	 viewBox="0 0 100 100" style="enable-background:new 0 0 100 100;" xml:space="preserve">
<style type="text/css">
	.st0{fill:#E0186C;}
	.st1{fill:#0349C6;}
</style>
<g>
	<g>
		<path class="st0" d="M64.4,37.8l7.7-7.7c4.2,3.2,10.2,2.5,13.5-1.7c3.2-4.2,2.5-10.2-1.7-13.5c-1.7-1.3-3.8-2-5.9-2
			c-5.3,0-9.6,4.3-9.6,9.6c0,2.1,0.7,4.2,2,5.9l-7.7,7.7L64.4,37.8z M77.9,19c0.7,0,1.2,0.5,1.2,1.2h2.4c0-1.5-1-2.9-2.4-3.4v-1.3
			c3.9,0.7,6.6,4.4,5.9,8.3c-0.5,3-2.9,5.4-5.9,5.9v-1.3c1.4-0.5,2.4-1.9,2.4-3.4c0-2.5-2-3.2-3.2-3.5c-1.4-0.4-1.6-0.6-1.6-1.3
			C76.7,19.5,77.3,19,77.9,19z M70.8,21.4c0.5-3,2.9-5.4,5.9-5.9v1.3c-1.4,0.5-2.4,1.9-2.4,3.4c0,2.5,2,3.2,3.2,3.5
			c1.4,0.4,1.6,0.6,1.6,1.3c0,0.7-0.5,1.2-1.2,1.2c-0.7,0-1.2-0.5-1.2-1.2h-2.4c0,1.5,1,2.9,2.4,3.4v1.3
			C72.8,29,70.2,25.3,70.8,21.4z M77.9,39.4c-4.8,0-8.9,3.6-9.5,8.4h-2.5v2.4h2.5c0.7,5.3,5.5,9,10.7,8.3c5.3-0.7,9-5.5,8.3-10.7
			C86.8,43,82.8,39.4,77.9,39.4z M77.9,52.6c-0.7,0-1.2-0.5-1.2-1.2h-2.4c0,1.5,1,2.9,2.4,3.4v1.3c-3.9-0.7-6.6-4.4-5.9-8.3
			c0.5-3,2.9-5.4,5.9-5.9v1.3c-1.4,0.5-2.4,1.9-2.4,3.4c0,2.5,2,3.2,3.2,3.5c1.4,0.4,1.6,0.6,1.6,1.3C79.1,52,78.6,52.6,77.9,52.6z
			 M85,50.2c-0.5,3-2.9,5.4-5.9,5.9v-1.3c1.4-0.5,2.4-1.9,2.4-3.4c0-2.5-2-3.2-3.2-3.5c-1.4-0.4-1.6-0.6-1.6-1.3
			c0-0.7,0.5-1.2,1.2-1.2s1.2,0.5,1.2,1.2h2.4c0-1.5-1-2.9-2.4-3.4v-1.3C83,42.6,85.7,46.3,85,50.2z M25.1,58.6
			c4.8,0,8.9-3.6,9.5-8.4h2.5v-2.4h-2.5c-0.7-5.3-5.5-9-10.7-8.3c-5.3,0.7-9,5.5-8.3,10.7C16.2,55,20.3,58.6,25.1,58.6z M25.1,45.4
			c0.7,0,1.2,0.5,1.2,1.2h2.4c0-1.5-1-2.9-2.4-3.4v-1.3c3.9,0.7,6.6,4.4,5.9,8.3c-0.5,3-2.9,5.4-5.9,5.9v-1.3
			c1.4-0.5,2.4-1.9,2.4-3.4c0-2.5-2-3.2-3.2-3.5c-1.4-0.4-1.6-0.6-1.6-1.3C23.9,45.9,24.5,45.4,25.1,45.4z M18,47.8
			c0.5-3,2.9-5.4,5.9-5.9v1.3c-1.4,0.5-2.4,1.9-2.4,3.4c0,2.5,2,3.2,3.2,3.5c1.4,0.4,1.6,0.6,1.6,1.3c0,0.7-0.5,1.2-1.2,1.2
			c-0.7,0-1.2-0.5-1.2-1.2h-2.4c0,1.5,1,2.9,2.4,3.4v1.3C20,55.4,17.4,51.7,18,47.8z M82.4,66.9c-1.4-0.7-2.9-1.1-4.5-1.1
			c-2.7,0-5.3,1.1-7.1,3.1l-7.6-8.7l-1.8,1.6l8,9.2c-2.5,4.7-0.6,10.5,4,13c4.7,2.5,10.5,0.6,12.9-4C88.9,75.1,87.1,69.3,82.4,66.9z
			 M77.9,79c-0.7,0-1.2-0.5-1.2-1.2h-2.4c0,1.5,1,2.9,2.4,3.4v1.3c-3.9-0.7-6.6-4.4-5.9-8.3c0.5-3,2.9-5.4,5.9-5.9v1.3
			c-1.4,0.5-2.4,1.9-2.4,3.4c0,2.5,2,3.2,3.2,3.5c1.4,0.4,1.6,0.6,1.6,1.3C79.1,78.4,78.6,79,77.9,79z M85,76.6
			c-0.5,3-2.9,5.4-5.9,5.9v-1.3c1.4-0.5,2.4-1.9,2.4-3.4c0-2.5-2-3.2-3.2-3.5c-1.4-0.4-1.6-0.6-1.6-1.3c0-0.7,0.5-1.2,1.2-1.2
			s1.2,0.5,1.2,1.2h2.4c0-1.5-1-2.9-2.4-3.4v-1.3C83,68.9,85.7,72.7,85,76.6z M39.9,60.1l-8.9,7.8c-4.2-3.3-10.2-2.6-13.5,1.6
			c-3.3,4.2-2.6,10.2,1.6,13.5c1.7,1.3,3.8,2.1,5.9,2.1c5.3,0,9.6-4.3,9.6-9.6c0-2.1-0.7-4.2-2-5.9l8.8-7.7L39.9,60.1z M25.1,79
			c-0.7,0-1.2-0.5-1.2-1.2h-2.4c0,1.5,1,2.9,2.4,3.4v1.3c-3.9-0.7-6.6-4.4-5.9-8.3c0.5-3,2.9-5.4,5.9-5.9v1.3
			c-1.4,0.5-2.4,1.9-2.4,3.4c0,2.5,2,3.2,3.2,3.5c1.4,0.4,1.6,0.6,1.6,1.3C26.3,78.4,25.8,79,25.1,79z M32.2,76.6
			c-0.5,3-2.9,5.4-5.9,5.9v-1.3c1.4-0.5,2.4-1.9,2.4-3.4c0-2.5-2-3.2-3.2-3.5c-1.4-0.4-1.6-0.6-1.6-1.3c0-0.7,0.5-1.2,1.2-1.2
			c0.7,0,1.2,0.5,1.2,1.2h2.4c0-1.5-1-2.9-2.4-3.4v-1.3C30.3,68.9,32.9,72.7,32.2,76.6z M19.2,30.1c1.7,1.3,3.8,2.1,5.9,2.1
			c2.1,0,4.1-0.7,5.8-2l7.4,8.5l1.8-1.6l-7.5-8.6c3.3-4.2,2.6-10.2-1.6-13.5c-4.2-3.3-10.2-2.6-13.5,1.6
			C14.3,20.8,15,26.8,19.2,30.1z M25.1,19c0.7,0,1.2,0.5,1.2,1.2h2.4c0-1.5-1-2.9-2.4-3.4v-1.3c3.9,0.7,6.6,4.4,5.9,8.3
			c-0.5,3-2.9,5.4-5.9,5.9v-1.3c1.4-0.5,2.4-1.9,2.4-3.4c0-2.5-2-3.2-3.2-3.5c-1.4-0.4-1.6-0.6-1.6-1.3C23.9,19.5,24.5,19,25.1,19z
			 M18,21.4c0.5-3,2.9-5.4,5.9-5.9v1.3c-1.4,0.5-2.4,1.9-2.4,3.4c0,2.5,2,3.2,3.2,3.5c1.4,0.4,1.6,0.6,1.6,1.3
			c0,0.7-0.5,1.2-1.2,1.2c-0.7,0-1.2-0.5-1.2-1.2h-2.4c0,1.5,1,2.9,2.4,3.4v1.3C20,29,17.4,25.3,18,21.4z"/>
	</g>
</g>
<path class="st1" d="M56.3,36.2c0.8-1,1.2-2.3,1.3-3.6c0-3.3-2.7-6-6-6c-3.3,0-6,2.7-6,6c0,1.3,0.4,2.6,1.3,3.6
	c-4.1,0.3-7.2,3.7-7.3,7.8v10.2c0,0.7,0.5,1.2,1.2,1.2c0,0,0,0,0,0h3.6V71c0,0.7,0.5,1.2,1.2,1.2c0,0,0,0,0,0h12
	c0.7,0,1.2-0.5,1.2-1.2c0,0,0,0,0,0V55.4h3.6c0.7,0,1.2-0.5,1.2-1.2c0,0,0,0,0,0V44C63.5,39.9,60.4,36.5,56.3,36.2z M51.5,29
	c2,0,3.6,1.6,3.6,3.6s-1.6,3.6-3.6,3.6c-2,0-3.6-1.6-3.6-3.6C47.9,30.6,49.5,29,51.5,29z M61.1,53h-2.4V42.2h-2.4v27.6h-3.6V54.2
	h-2.4v15.6h-3.6V42.2h-2.4V53h-2.4v-9c0-3,2.4-5.4,5.4-5.4h8.3c3,0,5.4,2.4,5.4,5.4L61.1,53L61.1,53z"/>
</svg>
