<?xml version="1.0" encoding="utf-8"?>
<!-- Generator: Adobe Illustrator 21.0.0, SVG Export Plug-In . SVG Version: 6.00 Build 0)  -->
<svg version="1.1" id="Слой_1" xmlns="http://www.w3.org/2000/svg" xmlns:xlink="http://www.w3.org/1999/xlink" x="0px" y="0px"
	 viewBox="0 0 100 100" style="enable-background:new 0 0 100 100;" xml:space="preserve">
<path d="M99,36.5c-0.2-2.9-3.5-5.1-10.2-6.8c0.2-0.5,0.4-1,0.4-1.6V16.4h0c-0.6-9.7-39.8-10-44.3-10S1.1,6.7,0.5,16.4h0v0.2l0,0l0,0
	v11.5c0,3.2,4,5.6,10,7.5c-0.1,0.3-0.1,0.6-0.1,0.8h0v0.2l0,0l0,0v11.4c-6.5,1.7-9.7,3.9-9.8,6.7h0V55l0,0l0,0v11.5
	c0,2.2,2,4.1,5.2,5.6c-0.1,0.3-0.2,0.7-0.2,1h0v0.2l0,0l0,0v11.5c0,5.5,12.3,9,26,10.6c0.1,0,0.2,0.1,0.3,0.1c0,0,0.1,0,0.1,0
	c2.6,0.3,5.3,0.5,8,0.7c0.1,0,0.1,0,0.2,0c0,0,0.1,0,0.1,0c3.4,0.2,6.7,0.3,9.8,0.3c3.1,0,6.4-0.1,9.8-0.3c0,0,0.1,0,0.1,0
	c0.1,0,0.1,0,0.2,0c2.6-0.2,5.3-0.4,8-0.7c0,0,0.1,0,0.1,0c0.1,0,0.2,0,0.3-0.1c13.7-1.6,26-5.1,26-10.6V73.2h0
	c-0.1-2-1.8-3.8-5.2-5.2c0.2-0.5,0.3-1,0.3-1.5V55.6c5.9-1.8,9.8-4.3,9.9-7.4L99,36.5L99,36.5z M85.7,67l-0.6,0.5
	c-0.9,0.8-2.3,1.6-4.2,2.3v-8c2-0.7,3.6-1.5,4.9-2.3v6.9C85.9,66.6,85.8,66.8,85.7,67z M49,74.8c-0.2,0-0.5,0-0.7,0
	c-0.6,0-1.2,0-1.8,0v-8.3c0.5,0,0.9,0,1.4,0c0.1,0,0.2,0,0.3,0c1.7,0,3.3-0.1,5-0.2v8.3c-0.4,0-0.7,0-1.1,0C51,74.7,50,74.7,49,74.8
	z M41.8,74.8c-0.8,0-1.5,0-2.2-0.1c-0.1,0-0.2,0-0.3,0c-0.9,0-1.8-0.1-2.7-0.1v-8.3c1.6,0.1,3.3,0.1,5,0.2c0.1,0,0.2,0,0.3,0
	c0.5,0,0.9,0,1.4,0v8.3c-0.3,0-0.6,0-1,0C42.1,74.8,41.9,74.8,41.8,74.8z M12.2,71c-0.1,0-0.1,0-0.2,0v-8.1c1.5,0.4,3.2,0.8,4.9,1.2
	v8.1c-1.5-0.3-2.9-0.7-4.2-1C12.6,71.1,12.3,71,12.2,71z M46.8,84.8c0.5,0,0.9,0,1.4,0v8.3c-2.3,0-4.5-0.1-6.6-0.2v-8.3
	c1.6,0.1,3.3,0.1,5,0.2C46.6,84.8,46.7,84.8,46.8,84.8z M53,84.8c1.7,0,3.3-0.1,5-0.2V93c-2.1,0.1-4.3,0.2-6.6,0.2v-8.3
	c0.5,0,0.9,0,1.4,0C52.8,84.8,52.9,84.8,53,84.8z M66.2,84v8.3c-1.6,0.2-3.2,0.3-4.9,0.4v-8.3C62.9,84.3,64.6,84.2,66.2,84z
	 M69.4,83.7c1.7-0.2,3.3-0.4,4.9-0.7v8.2c-1.5,0.3-3.2,0.5-4.9,0.8V83.7z M77.7,82.4c1.7-0.3,3.4-0.7,4.9-1.2v8.1
	c-1.5,0.4-3.1,0.8-4.9,1.2V82.4z M21.8,82.4v8.1c-1.8-0.4-3.5-0.8-4.9-1.2v-8.1C18.4,81.6,20.1,82,21.8,82.4z M25.1,83
	c1.6,0.3,3.2,0.5,4.9,0.7v8.2c-1.7-0.2-3.4-0.5-4.9-0.8V83z M33.3,84c1.6,0.2,3.3,0.3,4.9,0.4v8.3c-1.7-0.1-3.3-0.3-4.9-0.4V84z
	 M29.3,74.1c-0.2,0-0.3,0-0.5-0.1c-0.1,0-0.2,0-0.4,0v-8.3c1.6,0.2,3.3,0.3,4.9,0.4v8.3C32,74.3,30.6,74.2,29.3,74.1z M25.1,65.3
	v8.2c-1.7-0.2-3.4-0.5-4.9-0.8v-8.2C21.8,64.9,23.4,65.1,25.1,65.3z M57.4,74.3c-0.4,0-0.7,0.1-1.1,0.1v-8.3
	c1.7-0.1,3.3-0.2,4.9-0.4V74c-1,0.1-2.1,0.2-3.1,0.3C57.9,74.3,57.6,74.3,57.4,74.3z M64.5,73.6v-8.2c1.7-0.2,3.3-0.4,4.9-0.7v8.2
	C67.9,73.1,66.3,73.4,64.5,73.6z M72.7,64c1.7-0.3,3.4-0.7,4.9-1.2v8.1c-1.5,0.4-3.1,0.8-4.9,1.2V64z M50.3,56.4
	c-1.2,0-2.4-0.1-3.6-0.1c-0.1,0-0.1,0-0.2,0v-8.3c1.6,0.1,3.3,0.1,5,0.2c0.1,0,0.2,0,0.3,0c0.5,0,0.9,0,1.4,0v8.3
	c-0.8,0-1.6,0-2.4,0C50.5,56.4,50.4,56.4,50.3,56.4z M12,32.6v-8.1c1.5,0.4,3.2,0.8,4.9,1.2v8.1c-0.2,0-0.4-0.1-0.6-0.1
	c-0.9-0.2-1.7-0.4-2.5-0.6C13.1,32.9,12.6,32.7,12,32.6z M41.8,28.1c0.5,0,0.9,0,1.4,0v8.3c-2.2,0-4.4-0.1-6.6-0.2v-8.3
	c1.6,0.1,3.3,0.1,5,0.2C41.7,28.1,41.7,28.1,41.8,28.1z M48.1,28.1c1.7,0,3.3-0.1,5-0.2v8.3c-0.3,0-0.5,0-0.8,0c0,0,0,0-0.1,0
	c-1.1,0.1-2.2,0.1-3.4,0.1c-0.2,0-0.4,0-0.5,0c-0.6,0-1.2,0-1.8,0v-8.3c0.5,0,0.9,0,1.4,0C47.9,28.1,48,28.1,48.1,28.1z M85.5,28.9
	L85.5,28.9l-0.6,0.5c-0.9,0.7-2.2,1.4-3.9,2v-7.9c2-0.7,3.6-1.5,4.9-2.3v6.9C85.9,28.4,85.7,28.6,85.5,28.9z M64.5,35.2V27
	c1.7-0.2,3.3-0.4,4.9-0.7v8.2C67.9,34.7,66.3,35,64.5,35.2z M72.7,33.8v-8.1c1.7-0.3,3.4-0.7,4.9-1.2v8C76.2,33,74.5,33.4,72.7,33.8
	z M61.2,27.3v8.3c-1.6,0.2-3.2,0.3-4.9,0.4v-8.3C58,27.6,59.6,27.5,61.2,27.3z M28.4,35.6v-8.3c1.6,0.2,3.3,0.3,4.9,0.4V36
	C31.7,35.9,30,35.8,28.4,35.6z M25.1,27v8.2c-0.3,0-0.7-0.1-1-0.1c-0.2,0-0.4-0.1-0.6-0.1c-0.9-0.1-1.9-0.3-2.8-0.4
	c-0.2,0-0.4-0.1-0.5-0.1v-8.2C21.8,26.5,23.4,26.8,25.1,27z M42.8,56c-0.2,0-0.4,0-0.7,0c-1.1-0.1-2.1-0.2-3.1-0.3
	c-0.2,0-0.4,0-0.6-0.1c0,0-0.1,0-0.1,0v-8.3c1.6,0.2,3.3,0.3,4.9,0.4v8.3C43.1,56.1,42.9,56,42.8,56z M31.9,54.8
	c-0.6-0.1-1.3-0.2-1.9-0.3v-8.2c1.6,0.3,3.2,0.5,4.9,0.7v8.2c-1-0.1-2-0.3-2.9-0.4C32,54.8,32,54.8,31.9,54.8z M26.8,45.7v8.1
	c-1.8-0.4-3.5-0.8-4.9-1.3v-8C23.4,45,25,45.3,26.8,45.7z M18.6,43.5v7.9c-2.6-1-4.2-2-4.8-3l-0.1-0.2c0-0.1,0-0.1,0-0.2v-6.9
	C14.9,42.1,16.6,42.8,18.6,43.5z M57.9,48.1c1.7,0,3.3-0.1,5-0.2v8.3c-2.2,0.1-4.4,0.2-6.6,0.2v-8.3c0.5,0,0.9,0,1.4,0
	C57.8,48.1,57.8,48.1,57.9,48.1z M79.1,54.5c-0.7,0.1-1.4,0.3-2.2,0.4c-0.4,0.1-0.9,0.1-1.3,0.2c-0.4,0.1-0.8,0.1-1.3,0.2V47
	c1.7-0.2,3.3-0.4,4.9-0.7v8.2C79.2,54.5,79.2,54.5,79.1,54.5z M68,55.9c-0.6,0.1-1.2,0.1-1.9,0.1v-8.3c1.7-0.1,3.3-0.2,4.9-0.4v8.3
	c-1,0.1-1.9,0.2-2.9,0.3C68.1,55.9,68.1,55.9,68,55.9z M86.8,52.8c-0.8,0.2-1.7,0.4-2.6,0.7c-0.4,0.1-0.8,0.2-1.3,0.3
	c-0.1,0-0.3,0.1-0.4,0.1v-8.1c1.7-0.3,3.4-0.7,4.9-1.2v8.1C87.3,52.7,87,52.7,86.8,52.8z M95.7,36.6c-0.2,1.1-2.7,2.6-7.2,4.1l0,0
	c-5.8,1.8-14.9,3.5-26.4,4c-0.6,0-1.2,0.1-1.8,0.1c-0.5,0-1,0-1.5,0c-1.4,0-2.7,0.1-4.2,0.1c-1.4,0-2.8,0-4.2-0.1c-0.5,0-1,0-1.5,0
	c-0.6,0-1.2,0-1.8-0.1c-11.5-0.5-20.6-2.2-26.4-4l0,0c-4.5-1.4-7-2.9-7.2-4c0,0,0-0.1,0-0.1c0.1,0,0.2,0.1,0.3,0.1
	c0.6,0.2,1.3,0.3,2,0.4c3.3,0.7,6.9,1.3,10.7,1.7c0,0,0,0,0,0c0,0,0,0,0,0c2.6,0.3,5.3,0.5,8.1,0.7c0,0,0,0,0.1,0c0,0,0,0,0,0
	c2,0.1,4,0.2,6.1,0.3c1.3,0,2.5,0,3.7,0c0.9,0,1.7,0,2.6,0c11.9-0.2,23-1.6,30.7-3.9c0.4-0.1,0.7-0.2,1-0.3c0.2-0.1,0.4-0.1,0.6-0.2
	c0.6-0.2,1.2-0.4,1.7-0.6c0.1,0,0.2-0.1,0.3-0.1c0.5-0.2,0.9-0.4,1.3-0.6c0.1-0.1,0.2-0.1,0.4-0.2c0.5-0.2,0.9-0.4,1.3-0.6
	c0.2-0.1,0.3-0.2,0.5-0.3c0.2-0.1,0.4-0.2,0.6-0.4c0.1-0.1,0.2-0.1,0.3-0.2C93.6,34.1,95.5,35.9,95.7,36.6z M44.8,9.8
	c27.1,0,40.8,4.3,41,6.8c-0.2,1.1-2.7,2.6-7.2,4l0,0c-5.8,1.8-14.9,3.5-26.4,4c-0.6,0-1.2,0-1.8,0.1c-0.5,0-1,0-1.5,0
	c-1.4,0-2.7,0.1-4.2,0.1c-1.4,0-2.8,0-4.2-0.1c-0.5,0-1,0-1.5,0c-0.6,0-1.2,0-1.8-0.1c-11.5-0.5-20.6-2.2-26.4-4l0,0
	c-4.5-1.4-7-2.9-7.2-4C4.1,14.1,17.8,9.8,44.8,9.8z M3.8,28.1v-6.9c1.3,0.8,3,1.6,4.9,2.3v8C5.5,30.3,3.8,29.1,3.8,28.1z M11.7,51.2
	C11.8,51.2,11.8,51.2,11.7,51.2c2.3,2.4,7,4.2,12.8,5.5c0.1,0,0.3,0.1,0.4,0.1c0.4,0.1,0.9,0.2,1.3,0.3c5.3,1.2,11.7,2,18.6,2.4
	c0,0,0,0,0,0c0,0,0,0,0,0c2.2,0.1,4.5,0.2,6.8,0.3c1,0,2,0,3,0c1.1,0,2.3,0,3.5,0c2.1,0,4.3-0.1,6.3-0.3c0,0,0,0,0,0c0,0,0,0,0,0
	c6.9-0.4,13.4-1.3,19-2.5c-1.2,0.6-2.8,1.3-4.9,1.9l0,0c-6.1,1.9-15.9,3.7-28.4,4.1c-0.4,0-0.7,0-1.1,0c-0.4,0-0.8,0-1.2,0
	c-1,0-2.1,0-3.1,0c-1.4,0-2.8,0-4.2-0.1c-0.5,0-1,0-1.5,0c-0.6,0-1.2,0-1.8-0.1c-11.5-0.5-20.6-2.2-26.4-4l0,0
	c-4.5-1.4-7-2.9-7.2-4.1C4,54.3,5.6,52.7,11.7,51.2z M3.8,66.5v-6.9c1.3,0.8,3,1.6,4.9,2.3v8l-0.9-0.4l0,0
	C5.2,68.4,3.8,67.3,3.8,66.5z M8.7,84.8v-6.9c1.3,0.8,3,1.6,4.9,2.3v8C10.4,87,8.7,85.8,8.7,84.8z M85.9,88.2v-8
	c2-0.7,3.6-1.5,4.9-2.3v6.9C90.8,85.8,89.1,87,85.9,88.2z M90.8,73.3c-0.2,1.1-2.7,2.6-7.2,4l0,0c-5.8,1.8-14.9,3.5-26.4,4
	c-0.6,0-1.2,0.1-1.8,0.1c-0.5,0-1,0-1.5,0c-1.4,0-2.7,0.1-4.2,0.1c-1.4,0-2.8,0-4.2-0.1c-0.5,0-1,0-1.5,0c-0.6,0-1.2,0-1.8-0.1
	c-11.5-0.5-20.6-2.2-26.4-4l0,0c-4.3-1.4-6.9-2.8-7.2-3.9c0.5,0.2,1,0.3,1.5,0.5c0.1,0,0.1,0,0.2,0c0.4,0.1,0.9,0.3,1.4,0.4
	c0.2,0,0.4,0.1,0.5,0.1c0.3,0.1,0.5,0.1,0.8,0.2c6,1.6,13.6,2.7,21.9,3.2c0,0,0,0,0,0c0,0,0,0,0,0c2.5,0.2,5.1,0.2,7.8,0.3
	c0.7,0,1.4,0,2.1,0c0.9,0,1.8,0,2.8,0c2.4,0,4.8-0.1,7.1-0.3c0,0,0,0,0,0c0,0,0,0,0,0c2.8-0.2,5.5-0.4,8.2-0.7c0,0,0,0,0,0
	c0,0,0.1,0,0.1,0c2.9-0.3,5.7-0.8,8.2-1.3c0.5-0.1,1-0.2,1.6-0.3c0.1,0,0.2,0,0.3-0.1c4.8-1,9-2.3,11.9-3.9c0.2-0.1,0.3-0.2,0.5-0.3
	c0.2-0.1,0.4-0.2,0.5-0.3c0.2-0.1,0.3-0.2,0.5-0.3C89.8,71.8,90.7,72.9,90.8,73.3z M90.8,51.5v-8c2-0.7,3.6-1.5,4.9-2.3v6.9
	C95.7,49.1,94,50.3,90.8,51.5z"/>
</svg>
