<?xml version="1.0" encoding="utf-8"?>
<!-- Generator: Adobe Illustrator 21.0.0, SVG Export Plug-In . SVG Version: 6.00 Build 0)  -->
<svg version="1.1" id="Слой_1" xmlns="http://www.w3.org/2000/svg" xmlns:xlink="http://www.w3.org/1999/xlink" x="0px" y="0px"
	 viewBox="0 0 100 100" style="enable-background:new 0 0 100 100;" xml:space="preserve">
<path d="M2.9,55.2l37,39.5c2.4,2.6,6.2,2.5,8.6-0.1c2.4-2.6,2.3-6.8-0.1-9.3L22,57.1l70.8,0c3.4,0,6.1-2.9,6.1-6.6
	c0-3.6-2.7-6.6-6.1-6.6H22l26.4-28.2c2.4-2.6,2.4-6.7,0.1-9.3c-1.2-1.3-2.8-2-4.3-2S41.1,5,39.9,6.3l-37,39.5
	c-1.2,1.2-1.8,2.9-1.8,4.7C1.1,52.3,1.8,54,2.9,55.2z"/>
</svg>
