<?xml version="1.0" encoding="utf-8"?>
<!-- Generator: Adobe Illustrator 21.0.0, SVG Export Plug-In . SVG Version: 6.00 Build 0)  -->
<svg version="1.1" id="Слой_1" xmlns="http://www.w3.org/2000/svg" xmlns:xlink="http://www.w3.org/1999/xlink" x="0px" y="0px"
	 viewBox="0 0 100 100" style="enable-background:new 0 0 100 100;" xml:space="preserve">
<g>
	<g>
		<path d="M92.5,7.8c-8.7-8.7-22.9-8.7-31.6,0l-17.1,17c-0.7,0.7-0.7,1.9,0,2.6c0.7,0.7,1.9,0.7,2.6,0l17.1-17
			C67,7,71.7,5.1,76.7,5.1c5,0,9.7,1.9,13.2,5.4c3.5,3.5,5.4,8.1,5.4,13.1c0,5-1.9,9.6-5.4,13.1L67.5,59c-7.3,7.2-19.1,7.2-26.3,0
			c-0.7-0.7-1.9-0.7-2.6,0c-0.7,0.7-0.7,1.9,0,2.6c4.4,4.3,10.1,6.5,15.8,6.5c5.7,0,11.4-2.2,15.8-6.5l22.4-22.3
			c4.2-4.2,6.5-9.8,6.5-15.7C99,17.6,96.7,12,92.5,7.8z M50.4,76L35.9,90.5c-3.5,3.5-8.2,5.4-13.2,5.4s-9.7-1.9-13.2-5.4
			c-7.3-7.2-7.3-19,0-26.2l21.1-21c7.3-7.2,19.1-7.2,26.3,0c0.7,0.7,1.9,0.7,2.6,0c0.7-0.7,0.7-1.9,0-2.6c-8.7-8.7-22.9-8.7-31.6,0
			L7,61.6c-4.2,4.2-6.5,9.8-6.5,15.7S2.8,88.9,7,93.1c4.2,4.2,9.8,6.5,15.8,6.5c6,0,11.6-2.3,15.8-6.5L53,78.7
			c0.7-0.7,0.7-1.9,0-2.6C52.3,75.3,51.1,75.3,50.4,76z M63.6,83c-1,0-1.9,0.8-1.9,1.9v11.1c0,1,0.8,1.9,1.9,1.9
			c1,0,1.9-0.8,1.9-1.9V84.8C65.5,83.8,64.7,83,63.6,83z M72,79.8c-0.7-0.7-1.9-0.7-2.6,0c-0.7,0.7-0.7,1.9,0,2.6l7.9,7.9
			c0.4,0.4,0.8,0.5,1.3,0.5c0.5,0,1-0.2,1.3-0.5c0.7-0.7,0.7-1.9,0-2.6L72,79.8z M84.1,71.8H73c-1,0-1.9,0.8-1.9,1.9
			s0.8,1.9,1.9,1.9h11.2c1,0,1.9-0.8,1.9-1.9S85.1,71.8,84.1,71.8z M30.2,21.7c1,0,1.9-0.8,1.9-1.9V8.8c0-1-0.8-1.9-1.9-1.9
			c-1,0-1.9,0.8-1.9,1.9v11.1C28.3,20.9,29.1,21.7,30.2,21.7z M21.8,24.9c0.4,0.4,0.8,0.5,1.3,0.5c0.5,0,1-0.2,1.3-0.5
			c0.7-0.7,0.7-1.9,0-2.6l-7.9-7.9c-0.7-0.7-1.9-0.7-2.6,0c-0.7,0.7-0.7,1.9,0,2.6L21.8,24.9z M9.7,32.9h11.2c1,0,1.9-0.8,1.9-1.9
			s-0.8-1.9-1.9-1.9H9.7c-1,0-1.9,0.8-1.9,1.9S8.7,32.9,9.7,32.9z"/>
	</g>
</g>
</svg>
