<?xml version="1.0" encoding="utf-8"?>
<!-- Generator: Adobe Illustrator 21.0.0, SVG Export Plug-In . SVG Version: 6.00 Build 0)  -->
<svg version="1.1" id="Слой_1" xmlns="http://www.w3.org/2000/svg" xmlns:xlink="http://www.w3.org/1999/xlink" x="0px" y="0px"
	 viewBox="0 0 100 100" style="enable-background:new 0 0 100 100;" xml:space="preserve">
<path d="M99.1,50.1c0-26.9-21.9-48.8-48.8-48.8S1.5,23.2,1.5,50.1c0,14.2,6.1,27,15.8,35.9l0,0l1.6,1.3c0.1,0.1,0.2,0.2,0.3,0.2
	c0.8,0.7,1.7,1.4,2.6,2c0.3,0.2,0.6,0.4,0.9,0.6c0.9,0.7,1.9,1.3,2.9,1.9c0.2,0.1,0.4,0.3,0.7,0.4c1.1,0.6,2.2,1.2,3.3,1.7
	c0.1,0,0.2,0.1,0.3,0.1c3.7,1.7,7.7,3,11.8,3.7c0.1,0,0.2,0,0.3,0.1c1.3,0.2,2.6,0.4,3.9,0.5c0.2,0,0.3,0,0.5,0
	c1.3,0.1,2.6,0.2,4,0.2c1.3,0,2.6-0.1,3.9-0.2c0.2,0,0.3,0,0.5,0c1.3-0.1,2.6-0.3,3.9-0.5c0.1,0,0.2,0,0.3-0.1c4.1-0.7,8-2,11.6-3.6
	c0.1-0.1,0.3-0.1,0.4-0.2c1.1-0.5,2.2-1.1,3.2-1.7c0.3-0.1,0.5-0.3,0.8-0.4c1-0.6,1.9-1.1,2.8-1.8c0.3-0.2,0.6-0.5,1-0.7
	c0.8-0.6,1.5-1.1,2.3-1.7c0.2-0.1,0.3-0.2,0.5-0.4l1.6-1.4l0,0C92.9,77.3,99.1,64.4,99.1,50.1z M5,50.1c0-25,20.3-45.3,45.3-45.3
	s45.3,20.3,45.3,45.3c0,13.4-5.9,25.5-15.2,33.8c-0.5-0.4-1-0.7-1.6-1l-15-7.5c-1.3-0.7-2.2-2-2.2-3.5v-5.2c0.3-0.4,0.7-0.9,1.1-1.4
	c1.9-2.7,3.5-5.8,4.6-9.1c2.2-1.1,3.7-3.3,3.7-5.8V44c0-1.5-0.6-3-1.6-4.2v-8.3c0.1-0.9,0.4-6.1-3.3-10.4c-3.3-3.7-8.6-5.6-15.7-5.6
	s-12.5,1.9-15.7,5.6c-3.8,4.3-3.4,9.5-3.3,10.4v8.3c-1,1.2-1.6,2.7-1.6,4.2v6.3c0,2,0.9,3.8,2.4,5c1.4,5.6,4.4,9.9,5.5,11.3v5.1
	c0,1.4-0.8,2.8-2.1,3.5l-14,7.7c-0.4,0.2-0.9,0.5-1.3,0.8C10.8,75.5,5,63.5,5,50.1z M76.8,86.7c-0.6,0.5-1.3,0.9-1.9,1.3
	c-0.3,0.2-0.6,0.4-0.9,0.6c-0.8,0.5-1.7,1-2.6,1.5c-0.2,0.1-0.4,0.2-0.6,0.3c-2,1-4.1,1.9-6.2,2.6c-0.1,0-0.1,0.1-0.2,0.1
	c-1.1,0.4-2.2,0.7-3.4,1c0,0,0,0,0,0c-1.1,0.3-2.3,0.5-3.5,0.7c0,0-0.1,0-0.1,0c-1.1,0.2-2.2,0.3-3.3,0.4c-0.2,0-0.4,0-0.6,0
	c-1.1,0.1-2.2,0.1-3.3,0.1c-1.1,0-2.2-0.1-3.4-0.1c-0.2,0-0.4,0-0.6,0c-1.1-0.1-2.2-0.2-3.4-0.4c0,0-0.1,0-0.1,0
	c-2.3-0.4-4.7-1-6.9-1.7c-0.1,0-0.1,0-0.2-0.1c-1.1-0.4-2.2-0.8-3.3-1.3c0,0,0,0,0,0c-1-0.4-2-0.9-3-1.4c-0.1-0.1-0.3-0.1-0.4-0.2
	c-0.9-0.5-1.8-1-2.7-1.6c-0.3-0.2-0.5-0.3-0.8-0.5c-0.8-0.5-1.6-1.1-2.4-1.7c-0.1-0.1-0.2-0.1-0.2-0.2c0.1,0,0.1-0.1,0.2-0.1l14-7.7
	c2.4-1.3,3.9-3.8,3.9-6.6l0-6.4l-0.4-0.5c0,0-3.9-4.7-5.3-11l-0.2-0.7l-0.6-0.4c-0.9-0.6-1.4-1.5-1.4-2.5V44c0-0.8,0.3-1.6,1-2.2
	l0.6-0.5v-9.9l0-0.2c0,0-0.5-4.3,2.5-7.7c2.6-2.9,7-4.4,13.1-4.4c6.1,0,10.5,1.5,13,4.4c3,3.4,2.5,7.7,2.5,7.8l0,10.1l0.6,0.5
	c0.6,0.6,1,1.3,1,2.2v6.3c0,1.3-0.9,2.4-2.1,2.8l-0.9,0.3l-0.3,0.9c-1,3.3-2.5,6.3-4.4,8.9c-0.5,0.7-0.9,1.2-1.3,1.7l-0.4,0.5V72
	c0,2.9,1.6,5.4,4.1,6.7l15,7.5c0.1,0,0.2,0.1,0.3,0.1C77.2,86.5,77,86.6,76.8,86.7z"/>
</svg>
