<?xml version="1.0" encoding="utf-8"?>
<!-- Generator: Adobe Illustrator 21.0.0, SVG Export Plug-In . SVG Version: 6.00 Build 0)  -->
<svg version="1.1" id="Слой_1" xmlns="http://www.w3.org/2000/svg" xmlns:xlink="http://www.w3.org/1999/xlink" x="0px" y="0px"
	 viewBox="0 0 100 100" style="enable-background:new 0 0 100 100;" xml:space="preserve">
<g>
	<g>
		<path d="M98.9,46.6C97.2,22.3,77.7,2.8,53.4,1.1L51.6,1v47.4H99L98.9,46.6z M54.9,45.1V4.5c4,0.4,7.8,1.4,11.5,2.8
			c0,0.1,0,0.1,0,0.2c0,0.9,0.7,1.6,1.6,1.6c0.5,0,0.9-0.2,1.2-0.6C79,13.1,86.9,21,91.5,30.8c-0.4,0.3-0.6,0.7-0.6,1.2
			c0,0.9,0.7,1.6,1.6,1.6c0.1,0,0.1,0,0.2,0c1.4,3.6,2.4,7.5,2.8,11.5H54.9z M84.9,84.5l1.2-1.3c7.5-8.2,12.1-18.8,12.9-29.8
			l0.1-1.7H52L84.9,84.5z M72.9,54.9h9.8h9.8h3c-0.4,3.4-1.1,6.8-2.2,10c-0.2-0.1-0.5-0.2-0.7-0.2c-0.9,0-1.6,0.7-1.6,1.6
			c0,0.8,0.5,1.4,1.2,1.6c-1.8,4.3-4.3,8.3-7.3,11.8l-2-2c0.9-0.1,1.5-0.7,1.5-1.6c0-0.9-0.7-1.6-1.6-1.6c-0.9,0-1.6,0.7-1.6,1.5
			l-3.2-3.2c0.9-0.1,1.5-0.7,1.5-1.6c0-0.9-0.7-1.6-1.6-1.6c-0.9,0-1.6,0.7-1.6,1.5L73,67.9c0.9-0.1,1.5-0.7,1.5-1.6
			c0-0.9-0.7-1.6-1.6-1.6c-0.9,0-1.6,0.7-1.6,1.5L68.1,63c0.9-0.1,1.5-0.7,1.5-1.6c0-0.9-0.7-1.6-1.6-1.6c-0.9,0-1.6,0.7-1.6,1.5
			l-3.2-3.2c0.9-0.1,1.5-0.7,1.5-1.6c0-0.9-0.7-1.6-1.6-1.6c-0.9,0-1.6,0.7-1.6,1.5l-1.5-1.5h3.2H72.9z M48.4,1l-1.7,0.1
			C21,2.9,1,24.3,1,50c0,27,22,49,49,49c11.3,0,22.4-4,31.1-11.2l1.4-1.1L48.4,52.6V1z M77.6,86.4c-7.9,6-17.6,9.3-27.6,9.3
			C24.8,95.7,4.3,75.2,4.3,50c0-23.4,17.8-43,40.8-45.5v49.4L77.6,86.4z M58.2,5.9c-0.9,0-1.6,0.7-1.6,1.6c0,0.9,0.7,1.6,1.6,1.6
			c0.9,0,1.6-0.7,1.6-1.6C59.8,6.6,59.1,5.9,58.2,5.9z M58.2,15.7c-0.9,0-1.6,0.7-1.6,1.6s0.7,1.6,1.6,1.6c0.9,0,1.6-0.7,1.6-1.6
			S59.1,15.7,58.2,15.7z M63.1,10.8c-0.9,0-1.6,0.7-1.6,1.6s0.7,1.6,1.6,1.6c0.9,0,1.6-0.7,1.6-1.6S64,10.8,63.1,10.8z M72.9,10.8
			c-0.9,0-1.6,0.7-1.6,1.6s0.7,1.6,1.6,1.6c0.9,0,1.6-0.7,1.6-1.6S73.8,10.8,72.9,10.8z M68,15.7c-0.9,0-1.6,0.7-1.6,1.6
			S67.1,19,68,19c0.9,0,1.6-0.7,1.6-1.6S68.9,15.7,68,15.7z M77.8,15.7c-0.9,0-1.6,0.7-1.6,1.6s0.7,1.6,1.6,1.6
			c0.9,0,1.6-0.7,1.6-1.6S78.7,15.7,77.8,15.7z M82.7,20.6c-0.9,0-1.6,0.7-1.6,1.6c0,0.9,0.7,1.6,1.6,1.6c0.9,0,1.6-0.7,1.6-1.6
			C84.3,21.3,83.6,20.6,82.7,20.6z M63.1,20.6c-0.9,0-1.6,0.7-1.6,1.6c0,0.9,0.7,1.6,1.6,1.6c0.9,0,1.6-0.7,1.6-1.6
			C64.7,21.3,64,20.6,63.1,20.6z M72.9,20.6c-0.9,0-1.6,0.7-1.6,1.6c0,0.9,0.7,1.6,1.6,1.6c0.9,0,1.6-0.7,1.6-1.6
			C74.5,21.3,73.8,20.6,72.9,20.6z M82.7,30.4c-0.9,0-1.6,0.7-1.6,1.6c0,0.9,0.7,1.6,1.6,1.6c0.9,0,1.6-0.7,1.6-1.6
			C84.3,31.1,83.6,30.4,82.7,30.4z M87.6,25.5c-0.9,0-1.6,0.7-1.6,1.6c0,0.9,0.7,1.6,1.6,1.6c0.9,0,1.6-0.7,1.6-1.6
			C89.2,26.2,88.5,25.5,87.6,25.5z M87.6,35.3c-0.9,0-1.6,0.7-1.6,1.6c0,0.9,0.7,1.6,1.6,1.6c0.9,0,1.6-0.7,1.6-1.6
			C89.2,36,88.5,35.3,87.6,35.3z M58.2,25.5c-0.9,0-1.6,0.7-1.6,1.6c0,0.9,0.7,1.6,1.6,1.6c0.9,0,1.6-0.7,1.6-1.6
			C59.8,26.2,59.1,25.5,58.2,25.5z M58.2,35.3c-0.9,0-1.6,0.7-1.6,1.6c0,0.9,0.7,1.6,1.6,1.6c0.9,0,1.6-0.7,1.6-1.6
			C59.8,36,59.1,35.3,58.2,35.3z M63.1,30.4c-0.9,0-1.6,0.7-1.6,1.6c0,0.9,0.7,1.6,1.6,1.6c0.9,0,1.6-0.7,1.6-1.6
			C64.7,31.1,64,30.4,63.1,30.4z M72.9,30.4c-0.9,0-1.6,0.7-1.6,1.6c0,0.9,0.7,1.6,1.6,1.6c0.9,0,1.6-0.7,1.6-1.6
			C74.5,31.1,73.8,30.4,72.9,30.4z M68,25.5c-0.9,0-1.6,0.7-1.6,1.6c0,0.9,0.7,1.6,1.6,1.6c0.9,0,1.6-0.7,1.6-1.6
			C69.6,26.2,68.9,25.5,68,25.5z M77.8,25.5c-0.9,0-1.6,0.7-1.6,1.6c0,0.9,0.7,1.6,1.6,1.6c0.9,0,1.6-0.7,1.6-1.6
			C79.4,26.2,78.7,25.5,77.8,25.5z M68,35.3c-0.9,0-1.6,0.7-1.6,1.6c0,0.9,0.7,1.6,1.6,1.6c0.9,0,1.6-0.7,1.6-1.6
			C69.6,36,68.9,35.3,68,35.3z M77.8,35.3c-0.9,0-1.6,0.7-1.6,1.6c0,0.9,0.7,1.6,1.6,1.6c0.9,0,1.6-0.7,1.6-1.6
			C79.4,36,78.7,35.3,77.8,35.3z M90.8,41.8c0,0.9,0.7,1.6,1.6,1.6c0.9,0,1.6-0.7,1.6-1.6c0-0.9-0.7-1.6-1.6-1.6
			C91.6,40.2,90.8,40.9,90.8,41.8z M82.7,40.2c-0.9,0-1.6,0.7-1.6,1.6c0,0.9,0.7,1.6,1.6,1.6c0.9,0,1.6-0.7,1.6-1.6
			C84.3,40.9,83.6,40.2,82.7,40.2z M63.1,40.2c-0.9,0-1.6,0.7-1.6,1.6c0,0.9,0.7,1.6,1.6,1.6c0.9,0,1.6-0.7,1.6-1.6
			C64.7,40.9,64,40.2,63.1,40.2z M72.9,40.2c-0.9,0-1.6,0.7-1.6,1.6c0,0.9,0.7,1.6,1.6,1.6c0.9,0,1.6-0.7,1.6-1.6
			C74.5,40.9,73.8,40.2,72.9,40.2z M82.7,68c0.9,0,1.6-0.7,1.6-1.6c0-0.9-0.7-1.6-1.6-1.6c-0.9,0-1.6,0.7-1.6,1.6
			C81,67.2,81.8,68,82.7,68z M87.6,72.9c0.9,0,1.6-0.7,1.6-1.6c0-0.9-0.7-1.6-1.6-1.6c-0.9,0-1.6,0.7-1.6,1.6
			C85.9,72.1,86.7,72.9,87.6,72.9z M87.6,63.1c0.9,0,1.6-0.7,1.6-1.6c0-0.9-0.7-1.6-1.6-1.6c-0.9,0-1.6,0.7-1.6,1.6
			C85.9,62.3,86.7,63.1,87.6,63.1z M77.8,63.1c0.9,0,1.6-0.7,1.6-1.6c0-0.9-0.7-1.6-1.6-1.6c-0.9,0-1.6,0.7-1.6,1.6
			C76.1,62.3,76.9,63.1,77.8,63.1z M71.2,56.5c0,0.9,0.7,1.6,1.6,1.6c0.9,0,1.6-0.7,1.6-1.6s-0.7-1.6-1.6-1.6
			C72,54.9,71.2,55.6,71.2,56.5z M90.8,56.5c0,0.9,0.7,1.6,1.6,1.6c0.9,0,1.6-0.7,1.6-1.6s-0.7-1.6-1.6-1.6
			C91.6,54.9,90.8,55.6,90.8,56.5z M81,56.5c0,0.9,0.7,1.6,1.6,1.6c0.9,0,1.6-0.7,1.6-1.6s-0.7-1.6-1.6-1.6
			C81.8,54.9,81,55.6,81,56.5z"/>
	</g>
</g>
</svg>
