<?xml version="1.0" encoding="utf-8"?>
<!-- Generator: Adobe Illustrator 21.0.0, SVG Export Plug-In . SVG Version: 6.00 Build 0)  -->
<svg version="1.1" id="Слой_1" xmlns="http://www.w3.org/2000/svg" xmlns:xlink="http://www.w3.org/1999/xlink" x="0px" y="0px"
	 viewBox="0 0 100 100" style="enable-background:new 0 0 100 100;" xml:space="preserve">
<g>
	<g>
		<path d="M52.5,17.7c3.2,0,5.8-2.6,5.8-5.8c0-3.2-2.6-5.8-5.8-5.8c-3.2,0-5.8,2.6-5.8,5.8C46.6,15.1,49.2,17.7,52.5,17.7z
			 M52.5,9.3c1.4,0,2.5,1.1,2.5,2.5c0,1.4-1.1,2.5-2.5,2.5c-1.4,0-2.5-1.1-2.5-2.5C50,10.5,51.1,9.3,52.5,9.3z M17.4,17.7
			c3.2,0,5.8-2.6,5.8-5.8c0-3.2-2.6-5.8-5.8-5.8c-3.2,0-5.8,2.6-5.8,5.8C11.5,15.1,14.1,17.7,17.4,17.7z M17.4,9.3
			c1.4,0,2.5,1.1,2.5,2.5c0,1.4-1.1,2.5-2.5,2.5c-1.4,0-2.5-1.1-2.5-2.5C14.9,10.5,16,9.3,17.4,9.3z M17.4,81.1
			c-3.2,0-5.8,2.6-5.8,5.8c0,3.2,2.6,5.8,5.8,5.8c3.2,0,5.8-2.6,5.8-5.8C23.2,83.8,20.6,81.1,17.4,81.1z M17.4,89.5
			c-1.4,0-2.5-1.1-2.5-2.5c0-1.4,1.1-2.5,2.5-2.5c1.4,0,2.5,1.1,2.5,2.5C19.9,88.4,18.8,89.5,17.4,89.5z M78.4,29.4V1H6.5v96.8h40.2
			c2.6,1.1,5.8,1.7,9.1,1.7c4.2,0,7.9-0.9,10.9-2.5c3.1,1.6,6.9,2.5,10.8,2.5c9.8,0,17.5-5.1,17.5-11.7V41.1
			C95.1,34.7,87.8,29.7,78.4,29.4z M73.3,4.3H75v25.2c-0.6,0.1-1.1,0.1-1.7,0.2V4.3z M68.3,4.3H70v26.1c-0.6,0.2-1.1,0.4-1.7,0.6
			V4.3z M63.3,4.3H65v28.5c-0.6,0.4-1.2,0.9-1.7,1.3V4.3z M9.8,94.5V4.3H60v45.4h0c-0.5-0.1-1.1-0.2-1.7-0.2c0,0,0-0.1,0-0.1
			c0-4.4-1.2-8.5-3.3-12V19.2l-1.8,0.2c-0.2,0-0.5,0-0.7,0c-4.1,0-7.5-3.4-7.5-7.5c0-0.2,0-0.5,0-0.7l0.2-1.8H24.7l0.2,1.8
			c0,0.2,0,0.5,0,0.7c0,4.1-3.4,7.5-7.5,7.5c-0.2,0-0.5,0-0.7,0l-1.8-0.2v18.3c0,0,0,0.1-0.1,0.1c-0.2,0.4-0.4,0.7-0.6,1.1
			c-0.3,0.5-0.5,1-0.7,1.5c-0.1,0.2-0.1,0.4-0.2,0.6c-0.2,0.5-0.4,1-0.5,1.5c-0.1,0.2-0.1,0.4-0.2,0.6c-0.1,0.5-0.3,1-0.4,1.5
			c0,0.2-0.1,0.4-0.1,0.7c-0.1,0.5-0.2,1-0.2,1.6c0,0.2-0.1,0.4-0.1,0.6c-0.1,0.7-0.1,1.5-0.1,2.2c0,0.7,0,1.5,0.1,2.2
			c0,0.2,0.1,0.4,0.1,0.6c0.1,0.5,0.1,1,0.2,1.6c0,0.2,0.1,0.4,0.1,0.7c0.1,0.5,0.2,1,0.4,1.5c0.1,0.2,0.1,0.4,0.2,0.6
			c0.2,0.5,0.3,1,0.5,1.5c0.1,0.2,0.1,0.4,0.2,0.6c0.2,0.5,0.5,1,0.7,1.5c0.2,0.4,0.4,0.8,0.6,1.1c0,0,0,0.1,0.1,0.1v18.3l1.8-0.2
			c0.2,0,0.5,0,0.7,0c4.1,0,7.5,3.4,7.5,7.5c0,0.2,0,0.5,0,0.7l-0.2,1.8h13.7c0,0.1,0.1,0.3,0.1,0.4c0,0.2,0.1,0.3,0.1,0.5
			c0,0.1,0.1,0.3,0.2,0.4c0.5,1.3,1.4,2.6,2.5,3.7H9.8z M46.4,40.3l-0.3-0.6l-0.7-0.2c-1.4-0.4-4.7,0.2-6.7,1.6
			c-1.6-1.1-3.5-1.6-5.5-1.6c-2.6,0-4.2,1.9-5,2.8c-0.1,0.2-0.3,0.3-0.4,0.4c-0.2,0-0.4,0.1-0.6,0.1c-0.7,0-1.4-0.4-2-1L20.1,36
			c0.3-0.4,0.6-0.7,1-1c0.1-0.1,0.3-0.3,0.5-0.4c0.4-0.4,0.8-0.7,1.3-1c0.2-0.2,0.4-0.3,0.7-0.5c0.4-0.3,0.9-0.6,1.4-0.9
			c0.2-0.1,0.4-0.2,0.6-0.3c0.6-0.3,1.3-0.6,2-0.9c0.2-0.1,0.5-0.2,0.8-0.3c0.5-0.2,0.9-0.3,1.4-0.5c0.3-0.1,0.5-0.1,0.8-0.2
			c0.5-0.1,1-0.2,1.5-0.3c0.2,0,0.5-0.1,0.7-0.1c0.8-0.1,1.5-0.1,2.3-0.1c0.8,0,1.6,0.1,2.3,0.1c0.2,0,0.5,0.1,0.7,0.1
			c0.5,0.1,1,0.2,1.5,0.3c0.3,0.1,0.6,0.1,0.8,0.2c0.5,0.1,1,0.3,1.4,0.5c0.3,0.1,0.5,0.2,0.8,0.3c0.7,0.3,1.3,0.6,2,0.9
			c0.2,0.1,0.4,0.2,0.6,0.3c0.5,0.3,0.9,0.6,1.4,0.9c0.2,0.2,0.4,0.3,0.7,0.5c0.4,0.3,0.8,0.7,1.3,1c0.2,0.1,0.3,0.3,0.5,0.4
			c1.1,1.1,2.2,2.4,3.1,3.7c2,3.1,3.1,6.8,3.1,10.7v0c-0.2,0-0.3,0-0.5,0c-0.3,0-0.6,0-0.8,0.1c-0.3,0-0.6,0.1-0.9,0.1
			c-0.3,0-0.5,0.1-0.8,0.1c-0.3,0-0.6,0.1-0.9,0.1c-0.3,0-0.5,0.1-0.8,0.2c-0.3,0.1-0.6,0.1-0.8,0.2c-0.2,0.1-0.5,0.1-0.7,0.2
			c-0.3,0.1-0.5,0.2-0.8,0.3c0,0-0.1,0-0.1,0C48.9,45.2,46.5,40.6,46.4,40.3z M20,31.4c-0.3,0.2-0.6,0.5-0.9,0.8
			c-0.3,0.3-0.6,0.5-0.9,0.8c0,0-0.1,0-0.1,0.1V22.7c5.3-0.4,9.6-4.7,10-10h13.4c0.4,5.3,4.7,9.6,10,10v10.4c0,0-0.1,0-0.1-0.1
			c-0.3-0.3-0.6-0.5-0.9-0.8c-0.3-0.3-0.6-0.5-0.9-0.8c-0.1-0.1-0.2-0.2-0.3-0.3c-3.4-2.7-7.6-4.5-12-5c-0.1,0-0.1,0-0.2,0
			c-0.8-0.1-1.6-0.1-2.4-0.1c-0.8,0-1.6,0-2.4,0.1c-0.1,0-0.1,0-0.2,0c-4.4,0.5-8.6,2.2-12,5C20.2,31.2,20.1,31.3,20,31.4z
			 M20.1,67.5c0.2,0.2,0.5,0.3,0.7,0.5c0.4,0.3,0.9,0.6,1.3,0.9c0.3,0.2,0.6,0.4,1,0.6c0.4,0.2,0.8,0.5,1.2,0.7
			c0.3,0.2,0.7,0.3,1,0.5c0.4,0.2,0.9,0.4,1.3,0.5c0.3,0.1,0.7,0.3,1,0.4c0.5,0.2,1,0.3,1.5,0.4c0.3,0.1,0.6,0.2,0.9,0.2
			c0.8,0.2,1.6,0.3,2.4,0.4c0.3,0,0.6,0,0.8,0c0.5,0,1,0.1,1.5,0.1c0.1,0,0.2,0,0.2,0c0.5,0,0.9-0.1,1.4-0.1c0.4,0,0.9-0.1,1.3-0.1
			c0.1,0,0.3,0,0.4,0v13.6H28.2c-0.4-5.3-4.7-9.6-10-10V65.8c0,0,0,0,0.1,0.1C18.9,66.4,19.5,67,20.1,67.5z M20.1,62.8l5.2-5.7
			c0.7-0.8,1.7-1.2,2.5-1c0.1,0,0.2,0,0.2,0c0.3,0.2,0.8,0.7,1.2,1c0.9,0.8,1.5,1.4,2,1.7c0.9,1.8,2.3,2.5,3.2,2.8
			c1.2,0.3,2.5,0.2,3.9-0.3v7.7c-0.2,0-0.4,0.1-0.5,0.1c-0.3,0-0.5,0.1-0.8,0.1c-0.7,0.1-1.3,0.1-2,0.1c-0.8,0-1.6-0.1-2.3-0.1
			c-0.2,0-0.5-0.1-0.7-0.1c-0.5-0.1-1-0.2-1.5-0.3c-0.3-0.1-0.6-0.1-0.8-0.2c-0.5-0.1-1-0.3-1.4-0.5c-0.3-0.1-0.5-0.2-0.8-0.3
			c-0.7-0.3-1.3-0.6-2-0.9c-0.2-0.1-0.4-0.2-0.6-0.3c-0.5-0.3-0.9-0.6-1.4-0.9c-0.2-0.2-0.4-0.3-0.7-0.5c-0.4-0.3-0.8-0.7-1.3-1
			c-0.2-0.1-0.3-0.3-0.5-0.4C20.7,63.5,20.4,63.2,20.1,62.8z M41.1,54.6c-0.2,0.2-0.3,0.3-0.5,0.5c-0.1,0.1-0.3,0.3-0.4,0.4
			c-0.1,0.2-0.3,0.4-0.4,0.6c-0.1,0.2-0.2,0.3-0.3,0.5c-0.1,0.2-0.2,0.4-0.3,0.6c0,0,0,0,0,0c-1.7,1.1-3.1,1.6-4,1.3
			c-0.2-0.1-0.8-0.2-1.3-1.5l-0.4-0.9l-0.7-0.1c-0.4-0.3-1-0.9-1.5-1.3c-1.2-1.1-1.7-1.5-2.2-1.7c-0.3-0.1-0.6-0.2-0.9-0.2
			c-2-0.3-4,0.4-5.5,2L18,60.1c0,0,0,0,0,0c-0.1-0.2-0.3-0.4-0.4-0.7c-0.1-0.3-0.3-0.5-0.4-0.8c-0.2-0.4-0.4-0.8-0.6-1.3
			c-0.1-0.2-0.1-0.3-0.2-0.5c-0.2-0.4-0.3-0.9-0.5-1.3c0-0.1-0.1-0.2-0.1-0.4c-0.2-0.6-0.3-1.2-0.4-1.7c0-0.1,0-0.2,0-0.2
			c-0.1-0.5-0.2-1-0.2-1.6c0-0.2,0-0.3,0-0.5c-0.1-0.6-0.1-1.2-0.1-1.8c0-0.6,0-1.2,0.1-1.8c0-0.2,0-0.3,0-0.5
			c0.1-0.5,0.1-1,0.2-1.6c0-0.1,0-0.2,0-0.2c0.1-0.6,0.3-1.2,0.4-1.7c0-0.1,0.1-0.2,0.1-0.4c0.1-0.4,0.3-0.9,0.5-1.3
			c0.1-0.2,0.1-0.3,0.2-0.5c0.2-0.5,0.4-0.9,0.6-1.3c0.1-0.2,0.2-0.4,0.4-0.7c0.1-0.2,0.3-0.5,0.4-0.7c0,0,0,0,0,0l4.8,5.3
			c1.2,1.4,2.9,2.1,4.5,2.1c0.6,0,1.2-0.1,1.8-0.3c0.7-0.2,1.2-0.8,1.6-1.4c0.8-1,1.5-1.7,2.5-1.7c1.7,0,3.3,0.6,4.5,1.7l1.8,1.8
			l0.8-2.4c0.4-0.5,2.3-1.2,3.4-1.3c0.7,1.7,1.8,6-0.2,10c-0.1,0.1-0.2,0.1-0.3,0.2c-0.2,0.1-0.4,0.3-0.6,0.4
			c-0.2,0.1-0.3,0.3-0.5,0.4c-0.2,0.2-0.4,0.3-0.5,0.5C41.4,54.3,41.3,54.5,41.1,54.6z M42.1,59c0.5-1,1.2-1.9,2.3-2.8
			c0.1-0.1,0.1-0.1,0.2-0.2c0.3-0.2,0.6-0.4,0.9-0.6c2.6-1.6,6.3-2.7,10.3-2.7c0.9,0,1.8,0.1,2.7,0.2c0,0,0,0,0.1,0
			c0.9,0.1,1.7,0.3,2.6,0.5c0.7,0.2,1.4,0.4,2.1,0.7c0.3,0.1,0.6,0.3,1,0.4c0.2,0.1,0.3,0.1,0.5,0.2c0.5,0.2,0.9,0.5,1.3,0.7
			c0.1,0.1,0.2,0.1,0.3,0.2c0.9,0.6,1.7,1.3,2.3,2c0,0,0,0,0.1,0.1c0.2,0.3,0.4,0.5,0.5,0.8c0,0,0,0.1,0.1,0.1
			c0.1,0.2,0.3,0.5,0.4,0.7c0,0,0,0.1,0.1,0.1c0.1,0.2,0.2,0.5,0.2,0.7c0,0.1,0,0.1,0,0.2c0.1,0.3,0.1,0.6,0.1,0.9
			c0,4.5-6.5,8.3-14.2,8.3c-7.7,0-14.2-3.8-14.2-8.3C41.6,60.4,41.8,59.7,42.1,59z M91.7,75c0,0.1,0,0.3-0.1,0.4
			c0,0.1-0.1,0.3-0.1,0.4c0,0.1-0.1,0.3-0.1,0.4c-0.1,0.1-0.1,0.3-0.2,0.4c-0.1,0.1-0.1,0.3-0.2,0.4c-0.1,0.1-0.2,0.3-0.2,0.4
			c-0.1,0.1-0.2,0.2-0.2,0.4c-0.1,0.1-0.2,0.3-0.3,0.4c-0.1,0.1-0.2,0.2-0.3,0.3c-0.1,0.1-0.2,0.2-0.4,0.4c-0.1,0.1-0.2,0.2-0.3,0.3
			c-0.1,0.1-0.3,0.2-0.4,0.3c-0.1,0.1-0.3,0.2-0.4,0.3c-0.2,0.1-0.3,0.2-0.5,0.3c-0.1,0.1-0.3,0.2-0.4,0.3c-0.2,0.1-0.4,0.2-0.5,0.3
			c-0.2,0.1-0.3,0.2-0.5,0.2c-0.2,0.1-0.4,0.2-0.6,0.3c-0.2,0.1-0.3,0.1-0.5,0.2c-0.2,0.1-0.4,0.2-0.6,0.2c-0.2,0.1-0.3,0.1-0.5,0.2
			c-0.2,0.1-0.5,0.1-0.7,0.2c-0.2,0.1-0.4,0.1-0.5,0.2c-0.2,0.1-0.5,0.1-0.7,0.2c-0.2,0-0.4,0.1-0.6,0.1c-0.3,0-0.5,0.1-0.8,0.1
			c-0.2,0-0.3,0.1-0.5,0.1c-0.3,0-0.6,0.1-0.9,0.1c-0.2,0-0.3,0-0.5,0c-0.5,0-0.9,0-1.4,0c-0.8,0-1.7-0.1-2.5-0.2
			c-0.2,0-0.5-0.1-0.7-0.1c-0.3,0-0.6-0.1-0.9-0.2v-3.2c0.1,0,0.2,0,0.4,0c0.5,0.1,0.9,0.1,1.4,0.2c0.2,0,0.4,0,0.6,0.1
			c0.6,0,1.3,0.1,1.9,0.1c0.7,0,1.4,0,2-0.1c0.2,0,0.4,0,0.6-0.1c0.4,0,0.9-0.1,1.3-0.2c0.2,0,0.5-0.1,0.7-0.1
			c0.4-0.1,0.8-0.2,1.2-0.2c0.2-0.1,0.5-0.1,0.7-0.2c0.4-0.1,0.8-0.2,1.2-0.3c0.2-0.1,0.4-0.1,0.6-0.2c0.5-0.2,1.1-0.4,1.6-0.6
			c0,0,0,0,0.1,0c0.5-0.2,1-0.5,1.5-0.7c0.2-0.1,0.3-0.2,0.4-0.3c0.3-0.2,0.6-0.4,0.9-0.6c0.2-0.1,0.3-0.2,0.5-0.3
			c0.3-0.2,0.5-0.4,0.8-0.6c0.1-0.1,0.2-0.1,0.2-0.2C91.7,74.8,91.7,74.9,91.7,75z M91.7,81.4c0,0.1,0,0.2,0,0.3
			c0,0.1,0,0.3-0.1,0.4c0,0.1-0.1,0.3-0.1,0.4c0,0.1-0.1,0.3-0.1,0.4c-0.1,0.1-0.1,0.3-0.2,0.4c-0.1,0.1-0.1,0.3-0.2,0.4
			c-0.1,0.1-0.2,0.3-0.2,0.4c-0.1,0.1-0.2,0.2-0.2,0.4c-0.1,0.1-0.2,0.3-0.3,0.4c-0.1,0.1-0.2,0.2-0.3,0.3c-0.1,0.1-0.2,0.2-0.4,0.4
			c-0.1,0.1-0.2,0.2-0.3,0.3c-0.1,0.1-0.3,0.2-0.4,0.3c-0.1,0.1-0.3,0.2-0.4,0.3c-0.2,0.1-0.3,0.2-0.5,0.3c-0.1,0.1-0.3,0.2-0.4,0.3
			c-0.2,0.1-0.4,0.2-0.5,0.3c-0.2,0.1-0.3,0.2-0.5,0.2c-0.2,0.1-0.4,0.2-0.6,0.3c-0.2,0.1-0.3,0.1-0.5,0.2c-0.2,0.1-0.4,0.2-0.6,0.2
			c-0.2,0.1-0.3,0.1-0.5,0.2c-0.2,0.1-0.5,0.1-0.7,0.2c-0.2,0.1-0.4,0.1-0.5,0.2c-0.2,0.1-0.5,0.1-0.7,0.2c-0.2,0-0.4,0.1-0.6,0.1
			c-0.3,0-0.5,0.1-0.8,0.1c-0.2,0-0.3,0.1-0.5,0.1c-0.3,0-0.6,0.1-0.9,0.1c-0.2,0-0.3,0-0.5,0c-0.5,0-0.9,0-1.4,0
			c-0.7,0-1.3,0-1.9-0.1c-0.2,0-0.3,0-0.5-0.1c-0.5-0.1-1.1-0.1-1.6-0.2c-0.1,0-0.2,0-0.2,0c0.1-0.4,0.1-0.8,0.1-1.3v-2
			c0.1,0,0.2,0,0.4,0c0.5,0.1,0.9,0.1,1.4,0.2c0.2,0,0.4,0,0.6,0.1c0.6,0,1.3,0.1,1.9,0.1c0.7,0,1.4,0,2-0.1c0.2,0,0.4,0,0.6-0.1
			c0.4,0,0.9-0.1,1.3-0.2c0.2,0,0.5-0.1,0.7-0.1c0.4-0.1,0.8-0.2,1.2-0.2c0.2-0.1,0.5-0.1,0.7-0.2c0.4-0.1,0.8-0.2,1.2-0.3
			c0.2-0.1,0.4-0.1,0.6-0.2c0.5-0.2,1.1-0.4,1.6-0.6c0,0,0,0,0.1,0c0.5-0.2,1-0.5,1.5-0.7c0.2-0.1,0.3-0.2,0.4-0.3
			c0.3-0.2,0.6-0.4,0.9-0.6c0.2-0.1,0.3-0.2,0.5-0.3c0.3-0.2,0.5-0.4,0.8-0.6C91.5,81.6,91.6,81.5,91.7,81.4z M91.7,68.4
			c0,0.1,0,0.3-0.1,0.4c0,0.1-0.1,0.3-0.1,0.4c0,0.1-0.1,0.3-0.1,0.4c-0.1,0.1-0.1,0.3-0.2,0.4c-0.1,0.1-0.1,0.3-0.2,0.4
			c-0.1,0.1-0.2,0.3-0.2,0.4c-0.1,0.1-0.2,0.2-0.2,0.4c-0.1,0.1-0.2,0.3-0.3,0.4c-0.1,0.1-0.2,0.2-0.3,0.3c-0.1,0.1-0.2,0.2-0.4,0.4
			c-0.1,0.1-0.2,0.2-0.3,0.3c-0.1,0.1-0.3,0.2-0.4,0.3c-0.1,0.1-0.3,0.2-0.4,0.3c-0.2,0.1-0.3,0.2-0.5,0.3c-0.1,0.1-0.3,0.2-0.4,0.3
			c-0.2,0.1-0.4,0.2-0.5,0.3c-0.2,0.1-0.3,0.2-0.5,0.2c-0.2,0.1-0.4,0.2-0.6,0.3c-0.2,0.1-0.3,0.1-0.5,0.2c-0.2,0.1-0.4,0.2-0.6,0.2
			c-0.2,0.1-0.3,0.1-0.5,0.2c-0.2,0.1-0.5,0.1-0.7,0.2c-0.2,0.1-0.4,0.1-0.5,0.2c-0.2,0.1-0.5,0.1-0.7,0.2c-0.2,0-0.4,0.1-0.6,0.1
			c-0.3,0-0.5,0.1-0.8,0.1c-0.2,0-0.3,0.1-0.5,0.1c-0.3,0-0.6,0.1-0.9,0.1c-0.2,0-0.3,0-0.5,0c-0.5,0-0.9,0-1.4,0
			c-0.8,0-1.7-0.1-2.5-0.2c-0.2,0-0.5-0.1-0.7-0.1c-0.3,0-0.6-0.1-0.9-0.2v-3.2c0.1,0,0.2,0,0.4,0c0.5,0.1,0.9,0.1,1.4,0.2
			c0.2,0,0.4,0,0.6,0.1c0.6,0,1.3,0.1,1.9,0.1c0.7,0,1.4,0,2-0.1c0.2,0,0.4,0,0.6-0.1c0.4,0,0.9-0.1,1.3-0.2c0.2,0,0.5-0.1,0.7-0.1
			c0.4-0.1,0.8-0.2,1.2-0.2c0.2-0.1,0.5-0.1,0.7-0.2c0.4-0.1,0.8-0.2,1.2-0.3c0.2-0.1,0.4-0.1,0.6-0.2c0.5-0.2,1.1-0.4,1.6-0.6
			c0,0,0,0,0.1,0c0.5-0.2,1-0.5,1.5-0.7c0.2-0.1,0.3-0.2,0.4-0.3c0.3-0.2,0.6-0.4,0.9-0.6c0.2-0.1,0.3-0.2,0.5-0.3
			c0.3-0.2,0.5-0.4,0.8-0.6c0.1-0.1,0.2-0.1,0.2-0.2C91.7,68.2,91.7,68.3,91.7,68.4z M91.7,61.7c0,0.1,0,0.3-0.1,0.4
			c0,0.1-0.1,0.3-0.1,0.4c0,0.1-0.1,0.3-0.1,0.4c-0.1,0.1-0.1,0.3-0.2,0.4c-0.1,0.1-0.1,0.3-0.2,0.4c-0.1,0.1-0.2,0.3-0.2,0.4
			c-0.1,0.1-0.2,0.2-0.2,0.4c-0.1,0.1-0.2,0.3-0.3,0.4c-0.1,0.1-0.2,0.2-0.3,0.3c-0.1,0.1-0.2,0.2-0.4,0.4c-0.1,0.1-0.2,0.2-0.3,0.3
			c-0.1,0.1-0.3,0.2-0.4,0.3c-0.1,0.1-0.3,0.2-0.4,0.3c-0.2,0.1-0.3,0.2-0.5,0.3c-0.1,0.1-0.3,0.2-0.4,0.3c-0.2,0.1-0.4,0.2-0.5,0.3
			c-0.2,0.1-0.3,0.2-0.5,0.2c-0.2,0.1-0.4,0.2-0.6,0.3c-0.2,0.1-0.3,0.1-0.5,0.2c-0.2,0.1-0.4,0.2-0.6,0.2c-0.2,0.1-0.3,0.1-0.5,0.2
			c-0.2,0.1-0.5,0.1-0.7,0.2c-0.2,0.1-0.4,0.1-0.5,0.2c-0.2,0.1-0.5,0.1-0.7,0.2c-0.2,0-0.4,0.1-0.6,0.1c-0.3,0-0.5,0.1-0.8,0.1
			c-0.2,0-0.3,0.1-0.5,0.1c-0.3,0-0.6,0.1-0.9,0.1c-0.2,0-0.3,0-0.5,0c-0.5,0-0.9,0-1.4,0c-0.8,0-1.7-0.1-2.5-0.2
			c-0.2,0-0.5-0.1-0.7-0.1c-0.3,0-0.6-0.1-0.9-0.2v-3.2c0.1,0,0.2,0,0.4,0c0.5,0.1,0.9,0.1,1.4,0.2c0.2,0,0.4,0,0.6,0.1
			c0.6,0,1.3,0.1,1.9,0.1c0.7,0,1.4,0,2-0.1c0.2,0,0.4,0,0.6-0.1c0.4,0,0.9-0.1,1.3-0.2c0.2,0,0.5-0.1,0.7-0.1
			c0.4-0.1,0.8-0.2,1.2-0.2c0.2-0.1,0.5-0.1,0.7-0.2c0.4-0.1,0.8-0.2,1.2-0.3c0.2-0.1,0.4-0.1,0.6-0.2c0.5-0.2,1.1-0.4,1.6-0.6
			c0,0,0,0,0.1,0c0.5-0.2,1-0.5,1.5-0.7c0.2-0.1,0.3-0.2,0.4-0.3c0.3-0.2,0.6-0.4,0.9-0.6c0.2-0.1,0.3-0.2,0.5-0.3
			c0.3-0.2,0.5-0.4,0.8-0.6c0.1-0.1,0.2-0.1,0.2-0.2C91.7,61.5,91.7,61.6,91.7,61.7z M91.7,55c0,0.1,0,0.3-0.1,0.4
			c0,0.1-0.1,0.3-0.1,0.4c0,0.1-0.1,0.3-0.1,0.4c-0.1,0.1-0.1,0.3-0.2,0.4c-0.1,0.1-0.1,0.3-0.2,0.4c-0.1,0.1-0.2,0.3-0.2,0.4
			c-0.1,0.1-0.2,0.2-0.2,0.4c-0.1,0.1-0.2,0.3-0.3,0.4c-0.1,0.1-0.2,0.2-0.3,0.3c-0.1,0.1-0.2,0.2-0.4,0.4c-0.1,0.1-0.2,0.2-0.3,0.3
			c-0.1,0.1-0.3,0.2-0.4,0.3c-0.1,0.1-0.3,0.2-0.4,0.3c-0.2,0.1-0.3,0.2-0.5,0.3c-0.1,0.1-0.3,0.2-0.4,0.3c-0.2,0.1-0.4,0.2-0.5,0.3
			c-0.2,0.1-0.3,0.2-0.5,0.2c-0.2,0.1-0.4,0.2-0.6,0.3c-0.2,0.1-0.3,0.1-0.5,0.2c-0.2,0.1-0.4,0.2-0.6,0.2c-0.2,0.1-0.3,0.1-0.5,0.2
			c-0.2,0.1-0.5,0.1-0.7,0.2c-0.2,0.1-0.4,0.1-0.5,0.2c-0.2,0.1-0.5,0.1-0.7,0.2c-0.2,0-0.4,0.1-0.6,0.1c-0.3,0-0.5,0.1-0.8,0.1
			c-0.2,0-0.3,0.1-0.5,0.1c-0.3,0-0.6,0.1-0.9,0.1c-0.2,0-0.3,0-0.5,0c-0.5,0-0.9,0-1.4,0c-0.8,0-1.7-0.1-2.5-0.2
			c-0.2,0-0.5-0.1-0.7-0.1c-0.3,0-0.6-0.1-0.9-0.2v-1.2c0-0.4,0-0.7-0.1-1.1c0-0.2-0.1-0.5-0.1-0.7c0-0.1,0-0.2-0.1-0.3
			c0,0,0.1,0,0.1,0c0.5,0.1,1,0.1,1.4,0.2c0.2,0,0.5,0.1,0.7,0.1c0.7,0.1,1.5,0.1,2.2,0.1c0.7,0,1.4,0,2-0.1c0.2,0,0.4,0,0.6-0.1
			c0.4,0,0.9-0.1,1.3-0.2c0.2,0,0.5-0.1,0.7-0.1c0.4-0.1,0.8-0.2,1.2-0.2c0.2-0.1,0.5-0.1,0.7-0.2c0.4-0.1,0.8-0.2,1.2-0.3
			c0.2-0.1,0.4-0.1,0.6-0.2c0.5-0.2,1.1-0.4,1.6-0.6c0,0,0,0,0.1,0c0.5-0.2,1-0.5,1.5-0.7c0.2-0.1,0.3-0.2,0.4-0.3
			c0.3-0.2,0.6-0.4,0.9-0.6c0.2-0.1,0.3-0.2,0.5-0.3c0.3-0.2,0.5-0.4,0.8-0.6c0.1-0.1,0.2-0.1,0.2-0.2C91.7,54.8,91.7,54.9,91.7,55z
			 M91.7,48.3c0,0.1,0,0.3-0.1,0.4c0,0.1-0.1,0.3-0.1,0.4c0,0.1-0.1,0.3-0.1,0.4c-0.1,0.1-0.1,0.3-0.2,0.4c-0.1,0.1-0.1,0.3-0.2,0.4
			c-0.1,0.1-0.2,0.3-0.2,0.4c-0.1,0.1-0.2,0.2-0.2,0.4c-0.1,0.1-0.2,0.3-0.3,0.4c-0.1,0.1-0.2,0.2-0.3,0.3c-0.1,0.1-0.2,0.2-0.4,0.4
			c-0.1,0.1-0.2,0.2-0.3,0.3c-0.1,0.1-0.3,0.2-0.4,0.3c-0.1,0.1-0.3,0.2-0.4,0.3c-0.2,0.1-0.3,0.2-0.5,0.3c-0.1,0.1-0.3,0.2-0.4,0.3
			c-0.2,0.1-0.4,0.2-0.5,0.3c-0.2,0.1-0.3,0.2-0.5,0.2c-0.2,0.1-0.4,0.2-0.6,0.3c-0.2,0.1-0.3,0.1-0.5,0.2c-0.2,0.1-0.4,0.2-0.6,0.2
			c-0.2,0.1-0.3,0.1-0.5,0.2c-0.2,0.1-0.5,0.1-0.7,0.2c-0.2,0.1-0.4,0.1-0.5,0.2c-0.2,0.1-0.5,0.1-0.7,0.2c-0.2,0-0.4,0.1-0.6,0.1
			c-0.3,0-0.5,0.1-0.8,0.1c-0.2,0-0.3,0.1-0.5,0.1C80,56,79.7,56,79.4,56c-0.2,0-0.3,0-0.5,0c-0.5,0-0.9,0-1.4,0
			c-0.6,0-1.2,0-1.8-0.1c-0.2,0-0.4,0-0.6-0.1c-0.4,0-0.8-0.1-1.2-0.1c-0.2,0-0.4-0.1-0.6-0.1c-0.4-0.1-0.7-0.1-1.1-0.2
			c-0.2-0.1-0.4-0.1-0.6-0.2c-0.2-0.1-0.5-0.1-0.7-0.2c-1.6-1.8-3.8-3.2-6.5-4.2c-0.7-0.9-1-1.9-1.1-2.9c0.1,0.1,0.2,0.1,0.2,0.2
			c0.2,0.2,0.5,0.4,0.8,0.6c0.2,0.1,0.3,0.2,0.5,0.3c0.3,0.2,0.6,0.4,0.9,0.6c0.1,0.1,0.3,0.2,0.4,0.3c0.5,0.3,1,0.5,1.5,0.7
			c0,0,0,0,0.1,0c0.5,0.2,1,0.4,1.6,0.6c0.2,0.1,0.4,0.1,0.6,0.2c0.4,0.1,0.8,0.2,1.2,0.3c0.2,0.1,0.4,0.1,0.7,0.2
			c0.4,0.1,0.8,0.2,1.2,0.2c0.2,0,0.5,0.1,0.7,0.1c0.4,0.1,0.9,0.1,1.3,0.2c0.2,0,0.4,0,0.6,0.1c0.7,0.1,1.3,0.1,2,0.1
			c0.7,0,1.4,0,2-0.1c0.2,0,0.4,0,0.6-0.1c0.4,0,0.9-0.1,1.3-0.2c0.2,0,0.5-0.1,0.7-0.1c0.4-0.1,0.8-0.2,1.2-0.2
			c0.2-0.1,0.5-0.1,0.7-0.2c0.4-0.1,0.8-0.2,1.2-0.3c0.2-0.1,0.4-0.1,0.6-0.2c0.5-0.2,1.1-0.4,1.6-0.6c0,0,0,0,0.1,0
			c0.5-0.2,1-0.5,1.5-0.7c0.2-0.1,0.3-0.2,0.4-0.3c0.3-0.2,0.6-0.4,0.9-0.6c0.2-0.1,0.3-0.2,0.5-0.3c0.3-0.2,0.5-0.4,0.8-0.6
			c0.1-0.1,0.2-0.1,0.2-0.2C91.7,48.1,91.7,48.2,91.7,48.3z M70,68.4c0,0.1,0,0.3-0.1,0.4c0,0.1-0.1,0.3-0.1,0.4
			c0,0.1-0.1,0.3-0.1,0.4c-0.1,0.1-0.1,0.3-0.2,0.4c-0.1,0.1-0.1,0.3-0.2,0.4c-0.1,0.1-0.2,0.3-0.2,0.4c-0.1,0.1-0.2,0.2-0.2,0.4
			c-0.1,0.1-0.2,0.3-0.3,0.4c-0.1,0.1-0.2,0.2-0.3,0.3c-0.1,0.1-0.2,0.2-0.4,0.4c-0.1,0.1-0.2,0.2-0.3,0.3c-0.1,0.1-0.3,0.2-0.4,0.3
			c-0.1,0.1-0.3,0.2-0.4,0.3c-0.2,0.1-0.3,0.2-0.5,0.3c-0.1,0.1-0.3,0.2-0.4,0.3c-0.2,0.1-0.4,0.2-0.5,0.3c-0.2,0.1-0.3,0.2-0.5,0.2
			c-0.2,0.1-0.4,0.2-0.6,0.3c-0.2,0.1-0.3,0.1-0.5,0.2c-0.2,0.1-0.4,0.2-0.6,0.2c-0.2,0.1-0.3,0.1-0.5,0.2c-0.2,0.1-0.5,0.1-0.7,0.2
			c-0.2,0.1-0.4,0.1-0.5,0.2c-0.2,0.1-0.5,0.1-0.7,0.2c-0.2,0-0.4,0.1-0.6,0.1c-0.3,0-0.5,0.1-0.8,0.1c-0.2,0-0.3,0.1-0.5,0.1
			c-0.3,0-0.6,0.1-0.9,0.1c-0.2,0-0.3,0-0.5,0c-0.5,0-0.9,0-1.4,0c-0.5,0-0.9,0-1.4,0c-0.2,0-0.3,0-0.5,0c-0.3,0-0.6,0-0.9-0.1
			c-0.2,0-0.4-0.1-0.5-0.1c-0.3,0-0.5-0.1-0.8-0.1c-0.2,0-0.4-0.1-0.6-0.1c-0.2-0.1-0.5-0.1-0.7-0.2c-0.2,0-0.4-0.1-0.5-0.2
			c-0.2-0.1-0.5-0.1-0.7-0.2c-0.2-0.1-0.3-0.1-0.5-0.2c-0.2-0.1-0.4-0.1-0.6-0.2c-0.2-0.1-0.3-0.1-0.5-0.2c-0.2-0.1-0.4-0.2-0.6-0.3
			c-0.2-0.1-0.3-0.2-0.5-0.2c-0.2-0.1-0.4-0.2-0.5-0.3c-0.2-0.1-0.3-0.2-0.4-0.3c-0.2-0.1-0.3-0.2-0.5-0.3c-0.1-0.1-0.3-0.2-0.4-0.3
			c-0.1-0.1-0.3-0.2-0.4-0.3c-0.1-0.1-0.2-0.2-0.3-0.3c-0.1-0.1-0.3-0.2-0.4-0.4c-0.1-0.1-0.2-0.2-0.3-0.3c-0.1-0.1-0.2-0.2-0.3-0.4
			c-0.1-0.1-0.2-0.2-0.2-0.4c-0.1-0.1-0.2-0.3-0.3-0.4c-0.1-0.1-0.1-0.2-0.2-0.4c-0.1-0.1-0.1-0.3-0.2-0.4c0-0.1-0.1-0.3-0.1-0.4
			c0-0.1-0.1-0.3-0.1-0.4c0-0.1,0-0.3-0.1-0.4c0-0.1,0-0.2,0-0.3c0.1,0.1,0.2,0.1,0.2,0.2c0.3,0.2,0.5,0.4,0.8,0.6
			c0.2,0.1,0.3,0.2,0.5,0.3c0.3,0.2,0.6,0.4,0.9,0.6c0.1,0.1,0.3,0.2,0.4,0.3c0.5,0.3,1,0.5,1.5,0.7c0,0,0,0,0.1,0
			c0.5,0.2,1,0.4,1.6,0.6c0.2,0.1,0.4,0.1,0.6,0.2c0.4,0.1,0.8,0.2,1.2,0.3c0.2,0.1,0.4,0.1,0.7,0.2c0.4,0.1,0.8,0.2,1.2,0.2
			c0.2,0,0.5,0.1,0.7,0.1c0.4,0.1,0.9,0.1,1.3,0.2c0.2,0,0.4,0,0.6,0.1c0.7,0.1,1.3,0.1,2,0.1s1.4,0,2-0.1c0.2,0,0.4,0,0.6-0.1
			c0.4,0,0.9-0.1,1.3-0.2c0.2,0,0.5-0.1,0.7-0.1c0.4-0.1,0.8-0.2,1.2-0.2c0.2-0.1,0.5-0.1,0.7-0.2c0.4-0.1,0.8-0.2,1.2-0.3
			c0.2-0.1,0.4-0.1,0.6-0.2c0.5-0.2,1.1-0.4,1.6-0.6c0,0,0,0,0.1,0c0.5-0.2,1-0.5,1.5-0.7c0.2-0.1,0.3-0.2,0.4-0.3
			c0.3-0.2,0.6-0.4,0.9-0.6c0.2-0.1,0.3-0.2,0.5-0.3c0.3-0.2,0.5-0.4,0.8-0.6c0.1-0.1,0.2-0.1,0.2-0.2C70,68.2,70,68.3,70,68.4z
			 M70,74.8c0,0.1,0,0.2,0,0.3c0,0.1,0,0.3-0.1,0.4c0,0.1-0.1,0.3-0.1,0.4c0,0.1-0.1,0.3-0.1,0.4c-0.1,0.1-0.1,0.3-0.2,0.4
			c-0.1,0.1-0.1,0.3-0.2,0.4c-0.1,0.1-0.2,0.3-0.2,0.4c-0.1,0.1-0.2,0.2-0.2,0.4c-0.1,0.1-0.2,0.3-0.3,0.4c-0.1,0.1-0.2,0.2-0.3,0.3
			c-0.1,0.1-0.2,0.2-0.4,0.4c-0.1,0.1-0.2,0.2-0.3,0.3c-0.1,0.1-0.3,0.2-0.4,0.3c-0.1,0.1-0.3,0.2-0.4,0.3c-0.2,0.1-0.3,0.2-0.5,0.3
			c-0.1,0.1-0.3,0.2-0.4,0.3c-0.2,0.1-0.4,0.2-0.5,0.3c-0.2,0.1-0.3,0.2-0.5,0.2c-0.2,0.1-0.4,0.2-0.6,0.3c-0.2,0.1-0.3,0.1-0.5,0.2
			c-0.2,0.1-0.4,0.2-0.6,0.2c-0.2,0.1-0.3,0.1-0.5,0.2c-0.2,0.1-0.5,0.1-0.7,0.2c-0.2,0.1-0.4,0.1-0.5,0.2c-0.2,0.1-0.5,0.1-0.7,0.2
			c-0.2,0-0.4,0.1-0.6,0.1c-0.3,0-0.5,0.1-0.8,0.1c-0.2,0-0.3,0.1-0.5,0.1c-0.3,0-0.6,0.1-0.9,0.1c-0.2,0-0.3,0-0.5,0
			c-0.5,0-0.9,0-1.4,0c-0.5,0-0.9,0-1.4,0c-0.2,0-0.3,0-0.5,0c-0.3,0-0.6,0-0.9-0.1c-0.2,0-0.4-0.1-0.5-0.1c-0.3,0-0.5-0.1-0.8-0.1
			c-0.2,0-0.4-0.1-0.6-0.1c-0.2-0.1-0.5-0.1-0.7-0.2c-0.2,0-0.4-0.1-0.5-0.2c-0.2-0.1-0.5-0.1-0.7-0.2c-0.2-0.1-0.3-0.1-0.5-0.2
			c-0.2-0.1-0.4-0.1-0.6-0.2c-0.2-0.1-0.3-0.1-0.5-0.2c-0.2-0.1-0.4-0.2-0.6-0.3c-0.2-0.1-0.3-0.2-0.5-0.2c-0.2-0.1-0.4-0.2-0.5-0.3
			c-0.2-0.1-0.3-0.2-0.4-0.3c-0.2-0.1-0.3-0.2-0.5-0.3c-0.1-0.1-0.3-0.2-0.4-0.3c-0.1-0.1-0.3-0.2-0.4-0.3c-0.1-0.1-0.2-0.2-0.3-0.3
			c-0.1-0.1-0.3-0.2-0.4-0.4c-0.1-0.1-0.2-0.2-0.3-0.3c-0.1-0.1-0.2-0.2-0.3-0.4c-0.1-0.1-0.2-0.2-0.2-0.4c-0.1-0.1-0.2-0.3-0.3-0.4
			c-0.1-0.1-0.1-0.2-0.2-0.4c-0.1-0.1-0.1-0.3-0.2-0.4c0-0.1-0.1-0.3-0.1-0.4c0-0.1-0.1-0.3-0.1-0.4c0-0.1,0-0.3-0.1-0.4
			c0-0.1,0-0.2,0-0.3c0.1,0.1,0.2,0.1,0.2,0.2c0.2,0.2,0.5,0.4,0.8,0.6c0.2,0.1,0.3,0.2,0.5,0.3c0.3,0.2,0.6,0.4,0.9,0.6
			c0.1,0.1,0.3,0.2,0.4,0.3c0.5,0.3,1,0.5,1.5,0.7c0,0,0,0,0.1,0c0.5,0.2,1,0.4,1.6,0.6c0.2,0.1,0.4,0.1,0.6,0.2
			c0.4,0.1,0.8,0.2,1.2,0.3c0.2,0.1,0.4,0.1,0.7,0.2c0.4,0.1,0.8,0.2,1.2,0.2c0.2,0,0.5,0.1,0.7,0.1c0.4,0.1,0.9,0.1,1.3,0.2
			c0.2,0,0.4,0,0.6,0.1c0.7,0.1,1.3,0.1,2,0.1s1.4,0,2-0.1c0.2,0,0.4,0,0.6-0.1c0.4,0,0.9-0.1,1.3-0.2c0.2,0,0.5-0.1,0.7-0.1
			c0.4-0.1,0.8-0.2,1.2-0.2c0.2-0.1,0.5-0.1,0.7-0.2c0.4-0.1,0.8-0.2,1.2-0.3c0.2-0.1,0.4-0.1,0.6-0.2c0.5-0.2,1.1-0.4,1.6-0.6
			c0,0,0,0,0.1,0c0.5-0.2,1-0.5,1.5-0.7c0.2-0.1,0.3-0.2,0.4-0.3c0.3-0.2,0.6-0.4,0.9-0.6c0.2-0.1,0.3-0.2,0.5-0.3
			c0.3-0.2,0.5-0.4,0.8-0.6C69.8,74.9,69.9,74.8,70,74.8z M41.9,81.6c0.2,0.2,0.5,0.4,0.8,0.6c0.2,0.1,0.3,0.2,0.5,0.3
			c0.3,0.2,0.6,0.4,0.9,0.6c0.1,0.1,0.3,0.2,0.4,0.3c0.5,0.3,1,0.5,1.5,0.7c0,0,0,0,0.1,0c0.5,0.2,1,0.4,1.6,0.6
			c0.2,0.1,0.4,0.1,0.6,0.2c0.4,0.1,0.8,0.2,1.2,0.3c0.2,0.1,0.4,0.1,0.7,0.2c0.4,0.1,0.8,0.2,1.2,0.2c0.2,0,0.5,0.1,0.7,0.1
			c0.4,0.1,0.9,0.1,1.3,0.2c0.2,0,0.4,0,0.6,0.1c0.7,0.1,1.3,0.1,2,0.1s1.4,0,2-0.1c0.2,0,0.4,0,0.6-0.1c0.4,0,0.9-0.1,1.3-0.2
			c0.2,0,0.5-0.1,0.7-0.1c0.4-0.1,0.8-0.2,1.2-0.2c0.2-0.1,0.5-0.1,0.7-0.2c0.4-0.1,0.8-0.2,1.2-0.3c0.2-0.1,0.4-0.1,0.6-0.2
			c0.5-0.2,1.1-0.4,1.6-0.6c0,0,0,0,0.1,0c0.5-0.2,1-0.5,1.5-0.7c0.2-0.1,0.3-0.2,0.4-0.3c0.3-0.2,0.6-0.4,0.9-0.6
			c0.2-0.1,0.3-0.2,0.5-0.3c0.3-0.2,0.5-0.4,0.8-0.6c0.1-0.1,0.2-0.1,0.2-0.2c0,0.1,0,0.2,0,0.3c0,0.1,0,0.3-0.1,0.4
			c0,0.1-0.1,0.3-0.1,0.4c0,0.1-0.1,0.3-0.1,0.4c-0.1,0.1-0.1,0.3-0.2,0.4c-0.1,0.1-0.1,0.3-0.2,0.4c-0.1,0.1-0.2,0.3-0.2,0.4
			c-0.1,0.1-0.2,0.2-0.2,0.4c-0.1,0.1-0.2,0.3-0.3,0.4c-0.1,0.1-0.2,0.2-0.3,0.3c-0.1,0.1-0.2,0.2-0.4,0.4c-0.1,0.1-0.2,0.2-0.3,0.3
			c-0.1,0.1-0.3,0.2-0.4,0.3c-0.1,0.1-0.3,0.2-0.4,0.3c-0.2,0.1-0.3,0.2-0.5,0.3c-0.1,0.1-0.3,0.2-0.4,0.3c-0.2,0.1-0.4,0.2-0.5,0.3
			c-0.2,0.1-0.3,0.2-0.5,0.2c-0.2,0.1-0.4,0.2-0.6,0.3c-0.2,0.1-0.3,0.1-0.5,0.2c-0.2,0.1-0.4,0.2-0.6,0.2c-0.2,0.1-0.3,0.1-0.5,0.2
			c-0.2,0.1-0.5,0.1-0.7,0.2c-0.2,0.1-0.4,0.1-0.5,0.2c-0.2,0.1-0.5,0.1-0.7,0.2c-0.2,0-0.4,0.1-0.6,0.1c-0.3,0-0.5,0.1-0.8,0.1
			c-0.2,0-0.3,0.1-0.5,0.1c-0.3,0-0.6,0.1-0.9,0.1c-0.2,0-0.3,0-0.5,0c-0.5,0-0.9,0-1.4,0c-0.5,0-0.9,0-1.4,0c-0.2,0-0.3,0-0.5,0
			c-0.3,0-0.6,0-0.9-0.1c-0.2,0-0.4-0.1-0.5-0.1c-0.3,0-0.5-0.1-0.8-0.1c-0.2,0-0.4-0.1-0.6-0.1c-0.2-0.1-0.5-0.1-0.7-0.2
			c-0.2,0-0.4-0.1-0.5-0.2c-0.2-0.1-0.5-0.1-0.7-0.2c-0.2-0.1-0.3-0.1-0.5-0.2c-0.2-0.1-0.4-0.1-0.6-0.2c-0.2-0.1-0.3-0.1-0.5-0.2
			c-0.2-0.1-0.4-0.2-0.6-0.3c-0.2-0.1-0.3-0.2-0.5-0.2c-0.2-0.1-0.4-0.2-0.5-0.3c-0.2-0.1-0.3-0.2-0.4-0.3c-0.2-0.1-0.3-0.2-0.5-0.3
			c-0.1-0.1-0.3-0.2-0.4-0.3c-0.1-0.1-0.3-0.2-0.4-0.3c-0.1-0.1-0.2-0.2-0.3-0.3c-0.1-0.1-0.3-0.2-0.4-0.4c-0.1-0.1-0.2-0.2-0.3-0.3
			c-0.1-0.1-0.2-0.2-0.3-0.4c-0.1-0.1-0.2-0.2-0.2-0.4c-0.1-0.1-0.2-0.3-0.3-0.4c-0.1-0.1-0.1-0.2-0.2-0.4c-0.1-0.1-0.1-0.3-0.2-0.4
			c0-0.1-0.1-0.3-0.1-0.4c0-0.1-0.1-0.3-0.1-0.4c0-0.1,0-0.3-0.1-0.4c0-0.1,0-0.2,0-0.3C41.7,81.5,41.8,81.6,41.9,81.6z M69.6,89.7
			L69.6,89.7c-0.5,1.1-1.3,2.2-2.5,3.1c0,0-0.1,0.1-0.1,0.1c-0.4,0.3-0.7,0.5-1.1,0.8c-0.1,0-0.2,0.1-0.2,0.2l0,0
			c-2.6,1.5-6.1,2.4-9.8,2.4c-3.2,0-6.2-0.7-8.6-1.8c-0.2-0.1-0.3-0.2-0.5-0.2c-0.2-0.1-0.5-0.2-0.7-0.4c-0.1-0.1-0.3-0.2-0.4-0.3
			c-0.4-0.2-0.8-0.5-1.1-0.7c-0.1-0.1-0.2-0.2-0.3-0.3c-0.2-0.1-0.3-0.3-0.4-0.4c-0.1-0.1-0.3-0.3-0.4-0.4c-0.1-0.1-0.2-0.3-0.3-0.4
			c-0.1-0.2-0.2-0.3-0.4-0.5c-0.1-0.1-0.2-0.2-0.2-0.3c-0.1-0.2-0.2-0.4-0.3-0.6c0-0.1-0.1-0.2-0.1-0.2c-0.1-0.3-0.2-0.6-0.3-0.9
			c0-0.1,0-0.2,0-0.2c0-0.2,0-0.3-0.1-0.5c0.1,0.1,0.2,0.1,0.2,0.2c0.2,0.2,0.5,0.4,0.8,0.6c0.2,0.1,0.3,0.2,0.5,0.3
			c0.3,0.2,0.6,0.4,0.9,0.6c0.1,0.1,0.3,0.2,0.4,0.3c0.5,0.3,1,0.5,1.5,0.7c0,0,0,0,0.1,0c0.5,0.2,1,0.4,1.6,0.6
			c0.2,0.1,0.4,0.1,0.6,0.2c0.4,0.1,0.8,0.2,1.2,0.3c0.2,0.1,0.4,0.1,0.7,0.2c0.4,0.1,0.8,0.2,1.2,0.2c0.2,0,0.5,0.1,0.7,0.1
			c0.4,0.1,0.9,0.1,1.3,0.2c0.2,0,0.4,0,0.6,0.1c0.7,0.1,1.3,0.1,2,0.1s1.4,0,2-0.1c0.2,0,0.4,0,0.6-0.1c0.4,0,0.9-0.1,1.3-0.2
			c0.2,0,0.5-0.1,0.7-0.1c0.4-0.1,0.8-0.2,1.2-0.2c0.2-0.1,0.5-0.1,0.7-0.2c0.4-0.1,0.8-0.2,1.2-0.3c0.2-0.1,0.4-0.1,0.6-0.2
			c0.5-0.2,1.1-0.4,1.6-0.6c0,0,0,0,0.1,0c0.5-0.2,1-0.5,1.5-0.7c0.2-0.1,0.3-0.2,0.4-0.3c0.3-0.2,0.6-0.4,0.9-0.6
			c0.2-0.1,0.3-0.2,0.5-0.3c0.3-0.2,0.5-0.4,0.8-0.6c0.1-0.1,0.2-0.1,0.2-0.2c0,0.2,0,0.3-0.1,0.5c0,0,0,0.1,0,0.1
			C69.8,89.1,69.7,89.4,69.6,89.7z M77.5,96.2c-2.7,0-5.3-0.5-7.6-1.3c0.9-0.8,1.6-1.6,2.2-2.6c0,0,0.1,0,0.1,0
			c0.8,0.2,1.6,0.3,2.4,0.4c0.2,0,0.4,0,0.5,0.1c0.8,0.1,1.6,0.1,2.5,0.1c0.7,0,1.4,0,2-0.1c0.2,0,0.4,0,0.6-0.1
			c0.4,0,0.9-0.1,1.3-0.2c0.2,0,0.5-0.1,0.7-0.1c0.4-0.1,0.8-0.2,1.2-0.2c0.2-0.1,0.5-0.1,0.7-0.2c0.4-0.1,0.8-0.2,1.2-0.3
			c0.2-0.1,0.4-0.1,0.6-0.2c0.5-0.2,1.1-0.4,1.6-0.6c0,0,0,0,0.1,0c0.5-0.2,1-0.5,1.5-0.7c0.2-0.1,0.3-0.2,0.4-0.3
			c0.3-0.2,0.6-0.4,0.9-0.6c0.2-0.1,0.3-0.2,0.5-0.3c0.3-0.2,0.5-0.4,0.8-0.6c0.1-0.1,0.2-0.1,0.2-0.2
			C91.5,92.5,85.1,96.2,77.5,96.2z M77.5,49.4c-7.7,0-14.2-3.8-14.2-8.3c0-0.3,0-0.6,0.1-0.8c0-0.1,0-0.2,0.1-0.2
			c0-0.2,0.1-0.4,0.2-0.6c0-0.1,0.1-0.2,0.1-0.3c0.1-0.2,0.1-0.4,0.2-0.5c0.1-0.1,0.1-0.2,0.2-0.3c0.1-0.2,0.2-0.3,0.3-0.5
			c0.1-0.1,0.2-0.2,0.3-0.4c0.1-0.1,0.2-0.2,0.3-0.4c0.2-0.2,0.3-0.3,0.5-0.5c0.1-0.1,0.1-0.1,0.2-0.2c0.5-0.5,1.1-0.9,1.8-1.3
			c0.6-0.4,1.4-0.7,2.1-1c0,0,0.1,0,0.1-0.1c0.7-0.3,1.5-0.5,2.3-0.7c0,0,0.1,0,0.1,0c0.7-0.2,1.4-0.3,2.1-0.4c0,0,0.1,0,0.1,0
			c0.8-0.1,1.6-0.2,2.4-0.2l0.8,0c7.7,0,14.2,3.8,14.2,8.3C91.7,45.6,85.2,49.4,77.5,49.4z"/>
	</g>
</g>
</svg>
