<?xml version="1.0" encoding="utf-8"?>
<!-- Generator: Adobe Illustrator 21.0.0, SVG Export Plug-In . SVG Version: 6.00 Build 0)  -->
<svg version="1.1" id="Слой_1" xmlns="http://www.w3.org/2000/svg" xmlns:xlink="http://www.w3.org/1999/xlink" x="0px" y="0px"
	 viewBox="0 0 100 100" style="enable-background:new 0 0 100 100;" xml:space="preserve">
<g>
	<g>
		<path d="M88.5,13.6c0.5-0.7,0.7-1.5,0.7-2.4c0-1.3-0.5-2.4-1.4-3.1c-0.9-0.8-2.2-1.2-3.8-1.2H79v12.7h2.2v-4.1h3.5l2.6,4.1h2.2
			l-2.9-4.5C87.4,14.8,88,14.3,88.5,13.6z M83.9,13.7h-2.8v-5h2.8c1,0,1.8,0.2,2.4,0.7c0.6,0.4,0.8,1.1,0.8,1.9
			c0,0.8-0.3,1.4-0.8,1.9C85.7,13.5,84.9,13.7,83.9,13.7z M93.2,7.5c-1-1.7-2.3-3-4-4c-1.7-1-3.6-1.5-5.7-1.5s-4,0.5-5.7,1.5
			c-1.7,1-3.1,2.4-4,4.1s-1.5,3.6-1.5,5.7c0,2.1,0.5,3.9,1.5,5.7s2.3,3.1,4,4.1c1.7,1,3.6,1.5,5.7,1.5c2.1,0,4-0.5,5.7-1.5
			c1.7-1,3.1-2.4,4.1-4.1c1-1.7,1.5-3.6,1.5-5.7C94.7,11.1,94.2,9.2,93.2,7.5z M91.9,18.1c-0.9,1.5-2,2.7-3.5,3.6
			c-1.5,0.9-3.1,1.3-5,1.3c-1.8,0-3.4-0.4-4.9-1.3c-1.5-0.9-2.6-2-3.5-3.5c-0.8-1.5-1.3-3.1-1.3-4.9c0-1.8,0.4-3.4,1.3-4.9
			c0.8-1.5,2-2.7,3.5-3.5c1.5-0.9,3.1-1.3,5-1.3c1.8,0,3.5,0.4,5,1.3c1.5,0.8,2.6,2,3.5,3.5c0.8,1.5,1.3,3.1,1.3,5
			C93.2,15,92.8,16.6,91.9,18.1z M64,24.7c-6-5-14.2-7.5-24.7-7.5H7.8V98h11.5V73.5h20C49.8,73.5,58,71,64,66c6-5,9-11.9,9-20.7
			C73,36.6,70,29.7,64,24.7z M55.7,58.8c-3.9,3.1-9.4,4.7-16.7,4.7H19.3V27.2H39c7.3,0,12.9,1.6,16.7,4.7c3.8,3.1,5.8,7.6,5.8,13.5
			C61.5,51.2,59.6,55.7,55.7,58.8z"/>
	</g>
</g>
</svg>
