<?xml version="1.0" encoding="utf-8"?>
<!-- Generator: Adobe Illustrator 21.0.0, SVG Export Plug-In . SVG Version: 6.00 Build 0)  -->
<svg version="1.1" id="Слой_1" xmlns="http://www.w3.org/2000/svg" xmlns:xlink="http://www.w3.org/1999/xlink" x="0px" y="0px"
	 viewBox="0 0 100 100" style="enable-background:new 0 0 100 100;" xml:space="preserve">
<style type="text/css">
	.st0{fill:#E0186C;}
	.st1{fill:#0349C6;}
</style>
<path class="st0" d="M92.2,48.7l-4.1-5.4L86,44.9l2.4,3.2H77.6C77.3,42.3,75,36.7,71,32.3l7.6-7.6L79,28l2.7-0.3L81,21.6
	c-0.1-0.6-0.6-1.1-1.2-1.2l-6.1-0.7l-0.3,2.7l3.3,0.4l-7.6,7.6c-4.4-3.9-9.9-6.2-15.8-6.5V13l3.2,2.4l1.6-2.2l-5.4-4.1
	c-0.5-0.4-1.1-0.4-1.6,0l-5.4,4.1l1.6,2.2l3.2-2.4v10.9c-5.9,0.3-11.4,2.6-15.8,6.5l-7.6-7.6l3.3-0.4l-0.3-2.7l-6.1,0.7
	c-0.6,0.1-1.1,0.6-1.2,1.2l-0.7,6.1L25,28l0.4-3.3l7.6,7.6c-3.9,4.4-6.2,9.9-6.5,15.8H15.5l2.4-3.2l-2.2-1.6l-4.1,5.4
	c-0.4,0.5-0.4,1.1,0,1.6l4.1,5.4l2.2-1.6l-2.4-3.2h10.9c0.3,5.9,2.6,11.4,6.5,15.8l-7.7,7.7l-0.6-4L22,70.7l1,6.7
	c0.1,0.6,0.6,1.1,1.1,1.1l6.7,1l0.4-2.7l-4-0.6l7.7-7.7c4.4,3.9,9.9,6.2,15.8,6.5v10.9l-3.2-2.4l-1.6,2.2l5.4,4.1
	c0.5,0.4,1.1,0.4,1.6,0l5.4-4.1l-1.6-2.2l-3.2,2.4V75.1c5.9-0.3,11.4-2.6,15.8-6.5l7.6,7.6l-3.3,0.4l0.3,2.7l6.1-0.7
	c0.6-0.1,1.1-0.6,1.2-1.2l0.7-6.1L79,70.9l-0.4,3.3L71,66.6c3.9-4.4,6.2-9.9,6.5-15.8h10.9L86,54.1l2.2,1.6l4.1-5.4
	C92.6,49.8,92.6,49.2,92.2,48.7z M52,72.4c-12.7,0-22.9-10.3-23-23c0-12.7,10.3-23,23-23c12.7,0,23,10.3,23,23
	C74.9,62.2,64.7,72.4,52,72.4z"/>
<g>
	<g>
		<path class="st1" d="M64.1,49.5c0,1.6-0.3,3.2-0.9,4.6l2.5,1c0.7-1.8,1.1-3.7,1.1-5.7v-0.1L64.1,49.5z M56.6,60.7l1,2.5
			c1.8-0.7,3.4-1.8,4.8-3.2l-1.9-1.9C59.5,59.2,58.1,60.1,56.6,60.7z M40.7,44.9l-2.5-1c-0.7,1.8-1.1,3.7-1.1,5.7v0l2.7,0
			C39.8,47.9,40.1,46.3,40.7,44.9z M62.4,38.9l-1.9,1.9c1.1,1.1,2,2.5,2.7,3.9l2.5-1C64.9,41.9,63.8,40.3,62.4,38.9z M38.3,55.2
			c0.7,1.8,1.8,3.4,3.2,4.8l1.9-1.9c-1.1-1.1-2-2.5-2.6-3.9L38.3,55.2z M47.3,38.3l-1-2.5c-1.8,0.8-3.4,1.9-4.8,3.2l1.9,1.9
			C44.5,39.8,45.8,38.9,47.3,38.3z M56.6,38.2l1-2.5c-1.8-0.7-3.7-1.1-5.6-1.1h0l0,2.7C53.6,37.3,55.1,37.6,56.6,38.2z M47.3,60.7
			l-1,2.5c1.8,0.7,3.7,1.1,5.7,1.1h0l0-2.7C50.4,61.6,48.8,61.3,47.3,60.7z M52,44.1c-3,0-5.4,2.4-5.4,5.4c0,3,2.4,5.4,5.4,5.4
			c3,0,5.4-2.4,5.4-5.4C57.4,46.5,55,44.1,52,44.1z M52,52.2c-1.5,0-2.7-1.2-2.7-2.7c0-1.5,1.2-2.7,2.7-2.7c1.5,0,2.7,1.2,2.7,2.7
			C54.7,51,53.5,52.2,52,52.2z"/>
	</g>
</g>
</svg>
