<?xml version="1.0" encoding="utf-8"?>
<!-- Generator: Adobe Illustrator 21.0.0, SVG Export Plug-In . SVG Version: 6.00 Build 0)  -->
<svg version="1.1" id="Слой_1" xmlns="http://www.w3.org/2000/svg" xmlns:xlink="http://www.w3.org/1999/xlink" x="0px" y="0px"
	 viewBox="0 0 100 100" style="enable-background:new 0 0 100 100;" xml:space="preserve">
<g>
	<g>
		<path d="M95.3,7.1H83.7V2.2c0-0.9-0.7-1.7-1.7-1.7H70.4c-0.9,0-1.7,0.7-1.7,1.7v4.9H32.2V2.2c0-0.9-0.7-1.7-1.7-1.7H18.9
			c-0.9,0-1.7,0.7-1.7,1.7v4.9H5.7C4.7,7.1,4,7.8,4,8.8v89.1c0,0.9,0.7,1.7,1.7,1.7h89.7c0.9,0,1.7-0.7,1.7-1.7V8.8
			C97,7.8,96.3,7.1,95.3,7.1z M72.1,3.8h8.3v9.9h-8.3V3.8z M20.6,3.8h8.3v9.9h-8.3V3.8z M93.7,96.2H7.3V28.5h86.4V96.2z M93.7,25.2
			H7.3V10.4h10v4.9c0,0.9,0.7,1.7,1.7,1.7h11.6c0.9,0,1.7-0.7,1.7-1.7v-4.9h36.5v4.9c0,0.9,0.7,1.7,1.7,1.7h11.6
			c0.9,0,1.7-0.7,1.7-1.7v-4.9h10V25.2z M82.1,38.5H18.9v47.9h63.1V38.5z M33.9,83H22.3V71.5h11.6V83z M33.9,68.2H22.3V56.6h11.6
			V68.2z M33.9,53.3H22.3V41.8h11.6V53.3z M48.8,83H37.2V71.5h11.6V83z M48.8,68.2H37.2V56.6h11.6V68.2z M48.8,53.3H37.2V41.8h11.6
			V53.3z M63.8,83H52.2V71.5h11.6V83z M63.8,68.2H52.2V56.6h11.6V68.2z M63.8,53.3H52.2V41.8h11.6V53.3z M78.7,83H67.1V71.5h11.6V83
			z M78.7,68.2H67.1V56.6h11.6V68.2z M78.7,53.3H67.1V41.8h11.6V53.3z"/>
	</g>
</g>
</svg>
