<?xml version="1.0" encoding="utf-8"?>
<!-- Generator: Adobe Illustrator 21.0.0, SVG Export Plug-In . SVG Version: 6.00 Build 0)  -->
<svg version="1.1" id="Слой_1" xmlns="http://www.w3.org/2000/svg" xmlns:xlink="http://www.w3.org/1999/xlink" x="0px" y="0px"
	 viewBox="0 0 100 100" style="enable-background:new 0 0 100 100;" xml:space="preserve">
<g>
	<g>
		<path d="M69.6,40.6V20.9c0-11.1-9.7-20.1-21.7-20.1c-12,0-21.7,9-21.7,20.1v19.7H10.5v58.9H87V40.6H69.6z M29.6,20.9
			c0-9.2,8.2-16.6,18.3-16.6c10.1,0,18.3,7.5,18.3,16.6v19.7H29.6V20.9z M14,78.7h13.2L14,91.9V78.7z M14,96c0.4,0,0.9-0.2,1.2-0.5
			l16.9-16.8H48L30.6,96H14z M35.6,96l17.4-17.3h15.9L51.5,96H35.6z M83.5,96h-6.2l6.2-6.2V96z M83.5,84.9L72.4,96H56.4l17.4-17.3
			h9.7V84.9z M83.5,75.3H14V44.1h69.5V75.3z M80,56.2c1,0,1.7-0.8,1.7-1.7c0-1-0.8-1.7-1.7-1.7c-1,0-1.7,0.8-1.7,1.7
			C78.3,55.4,79.1,56.2,80,56.2z M80,66.6c1,0,1.7-0.8,1.7-1.7c0-1-0.8-1.7-1.7-1.7c-1,0-1.7,0.8-1.7,1.7
			C78.3,65.8,79.1,66.6,80,66.6z M48.8,56.2c1,0,1.7-0.8,1.7-1.7c0-1-0.8-1.7-1.7-1.7S47,53.5,47,54.5C47,55.4,47.8,56.2,48.8,56.2z
			 M54,51c1,0,1.7-0.8,1.7-1.7s-0.8-1.7-1.7-1.7s-1.7,0.8-1.7,1.7S53,51,54,51z M54,61.4c1,0,1.7-0.8,1.7-1.7c0-1-0.8-1.7-1.7-1.7
			s-1.7,0.8-1.7,1.7C52.2,60.6,53,61.4,54,61.4z M59.2,56.2c1,0,1.7-0.8,1.7-1.7c0-1-0.8-1.7-1.7-1.7c-1,0-1.7,0.8-1.7,1.7
			C57.4,55.4,58.2,56.2,59.2,56.2z M69.6,56.2c1,0,1.7-0.8,1.7-1.7c0-1-0.8-1.7-1.7-1.7s-1.7,0.8-1.7,1.7
			C67.9,55.4,68.7,56.2,69.6,56.2z M64.4,51c1,0,1.7-0.8,1.7-1.7s-0.8-1.7-1.7-1.7c-1,0-1.7,0.8-1.7,1.7S63.4,51,64.4,51z M74.8,51
			c1,0,1.7-0.8,1.7-1.7s-0.8-1.7-1.7-1.7s-1.7,0.8-1.7,1.7S73.9,51,74.8,51z M64.4,61.4c1,0,1.7-0.8,1.7-1.7c0-1-0.8-1.7-1.7-1.7
			c-1,0-1.7,0.8-1.7,1.7C62.7,60.6,63.4,61.4,64.4,61.4z M74.8,61.4c1,0,1.7-0.8,1.7-1.7c0-1-0.8-1.7-1.7-1.7s-1.7,0.8-1.7,1.7
			C73.1,60.6,73.9,61.4,74.8,61.4z M48.8,66.6c1,0,1.7-0.8,1.7-1.7c0-1-0.8-1.7-1.7-1.7S47,63.9,47,64.9
			C47,65.8,47.8,66.6,48.8,66.6z M54,71.8c1,0,1.7-0.8,1.7-1.7c0-1-0.8-1.7-1.7-1.7s-1.7,0.8-1.7,1.7C52.2,71,53,71.8,54,71.8z
			 M59.2,66.6c1,0,1.7-0.8,1.7-1.7c0-1-0.8-1.7-1.7-1.7c-1,0-1.7,0.8-1.7,1.7C57.4,65.8,58.2,66.6,59.2,66.6z M69.6,66.6
			c1,0,1.7-0.8,1.7-1.7c0-1-0.8-1.7-1.7-1.7s-1.7,0.8-1.7,1.7C67.9,65.8,68.7,66.6,69.6,66.6z M64.4,71.8c1,0,1.7-0.8,1.7-1.7
			c0-1-0.8-1.7-1.7-1.7c-1,0-1.7,0.8-1.7,1.7C62.7,71,63.4,71.8,64.4,71.8z M74.8,71.8c1,0,1.7-0.8,1.7-1.7c0-1-0.8-1.7-1.7-1.7
			s-1.7,0.8-1.7,1.7C73.1,71,73.9,71.8,74.8,71.8z M38.3,56.2c1,0,1.7-0.8,1.7-1.7c0-1-0.8-1.7-1.7-1.7c-1,0-1.7,0.8-1.7,1.7
			C36.6,55.4,37.4,56.2,38.3,56.2z M43.5,51c1,0,1.7-0.8,1.7-1.7s-0.8-1.7-1.7-1.7s-1.7,0.8-1.7,1.7S42.6,51,43.5,51z M43.5,61.4
			c1,0,1.7-0.8,1.7-1.7c0-1-0.8-1.7-1.7-1.7s-1.7,0.8-1.7,1.7C41.8,60.6,42.6,61.4,43.5,61.4z M38.3,66.6c1,0,1.7-0.8,1.7-1.7
			c0-1-0.8-1.7-1.7-1.7c-1,0-1.7,0.8-1.7,1.7C36.6,65.8,37.4,66.6,38.3,66.6z M43.5,71.8c1,0,1.7-0.8,1.7-1.7c0-1-0.8-1.7-1.7-1.7
			s-1.7,0.8-1.7,1.7C41.8,71,42.6,71.8,43.5,71.8z M17.5,56.2c1,0,1.7-0.8,1.7-1.7c0-1-0.8-1.7-1.7-1.7c-1,0-1.7,0.8-1.7,1.7
			C15.7,55.4,16.5,56.2,17.5,56.2z M27.9,56.2c1,0,1.7-0.8,1.7-1.7c0-1-0.8-1.7-1.7-1.7s-1.7,0.8-1.7,1.7
			C26.1,55.4,26.9,56.2,27.9,56.2z M22.7,51c1,0,1.7-0.8,1.7-1.7s-0.8-1.7-1.7-1.7s-1.7,0.8-1.7,1.7S21.7,51,22.7,51z M33.1,51
			c1,0,1.7-0.8,1.7-1.7s-0.8-1.7-1.7-1.7s-1.7,0.8-1.7,1.7S32.1,51,33.1,51z M22.7,61.4c1,0,1.7-0.8,1.7-1.7c0-1-0.8-1.7-1.7-1.7
			s-1.7,0.8-1.7,1.7C20.9,60.6,21.7,61.4,22.7,61.4z M33.1,61.4c1,0,1.7-0.8,1.7-1.7c0-1-0.8-1.7-1.7-1.7s-1.7,0.8-1.7,1.7
			C31.4,60.6,32.1,61.4,33.1,61.4z M17.5,66.6c1,0,1.7-0.8,1.7-1.7c0-1-0.8-1.7-1.7-1.7c-1,0-1.7,0.8-1.7,1.7
			C15.7,65.8,16.5,66.6,17.5,66.6z M27.9,66.6c1,0,1.7-0.8,1.7-1.7c0-1-0.8-1.7-1.7-1.7s-1.7,0.8-1.7,1.7
			C26.1,65.8,26.9,66.6,27.9,66.6z M22.7,71.8c1,0,1.7-0.8,1.7-1.7c0-1-0.8-1.7-1.7-1.7s-1.7,0.8-1.7,1.7
			C20.9,71,21.7,71.8,22.7,71.8z M33.1,71.8c1,0,1.7-0.8,1.7-1.7c0-1-0.8-1.7-1.7-1.7s-1.7,0.8-1.7,1.7C31.4,71,32.1,71.8,33.1,71.8
			z"/>
	</g>
</g>
</svg>
