<?xml version="1.0" encoding="utf-8"?>
<!-- Generator: Adobe Illustrator 21.0.0, SVG Export Plug-In . SVG Version: 6.00 Build 0)  -->
<svg version="1.1" id="Слой_1" xmlns="http://www.w3.org/2000/svg" xmlns:xlink="http://www.w3.org/1999/xlink" x="0px" y="0px"
	 viewBox="0 0 100 100" style="enable-background:new 0 0 100 100;" xml:space="preserve">
<g>
	<g>
		<path d="M92.1,14.3H7.4c-3.8,0-6.9,3.1-6.9,6.9v58.4c0,3.8,3.1,6.9,6.9,6.9h84.7c3.8,0,6.9-3.1,6.9-6.9V21.2
			C99,17.4,95.9,14.3,92.1,14.3z M95.7,79.6c0,2-1.6,3.6-3.6,3.6H7.4c-2,0-3.6-1.6-3.6-3.6V21.2c0-2,1.6-3.6,3.6-3.6h84.7
			c2,0,3.6,1.6,3.6,3.6V79.6z M26.8,61.9H12c-0.9,0-1.6,0.7-1.6,1.6c0,0.9,0.7,1.6,1.6,1.6h14.8c0.9,0,1.6-0.7,1.6-1.6
			C28.4,62.6,27.7,61.9,26.8,61.9z M48.1,61.9H33.3c-0.9,0-1.6,0.7-1.6,1.6c0,0.9,0.7,1.6,1.6,1.6h14.8c0.9,0,1.6-0.7,1.6-1.6
			C49.8,62.6,49,61.9,48.1,61.9z M13.6,70.1H12c-0.9,0-1.6,0.7-1.6,1.6s0.7,1.6,1.6,1.6h1.6c0.9,0,1.6-0.7,1.6-1.6
			S14.5,70.1,13.6,70.1z M23.5,70.1h-3.3c-0.9,0-1.6,0.7-1.6,1.6s0.7,1.6,1.6,1.6h3.3c0.9,0,1.6-0.7,1.6-1.6S24.4,70.1,23.5,70.1z
			 M31.7,70.1H30c-0.9,0-1.6,0.7-1.6,1.6s0.7,1.6,1.6,1.6h1.6c0.9,0,1.6-0.7,1.6-1.6S32.6,70.1,31.7,70.1z M41.5,70.1h-3.3
			c-0.9,0-1.6,0.7-1.6,1.6s0.7,1.6,1.6,1.6h3.3c0.9,0,1.6-0.7,1.6-1.6S42.4,70.1,41.5,70.1z M46.9,70.6c-0.3,0.3-0.5,0.7-0.5,1.2
			s0.2,0.9,0.5,1.2c0.3,0.3,0.7,0.5,1.2,0.5s0.9-0.2,1.2-0.5c0.3-0.3,0.5-0.7,0.5-1.2s-0.2-0.9-0.5-1.2C48.6,70,47.5,70,46.9,70.6z
			 M79.3,55.3c-2.1,0-4.1,0.6-5.7,1.6c-1.7-1-3.7-1.6-5.7-1.6c-6.3,0-11.5,5.2-11.5,11.5c0,6.3,5.2,11.5,11.5,11.5
			c2.1,0,4.1-0.6,5.7-1.6c1.7,1,3.7,1.6,5.7,1.6c6.3,0,11.5-5.2,11.5-11.5C90.8,60.5,85.6,55.3,79.3,55.3z M70.7,74.4
			c-0.9,0.4-1.9,0.6-2.9,0.6c-4.5,0-8.2-3.7-8.2-8.2c0-4.5,3.7-8.2,8.2-8.2c1,0,2,0.2,2.9,0.6c-1.8,2-2.9,4.7-2.9,7.6
			S68.9,72.4,70.7,74.4z M73.6,72.6c-1.5-1.5-2.5-3.6-2.5-5.8c0-2.3,0.9-4.4,2.5-5.8c1.5,1.5,2.5,3.6,2.5,5.8
			C76,69.1,75.1,71.2,73.6,72.6z M79.3,75c-1,0-2-0.2-2.9-0.6c1.8-2,2.9-4.7,2.9-7.6s-1.1-5.6-2.9-7.6c0.9-0.4,1.9-0.6,2.9-0.6
			c4.5,0,8.2,3.7,8.2,8.2C87.5,71.3,83.8,75,79.3,75z M14.1,50.4h22.1c2,0,3.7-1.7,3.7-3.7V31.1c0-2-1.7-3.7-3.7-3.7H14.1
			c-2,0-3.7,1.7-3.7,3.7v15.6C10.3,48.7,12,50.4,14.1,50.4z M36.6,46.7c0,0.2-0.2,0.4-0.4,0.4H30c0-0.1,0-0.3,0-0.4v-2.9h6.6V46.7z
			 M36.6,40.5H30v-2.9c0-0.2,0.2-0.4,0.4-0.4h5.7c0.1,0,0.3,0,0.4,0V40.5z M23.5,31.1c0-0.2,0.2-0.4,0.4-0.4h12.3
			c0.2,0,0.4,0.2,0.4,0.4v2.4c0,0.2-0.2,0.4-0.4,0.4h-5.7c-2,0-3.7,1.7-3.7,3.7v9c0,0.2-0.2,0.4-0.4,0.4h-2.4
			c-0.2,0-0.4-0.2-0.4-0.4V31.1z M13.6,31.1c0-0.2,0.2-0.4,0.4-0.4h6.2c0,0.1,0,0.3,0,0.4V34h-6.6V31.1z M13.6,37.3h6.6v3.3h-6.6
			V37.3z M13.6,43.8h6.6v2.9c0,0.1,0,0.3,0,0.4h-6.2c-0.2,0-0.4-0.2-0.4-0.4V43.8z"/>
	</g>
</g>
</svg>
