<?xml version="1.0" encoding="utf-8"?>
<!-- Generator: Adobe Illustrator 21.0.0, SVG Export Plug-In . SVG Version: 6.00 Build 0)  -->
<svg version="1.1" id="Слой_1" xmlns="http://www.w3.org/2000/svg" xmlns:xlink="http://www.w3.org/1999/xlink" x="0px" y="0px"
	 viewBox="0 0 100 100" style="enable-background:new 0 0 100 100;" xml:space="preserve">
<path d="M71,47.6c2.6-3.9,4.2-8.7,4.2-13.7v-8.2C75.2,12,64.1,1,50.5,1C37,1,25.9,12,25.9,25.6v8.2c0,5.1,1.5,9.8,4.2,13.7
	C17.8,54.7,9.5,67.9,9.5,83.1v4.1c0,6.8,5.5,12.3,12.3,12.3h57.5c6.8,0,12.3-5.5,12.3-12.3v-4.1C91.6,67.9,83.3,54.7,71,47.6z
	 M34.1,25.6c0-9.1,7.4-16.4,16.4-16.4c9.1,0,16.4,7.4,16.4,16.4v8.2c0,9.1-7.4,16.4-16.4,16.4c-9.1,0-16.4-7.4-16.4-16.4V25.6
	L34.1,25.6z M83.4,87.2c0,2.3-1.8,4.1-4.1,4.1H21.8c-2.3,0-4.1-1.8-4.1-4.1v-4.1c0-12.9,7.5-24,18.3-29.4c4.1,3,9.1,4.8,14.5,4.8
	c5.4,0,10.5-1.8,14.5-4.8C75.9,59,83.4,70.2,83.4,83.1V87.2L83.4,87.2z"/>
</svg>
