<?xml version="1.0" encoding="utf-8"?>
<!-- Generator: Adobe Illustrator 21.0.0, SVG Export Plug-In . SVG Version: 6.00 Build 0)  -->
<svg version="1.1" id="Слой_1" xmlns="http://www.w3.org/2000/svg" xmlns:xlink="http://www.w3.org/1999/xlink" x="0px" y="0px"
	 viewBox="0 0 100 100" style="enable-background:new 0 0 100 100;" xml:space="preserve">
<g>
	<g>
		<path d="M55.2,1c-1.8,0-3.5,0.1-5.2,0.4C48.2,1.1,46.5,1,44.8,1c-8.4,0-16.2,2.7-22.9,7.2c0,0,0,0,0,0c-3.4,2.3-6.5,5.2-9.2,8.4
			c-0.1,0.1-0.1,0.2-0.2,0.2C10,20,7.8,23.5,6,27.2c0,0.1-0.1,0.2-0.1,0.3c-1.2,2.6-2.2,5.4-3,8.3c-0.1,0.2-0.1,0.3-0.1,0.5
			C1.6,40.6,1,45.2,1,50c0,7.4,1.5,14.5,4.2,20.8c0,0.1,0,0.1,0.1,0.2c1.6,3.7,3.6,7.2,6,10.4c0.1,0.1,0.1,0.2,0.2,0.3
			c2.4,3.1,5.1,6,8.1,8.3c0.1,0.1,0.2,0.2,0.3,0.2c7.1,5.5,15.7,8.8,25,8.8c1.7,0,3.4-0.1,5.1-0.4c1.7,0.2,3.4,0.4,5.2,0.4
			C79.3,99,99,77,99,50C99,23,79.3,1,55.2,1z M37.5,5.1c-0.2,0.1-0.4,0.2-0.6,0.3c-0.5,0.3-1.1,0.6-1.6,0.9c-0.3,0.2-0.7,0.4-1,0.6
			c-0.5,0.3-0.9,0.6-1.4,0.9h-3.3C32.2,6.6,34.8,5.7,37.5,5.1z M23.7,11.1h4.8c-0.4,0.4-0.8,0.7-1.3,1.1c-0.3,0.3-0.7,0.7-1,1
			c-0.3,0.3-0.7,0.7-1,1c-0.3,0.3-0.6,0.7-1,1c-0.3,0.3-0.5,0.6-0.8,0.9h-5.7C19.6,14.3,21.6,12.6,23.7,11.1z M14.8,19.6h6
			c-0.2,0.3-0.4,0.6-0.6,0.9c-0.5,0.7-1,1.5-1.5,2.3c-0.1,0.2-0.3,0.5-0.4,0.7c-0.4,0.7-0.7,1.3-1.1,2c-0.1,0.2-0.3,0.5-0.4,0.7
			c0,0,0,0.1,0,0.1h-6.4C11.6,23.9,13.1,21.7,14.8,19.6z M8.7,29.7h6.6c-0.3,0.7-0.6,1.5-0.9,2.2c-0.1,0.2-0.1,0.4-0.2,0.6
			c-0.2,0.7-0.5,1.5-0.7,2.2H6.8C7.3,33.1,8,31.4,8.7,29.7z M5.8,38.2h6.8c0,0.2-0.1,0.4-0.1,0.6c0,0.2-0.1,0.4-0.1,0.7
			c-0.2,1.1-0.4,2.1-0.5,3.2c0,0.1,0,0.1,0,0.2c0,0.1,0,0.3,0,0.4H4.9C5.1,41.5,5.4,39.8,5.8,38.2z M4.4,50c0-1.1,0.1-2.3,0.1-3.4
			h6.9c0,0,0,0.1,0,0.1c-0.1,1.1-0.1,2.2-0.1,3.3c0,0.6,0,1.1,0,1.7H4.5C4.5,51.1,4.4,50.6,4.4,50z M4.7,55.1h6.8
			c0.1,0.7,0.1,1.4,0.2,2.1c0,0.1,0,0.1,0,0.2c0.1,0.9,0.3,1.9,0.5,2.8H5.5C5.1,58.5,4.9,56.8,4.7,55.1z M6.3,63.5H13v0
			c0.1,0.2,0.1,0.4,0.2,0.6c0,0.1,0,0.1,0.1,0.2c0.3,1,0.6,2,0.9,3c0.1,0.2,0.1,0.4,0.2,0.6c0.1,0.2,0.1,0.4,0.2,0.6H8
			C7.3,66.9,6.8,65.3,6.3,63.5z M13.5,78.7c-1.5-2.1-2.9-4.4-4-6.8H16c0.3,0.6,0.5,1.2,0.8,1.8c0.1,0.2,0.3,0.5,0.4,0.7
			c0.4,0.7,0.7,1.4,1.1,2c0.1,0.2,0.3,0.5,0.4,0.7c0.3,0.5,0.6,1,0.9,1.5H13.5z M16.2,82.1h5.9c0.2,0.2,0.4,0.5,0.6,0.7
			c0.5,0.6,1.1,1.3,1.6,1.9c0.3,0.3,0.6,0.7,1,1c0.3,0.3,0.7,0.7,1,1c0.1,0.1,0.3,0.3,0.4,0.4h-5.2C19.6,85.7,17.8,84,16.2,82.1z
			 M26.4,90.6h4.2c0.2,0.2,0.4,0.3,0.7,0.5c0.4,0.3,0.7,0.5,1.1,0.8c0.7,0.5,1.3,0.9,2,1.3c0.3,0.2,0.6,0.4,1,0.6
			c0.5,0.3,1.1,0.6,1.6,0.9c0.2,0.1,0.4,0.2,0.6,0.3C33.6,94.1,29.9,92.6,26.4,90.6z M55.2,95.6c-1.4,0-2.7-0.1-4-0.2l-0.7-0.1
			c-0.1,0-0.2,0-0.3,0c-0.6-0.1-1.2-0.2-1.8-0.3c0,0-0.1,0-0.1,0c-0.6-0.1-1.1-0.2-1.7-0.4c-0.1,0-0.1,0-0.2-0.1
			c-0.5-0.1-1.1-0.3-1.6-0.4c-0.1,0-0.3-0.1-0.4-0.1c-0.5-0.1-0.9-0.3-1.4-0.4c-0.3-0.1-0.6-0.2-0.9-0.4c-0.3-0.1-0.5-0.2-0.8-0.3
			C32,89,24.3,81.4,19.7,71.8c0-0.1-0.1-0.2-0.1-0.3c-0.3-0.5-0.5-1.1-0.7-1.6c-0.1-0.2-0.2-0.4-0.3-0.6c-0.2-0.4-0.3-0.8-0.5-1.3
			c-0.1-0.3-0.2-0.5-0.3-0.8c-0.1-0.4-0.3-0.8-0.4-1.1c-0.1-0.3-0.2-0.6-0.3-0.9c-0.1-0.4-0.2-0.7-0.3-1.1c-0.1-0.3-0.2-0.7-0.3-1
			c-0.1-0.4-0.2-0.7-0.3-1.1c-0.1-0.3-0.2-0.7-0.2-1c-0.1-0.4-0.2-0.7-0.2-1.1c-0.1-0.3-0.1-0.7-0.2-1c-0.1-0.4-0.1-0.8-0.2-1.1
			c-0.1-0.3-0.1-0.7-0.1-1c-0.1-0.4-0.1-0.8-0.1-1.2c0-0.3-0.1-0.6-0.1-1c0-0.5-0.1-0.9-0.1-1.4c0-0.3,0-0.5-0.1-0.8
			c0-0.7-0.1-1.5-0.1-2.2c0-0.8,0-1.5,0.1-2.2c0-0.3,0-0.5,0-0.8c0-0.5,0.1-0.9,0.1-1.4c0-0.3,0.1-0.6,0.1-1c0-0.4,0.1-0.8,0.1-1.2
			c0-0.3,0.1-0.7,0.1-1c0.1-0.4,0.1-0.8,0.2-1.1c0.1-0.3,0.1-0.7,0.2-1c0.1-0.4,0.1-0.7,0.2-1.1c0.1-0.3,0.2-0.7,0.2-1
			c0.1-0.4,0.2-0.7,0.3-1.1c0.1-0.3,0.2-0.7,0.3-1c0.1-0.4,0.2-0.7,0.3-1.1c0.1-0.3,0.2-0.6,0.3-0.9c0.1-0.4,0.3-0.8,0.4-1.1
			c0.1-0.3,0.2-0.6,0.3-0.8c0.2-0.4,0.3-0.9,0.5-1.3c0.1-0.2,0.2-0.4,0.3-0.6c0.2-0.5,0.5-1.1,0.7-1.6c0-0.1,0.1-0.2,0.1-0.3
			C24.3,18.6,32,11,41.2,7.2C41.5,7.1,41.8,7,42,6.9c0.3-0.1,0.6-0.2,0.9-0.4c0.4-0.2,0.9-0.3,1.4-0.4c0.1,0,0.3-0.1,0.4-0.1
			c0.5-0.2,1.1-0.3,1.6-0.4c0.1,0,0.1,0,0.2-0.1c0.6-0.1,1.1-0.3,1.7-0.4c0,0,0.1,0,0.1,0c0.6-0.1,1.2-0.2,1.8-0.3
			c0.1,0,0.2,0,0.3,0l0.7-0.1c1.3-0.2,2.7-0.2,4-0.2c22.3,0,40.4,20.5,40.4,45.6C95.6,75.2,77.4,95.6,55.2,95.6z M55.2,15.3
			c1,0,2.1,0.1,3.1,0.2c0.1,0,0.1,0,0.2,0c0.9,0,1.6-0.6,1.7-1.5c0.1-0.9-0.6-1.8-1.5-1.9c-1.2-0.1-2.3-0.2-3.6-0.2h0l0,1.7v-1.7
			c-1,0-1.7,0.8-1.7,1.7C53.4,14.6,54.2,15.3,55.2,15.3z M42,18.5c0.3,0,0.5-0.1,0.8-0.2c1-0.5,1.9-0.9,2.9-1.3
			c0.9-0.3,1.3-1.3,1-2.2c-0.3-0.9-1.3-1.3-2.2-1c-1.1,0.4-2.2,0.9-3.3,1.4c-0.8,0.4-1.2,1.4-0.8,2.3C40.7,18.1,41.3,18.5,42,18.5z
			 M84.6,40.4c0.2,0.8,0.9,1.3,1.7,1.3c0.1,0,0.3,0,0.4-0.1c0.9-0.2,1.5-1.1,1.2-2c-0.3-1.1-0.6-2.3-1-3.3c-0.3-0.9-1.3-1.4-2.2-1
			c-0.9,0.3-1.4,1.3-1.1,2.1C84,38.3,84.4,39.3,84.6,40.4z M82.2,26.8c-0.7-1-1.4-1.9-2.1-2.8c-0.6-0.7-1.7-0.8-2.4-0.2
			c-0.7,0.6-0.8,1.7-0.2,2.4c0.7,0.8,1.3,1.7,1.9,2.6c0.3,0.5,0.9,0.7,1.4,0.7c0.3,0,0.7-0.1,1-0.3C82.5,28.6,82.7,27.6,82.2,26.8z
			 M55.2,84.7c-1.1,0-2.1-0.1-3.2-0.2c-1-0.1-1.8,0.6-1.9,1.5c-0.1,0.9,0.6,1.8,1.5,1.9c1.2,0.1,2.4,0.2,3.6,0.2h0.1
			c1,0,1.6-0.8,1.6-1.7C57,85.4,56.1,84.7,55.2,84.7z M80,73.4c-0.7-0.6-1.8-0.5-2.4,0.2c-0.7,0.8-1.4,1.6-2.2,2.4
			c-0.7,0.7-0.7,1.7,0,2.4c0.3,0.3,0.8,0.5,1.2,0.5c0.4,0,0.9-0.2,1.2-0.5c0.8-0.8,1.6-1.7,2.4-2.6C80.8,75.1,80.7,74,80,73.4z
			 M67.6,81.7c-1,0.5-1.9,0.9-2.9,1.3c-0.9,0.3-1.3,1.3-1,2.2c0.3,0.7,0.9,1.1,1.6,1.1c0.2,0,0.4,0,0.6-0.1c1.1-0.4,2.2-0.9,3.3-1.4
			c0.8-0.4,1.2-1.4,0.7-2.3C69.5,81.6,68.5,81.3,67.6,81.7z M72.1,17c-1-0.6-2.1-1.2-3.1-1.8c-0.8-0.4-1.9-0.1-2.3,0.7
			c-0.4,0.8-0.1,1.9,0.8,2.3c0.9,0.5,1.9,1,2.8,1.6c0.3,0.2,0.6,0.3,0.9,0.3c0.6,0,1.1-0.3,1.4-0.8C73.1,18.5,72.9,17.5,72.1,17z
			 M87.5,48.3c-1,0-1.7,0.8-1.7,1.7c0,1,0,2.1-0.1,3.1c-0.1,0.9,0.6,1.7,1.6,1.8c0,0,0.1,0,0.1,0c0.9,0,1.6-0.7,1.7-1.6
			c0.1-1.1,0.1-2.2,0.1-3.4v-0.1C89.3,49,88.5,48.3,87.5,48.3z M24.5,50c0-1.1,0-2.1,0.1-3.2c0.1-0.9-0.6-1.7-1.6-1.8
			c-0.9-0.1-1.8,0.6-1.8,1.6c-0.1,1.1-0.1,2.3-0.1,3.4v0c0,0.9,0.8,1.7,1.7,1.7C23.7,51.7,24.5,50.9,24.5,50z M85.9,61.5
			c-0.9-0.3-1.9,0.2-2.2,1.1c-0.3,1-0.7,2-1.2,3c-0.4,0.9,0,1.9,0.9,2.2c0.2,0.1,0.5,0.1,0.7,0.1c0.7,0,1.3-0.4,1.6-1
			c0.5-1.1,0.9-2.2,1.3-3.3C87.3,62.7,86.8,61.8,85.9,61.5z M26.9,32.2c-0.9-0.4-1.9,0-2.3,0.9c-0.5,1.1-0.9,2.2-1.3,3.3
			c-0.3,0.9,0.2,1.8,1.1,2.1c0.2,0.1,0.4,0.1,0.6,0.1c0.7,0,1.4-0.4,1.6-1.1c0.3-1,0.7-2,1.2-3C28.1,33.6,27.7,32.6,26.9,32.2z
			 M30.9,71.2c-0.5-0.8-1.6-1-2.4-0.5c-0.8,0.5-1,1.6-0.5,2.3c0.7,1,1.4,1.9,2.1,2.8c0.3,0.4,0.8,0.6,1.3,0.6c0.4,0,0.8-0.1,1.1-0.4
			c0.7-0.6,0.8-1.7,0.2-2.4C32.2,73,31.5,72.1,30.9,71.2z M25.7,59.6c-0.2-0.9-1.2-1.5-2.1-1.2c-0.9,0.2-1.5,1.1-1.3,2
			c0.3,1.1,0.6,2.3,1,3.4c0.2,0.7,0.9,1.1,1.6,1.1c0.2,0,0.4,0,0.6-0.1c0.9-0.3,1.4-1.3,1.1-2.1C26.3,61.6,25.9,60.6,25.7,59.6z
			 M32.5,21.5c-0.8,0.8-1.6,1.7-2.4,2.6c-0.6,0.7-0.5,1.8,0.2,2.4c0.3,0.3,0.7,0.4,1.1,0.4c0.5,0,1-0.2,1.3-0.6
			c0.7-0.8,1.4-1.6,2.2-2.4c0.7-0.7,0.7-1.7,0-2.4C34.3,20.8,33.2,20.8,32.5,21.5z M42.8,81.8c-0.9-0.5-1.9-1-2.8-1.6
			c-0.8-0.5-1.9-0.3-2.4,0.5c-0.5,0.8-0.3,1.8,0.5,2.3c1,0.6,2,1.2,3.1,1.8c0.2,0.1,0.5,0.2,0.8,0.2c0.6,0,1.2-0.3,1.5-0.9
			C44,83.2,43.7,82.2,42.8,81.8z M65.3,49.7c-1.7-0.8-3.7-1.5-5.8-2.1c-1.2-0.3-2.1-0.5-2.6-0.7V31.8c0.8,0.2,1.5,0.4,2.2,0.7
			c2.8,1.1,4.5,2.8,6.4,4.9v3.5c0,1,0.7,1.7,1.7,1.7c1,0,1.7-0.7,1.7-1.7V30.4c0-1-0.7-1.7-1.7-1.7c-1,0-1.7,0.7-1.7,1.7v2.2
			c-0.4-0.3-0.1-0.7-0.7-1c-2.2-1.5-4.8-2.6-8-3.2V26c0-1-0.7-1.7-1.7-1.7c-1,0-1.7,0.7-1.7,1.7v2.2c-4.4,0.1-7.7,1.1-9.8,3
			c-2.2,2-3.4,4.7-3.4,8c0,1.8,0.5,3.3,1.5,4.7c1,1.3,2.4,2.4,4.2,3.3c1.6,0.8,4.1,1.7,7.4,2.5v16.2c-0.9-0.2-1.7-0.4-2.5-0.6
			c-3-1.1-4.4-1.9-6.2-3.8v-3.8c0-1-0.7-1.7-1.7-1.7c-1,0-1.7,0.7-1.7,1.7V68c0,1,0.7,1.7,1.7,1.7c1,0,1.7-0.7,1.7-1.7v-2.2
			c3,2.3,5.2,2.9,8.7,3.4v2.4c0,1,0.7,1.7,1.7,1.7s1.7-0.7,1.7-1.7v-2.2c4.4-0.1,7.9-1.1,10.4-3.1c2.5-2.1,3.8-5,3.8-8.5
			c0-1.9-0.5-3.5-1.5-4.8C68.5,51.7,67.1,50.5,65.3,49.7z M53.5,46L53.5,46c-0.6-0.2-1.2-0.4-1.9-0.6c-1.1-0.3-2.3-0.8-3.6-1.3
			c-1.2-0.5-2.2-1.3-3-2.2c-0.8-0.9-1.2-2-1.2-3.2c0-2,0.8-3.6,2.4-5c1.6-1.3,4-2,7.3-2.1V46z M66.1,65C66.1,65,66.1,65,66.1,65
			c0.2-0.1,0.4-0.3,0.6-0.6C66.5,64.6,66.3,64.8,66.1,65z M64.9,63.8c-1.8,1.4-4.5,2.2-8,2.3V50.6l2.7,0.7c1.3,0.4,2.6,0.8,3.9,1.4
			c1.2,0.5,2.2,1.3,3,2.2c0.8,0.9,1.2,2,1.2,3.2C67.7,60.5,66.7,62.3,64.9,63.8z"/>
	</g>
</g>
</svg>
