<?xml version="1.0" encoding="utf-8"?>
<!-- Generator: Adobe Illustrator 21.0.0, SVG Export Plug-In . SVG Version: 6.00 Build 0)  -->
<svg version="1.1" id="Слой_1" xmlns="http://www.w3.org/2000/svg" xmlns:xlink="http://www.w3.org/1999/xlink" x="0px" y="0px"
	 viewBox="0 0 100 100" style="enable-background:new 0 0 100 100;" xml:space="preserve">
<path d="M91.5,76.1l-15.9-8c-1.5-0.8-2.4-2.3-2.4-3.9v-5.6c0.4-0.5,0.8-1,1.2-1.6c2.1-2.9,3.7-6.2,4.9-9.7c2.3-1.1,3.9-3.4,3.9-6
	v-6.7c0-1.6-0.6-3.2-1.7-4.4v-8.9c0.1-0.9,0.5-6.4-3.5-10.9c-3.4-3.9-8.9-5.9-16.5-5.9c-7.5,0-13,2-16.5,5.9c-2.4,2.7-3.2,5.8-3.4,8
	c-2.8-1.5-6.2-2.2-10-2.2c-17.3,0-18.3,14.7-18.3,15V39c-1.1,1.2-1.7,2.5-1.7,3.9v5.8c0,1.8,0.8,3.5,2.2,4.6
	c1.4,5.2,4.7,9.1,6.1,10.5v4.6c0,1.3-0.7,2.5-1.9,3.2L7,78.4C2.8,80.7,0.2,85.1,0.2,90v6.3h23.3h3.3h73.1v-6.7
	C99.8,83.8,96.7,78.7,91.5,76.1z M23.4,89.2V93H3.5v-3c0-3.6,2-6.9,5.2-8.7l11-6.9c2.2-1.2,3.6-3.5,3.6-6.1v-6l-0.5-0.5
	c0,0-4.5-4.2-5.8-9.9l-0.2-0.7l-0.6-0.4c-0.8-0.5-1.2-1.3-1.2-2.2v-5.8c0-0.6,0.4-1.3,1.1-2l0.5-0.5l0-9c0-0.5,0.9-11.8,15-11.8
	c4,0,7.3,0.9,10,2.7v7.9c-1.1,1.2-1.7,2.8-1.7,4.4v6.7c0,0.5,0.1,1,0.2,1.5c0,0.2,0.1,0.4,0.2,0.6c0.1,0.3,0.2,0.6,0.3,0.8
	c0,0,0,0,0,0c0.4,0.9,1,1.7,1.8,2.3c0,0,0,0.1,0,0.1c0.1,0.4,0.2,0.8,0.3,1.1l0.1,0.4c0,0.1,0.1,0.2,0.1,0.2
	c0.1,0.2,0.1,0.4,0.2,0.5c0.1,0.3,0.2,0.6,0.3,0.9c0.1,0.1,0.1,0.3,0.2,0.4c0.1,0.3,0.3,0.7,0.4,1c0,0.1,0.1,0.2,0.1,0.2l0.1,0.2
	c0,0.1,0.1,0.2,0.1,0.3c0.2,0.4,0.3,0.7,0.5,1c0,0.1,0.1,0.1,0.1,0.2c0.1,0.2,0.2,0.4,0.3,0.6c0.2,0.3,0.4,0.7,0.5,1
	c0.1,0.2,0.2,0.3,0.3,0.4c0.2,0.4,0.5,0.8,0.7,1.1c0,0.1,0.1,0.2,0.1,0.2c0.4,0.6,0.8,1.1,1,1.5c0.1,0.1,0.1,0.2,0.2,0.3
	c0,0,0.1,0.1,0.1,0.2v5.5c0,1.6-0.9,3.1-2.3,3.9l-4.4,2.4l-0.8-0.1l-0.3,0.7L31.2,76C26.4,78.7,23.4,83.7,23.4,89.2z M96.5,93H26.7
	v-3.7c0-4.3,2.3-8.2,6.1-10.3l14.8-8.1c2.5-1.4,4-4,4-6.8v-6.7v0L51.3,57l-0.1-0.1c0,0-0.1-0.1-0.3-0.3c0,0,0,0,0,0
	c-0.1-0.1-0.2-0.3-0.3-0.4c0,0,0,0,0,0c-0.2-0.3-0.6-0.8-0.9-1.3c0,0,0,0,0,0c-0.2-0.3-0.3-0.5-0.5-0.8c0,0,0,0,0-0.1
	c-0.4-0.6-0.8-1.3-1.2-2.1c0,0,0,0,0,0c-0.2-0.4-0.4-0.9-0.6-1.3l0,0c0-0.1-0.1-0.1-0.1-0.2l0,0c-0.1-0.2-0.2-0.4-0.3-0.7
	c0-0.1-0.1-0.2-0.1-0.2c-0.1-0.2-0.2-0.4-0.3-0.7c-0.2-0.5-0.3-0.9-0.5-1.4l-0.1-0.3c0,0,0-0.1,0-0.1c-0.2-0.5-0.3-1.1-0.4-1.6
	l-0.2-0.7l-0.6-0.4c-1-0.6-1.5-1.7-1.5-2.8v-6.7c0-0.9,0.4-1.8,1.1-2.5l0.5-0.5V21.4v-0.6l0,0c-0.1-1.2,0-4.9,2.7-8
	c2.8-3.1,7.4-4.7,14-4.7c6.5,0,11.2,1.6,13.9,4.7c3.2,3.7,2.7,8.4,2.7,8.4l0,10.6l0.5,0.5c0.7,0.6,1.1,1.5,1.1,2.5v6.7
	c0,1.5-0.9,2.7-2.4,3.2l-0.8,0.3l-0.3,0.8c-1.1,3.5-2.7,6.7-4.7,9.5c-0.5,0.7-1,1.3-1.4,1.8l-0.4,0.5v6.9c0,2.9,1.6,5.6,4.3,6.9
	l15.9,8c4,2,6.4,6,6.4,10.5V93z"/>
</svg>
