<?xml version="1.0" encoding="utf-8"?>
<!-- Generator: Adobe Illustrator 21.0.0, SVG Export Plug-In . SVG Version: 6.00 Build 0)  -->
<svg version="1.1" id="Слой_1" xmlns="http://www.w3.org/2000/svg" xmlns:xlink="http://www.w3.org/1999/xlink" x="0px" y="0px"
	 viewBox="0 0 100 100" style="enable-background:new 0 0 100 100;" xml:space="preserve">
<g>
	<g>
		<path d="M88.6,66.9c-0.7-0.5-1.8-0.3-2.3,0.4l-9.2,13.1l-6.5-5.3c-0.7-0.6-1.7-0.5-2.3,0.2c-0.6,0.7-0.5,1.7,0.2,2.3l7.8,6.4
			c0.3,0.2,0.7,0.4,1,0.4c0.1,0,0.1,0,0.2,0c0.5-0.1,0.9-0.3,1.1-0.7L89,69.2C89.6,68.4,89.4,67.4,88.6,66.9z M77.9,55.1
			c-1.2,0-2.4,0.1-3.5,0.3c1.9-2.8,3.5-5.8,4.6-9.1c2.3-1.1,3.8-3.3,3.8-5.9l0-6.5c0-1.6-0.6-3.1-1.6-4.3l0-8.7
			c0.1-0.9,0.5-6.2-3.4-10.7C74.5,6.4,69,4.5,61.6,4.4c-7.4,0-12.9,1.9-16.3,5.7c-2.4,2.7-3.2,5.7-3.4,7.8c-2.8-1.5-6.1-2.2-9.9-2.2
			C15,15.8,14,30.3,14,30.5l0,7.5c-1.1,1.2-1.6,2.5-1.6,3.8l0,5.6c0,1.8,0.8,3.4,2.1,4.5c1.3,5.1,4.7,8.9,6,10.3l0,4.5
			c0,1.3-0.7,2.5-1.9,3.1L7.5,76.6C3.3,78.9,0.7,83.3,0.7,88l0,6.2l23,0l3.3,0l39.5,0.1c3.3,2.1,7.1,3.3,11.3,3.3
			c11.8,0,21.3-9.5,21.4-21.2C99.2,64.7,89.6,55.2,77.9,55.1z M23.7,87.3l0,3.7L4,90.9L4,88c0-3.5,2-6.8,5.2-8.5l10.9-6.8
			c2.2-1.2,3.6-3.5,3.6-5.9l0-5.9l-0.5-0.5c0,0-4.4-4.2-5.7-9.7L17.3,50l-0.6-0.4c-0.8-0.5-1.2-1.3-1.2-2.2l0-5.6
			c0-0.6,0.4-1.3,1.1-1.9l0.5-0.5l0-8.8c0-0.5,0.9-11.5,14.8-11.5c3.9,0,7.2,0.9,9.8,2.7l0,7.7c-1.1,1.2-1.6,2.7-1.6,4.3l0,6.5
			c0,0.5,0.1,1,0.2,1.5c0,0.2,0.1,0.4,0.2,0.5c0.1,0.3,0.2,0.6,0.3,0.8c0,0,0,0,0,0c0.4,0.9,1,1.6,1.8,2.3c0,0,0,0.1,0,0.1
			c0.1,0.4,0.2,0.7,0.3,1.1l0.1,0.4c0,0.1,0.1,0.2,0.1,0.2c0.1,0.2,0.1,0.4,0.2,0.5c0.1,0.3,0.2,0.6,0.3,0.9
			c0.1,0.1,0.1,0.3,0.2,0.4c0.1,0.3,0.3,0.7,0.4,1c0,0.1,0.1,0.2,0.1,0.2l0.1,0.2c0,0.1,0.1,0.2,0.1,0.3c0.2,0.3,0.3,0.7,0.5,1
			c0,0.1,0.1,0.1,0.1,0.2c0.1,0.2,0.2,0.4,0.3,0.6c0.2,0.3,0.3,0.7,0.5,1c0.1,0.2,0.2,0.3,0.3,0.4c0.2,0.4,0.5,0.8,0.7,1.1
			c0,0.1,0.1,0.2,0.1,0.2c0.4,0.6,0.7,1.1,1,1.5c0.1,0.1,0.1,0.2,0.2,0.3c0,0,0.1,0.1,0.1,0.2l0,5.4c0,1.6-0.9,3-2.3,3.8l-4.3,2.3
			l-1.1,0.6l-9.2,5C26.7,77,23.7,81.9,23.7,87.3z M27,91L27,91l0-3.7c0-4.2,2.3-8.1,6-10.1l14.6-7.9c2.5-1.3,4-3.9,4-6.7l0-6.6v0
			l-0.3-0.4l-0.1-0.1c0,0-0.1-0.1-0.3-0.3c0,0,0,0,0,0c-0.1-0.1-0.2-0.3-0.3-0.4c0,0,0,0,0,0c-0.2-0.3-0.5-0.8-0.9-1.3c0,0,0,0,0,0
			c-0.2-0.3-0.3-0.5-0.5-0.8c0,0,0,0,0-0.1c-0.4-0.6-0.8-1.3-1.2-2.1l0,0c-0.2-0.4-0.4-0.9-0.6-1.3c0-0.1-0.1-0.1-0.1-0.2
			c-0.1-0.2-0.2-0.4-0.3-0.6c0-0.1-0.1-0.2-0.1-0.2c-0.1-0.2-0.2-0.4-0.3-0.7c-0.2-0.4-0.3-0.9-0.5-1.4l-0.1-0.3c0,0,0-0.1,0-0.1
			c-0.2-0.5-0.3-1-0.4-1.6l-0.1-0.6L45,43.1c-1-0.6-1.5-1.6-1.5-2.7l0-6.5c0-0.9,0.4-1.8,1.1-2.4l0.5-0.5l0-10.2l0-0.6l0,0
			c-0.1-1.2,0-4.8,2.7-7.8c2.7-3.1,7.4-4.6,13.8-4.6c6.4,0,11,1.6,13.7,4.7c3.2,3.6,2.6,8.2,2.6,8.2l0,10.4l0.5,0.5
			c0.7,0.6,1.1,1.5,1.1,2.4l0,6.5c0,1.4-0.9,2.7-2.3,3.1l-0.8,0.2l-0.3,0.8c-1.1,3.4-2.7,6.5-4.7,9.3c-0.5,0.7-1,1.3-1.4,1.8
			l-0.4,0.5l0,0.6c-0.4,0.2-0.8,0.4-1.2,0.6c-0.1,0.1-0.2,0.1-0.3,0.1c-0.4,0.2-0.7,0.4-1.1,0.6c-0.2,0.1-0.4,0.2-0.5,0.3
			c-0.3,0.2-0.6,0.4-0.9,0.6c-0.2,0.1-0.4,0.3-0.6,0.4c-0.5,0.4-0.9,0.7-1.4,1.1c-0.2,0.2-0.4,0.4-0.6,0.6c-0.2,0.2-0.5,0.5-0.7,0.7
			c-0.2,0.2-0.4,0.4-0.6,0.6c-0.2,0.2-0.4,0.5-0.6,0.8c-0.2,0.2-0.3,0.4-0.5,0.6c-0.3,0.5-0.7,0.9-1,1.4c-0.1,0.2-0.3,0.5-0.4,0.7
			c-0.2,0.3-0.3,0.6-0.5,0.9c-0.1,0.2-0.2,0.5-0.4,0.7c-0.1,0.3-0.3,0.6-0.4,0.9c-0.1,0.3-0.2,0.6-0.3,0.9c-0.1,0.4-0.2,0.7-0.4,1.1
			c-0.1,0.5-0.3,0.9-0.4,1.4c-0.1,0.2-0.1,0.5-0.1,0.7c-0.1,0.4-0.1,0.8-0.2,1.3c0,0.2-0.1,0.4-0.1,0.6c-0.1,0.6-0.1,1.3-0.1,1.9
			c0,0.7,0,1.4,0.1,2.1c0,0.3,0.1,0.5,0.1,0.8c0.1,0.4,0.1,0.9,0.2,1.3c0.1,0.3,0.1,0.6,0.2,0.8c0.1,0.4,0.2,0.8,0.3,1.2
			c0.1,0.3,0.2,0.5,0.3,0.8c0.1,0.4,0.3,0.8,0.4,1.2c0.1,0.2,0.2,0.4,0.3,0.6c0.2,0.4,0.4,0.8,0.6,1.2c0.1,0.2,0.2,0.3,0.3,0.5
			c0.2,0.4,0.5,0.8,0.8,1.2c0.1,0.1,0.2,0.3,0.3,0.4c0.3,0.4,0.6,0.8,0.9,1.2c0.1,0.1,0.2,0.3,0.4,0.4c0.3,0.3,0.5,0.6,0.8,0.9
			L27,91z M77.8,94.4c-3.7,0-7.1-1.1-10-3.1c-0.6-0.4-1.1-0.8-1.6-1.2c-0.2-0.2-0.3-0.3-0.5-0.5c-0.3-0.3-0.6-0.6-0.9-0.9
			c-0.2-0.2-0.4-0.4-0.6-0.6c-0.3-0.3-0.5-0.6-0.8-1c-0.2-0.2-0.3-0.4-0.5-0.6c-0.4-0.5-0.7-1.1-1-1.6c-0.1-0.1-0.1-0.3-0.2-0.4
			c-0.2-0.5-0.5-0.9-0.7-1.4c-0.1-0.2-0.2-0.4-0.2-0.6c-0.2-0.4-0.3-0.9-0.4-1.3c-0.1-0.2-0.1-0.5-0.2-0.7C60.2,80,60.1,79.5,60,79
			c0-0.2-0.1-0.4-0.1-0.6c-0.1-0.7-0.1-1.4-0.1-2.1c0-0.6,0-1.1,0.1-1.6c0-0.2,0-0.4,0.1-0.6c0-0.3,0.1-0.7,0.2-1
			c0-0.2,0.1-0.5,0.1-0.7c0.1-0.3,0.1-0.6,0.2-0.9c0.1-0.2,0.1-0.5,0.2-0.7c0.1-0.4,0.3-0.9,0.5-1.3c0.1-0.3,0.3-0.6,0.4-0.8
			c0.1-0.2,0.2-0.4,0.3-0.5c0.1-0.3,0.3-0.5,0.5-0.8c0.1-0.2,0.2-0.3,0.3-0.5c0.2-0.3,0.3-0.5,0.5-0.8c0.1-0.1,0.2-0.3,0.3-0.4
			c0.4-0.5,0.8-1,1.2-1.5c0.1-0.1,0.2-0.2,0.3-0.3c0.2-0.2,0.5-0.4,0.7-0.7c0.1-0.1,0.3-0.3,0.4-0.4c0.2-0.2,0.5-0.4,0.8-0.6
			c0.1-0.1,0.3-0.2,0.4-0.3c0.3-0.2,0.6-0.4,0.9-0.6c0,0,0,0,0.1,0c1.1-0.7,2.3-1.3,3.6-1.8c0.1,0,0.2-0.1,0.3-0.1l0.5-0.2
			c1.7-0.5,3.5-0.8,5.3-0.8c9.9,0,18,8.1,18,18C95.9,86.3,87.7,94.4,77.8,94.4z"/>
	</g>
</g>
</svg>
