<?xml version="1.0" encoding="utf-8"?>
<!-- Generator: Adobe Illustrator 21.0.0, SVG Export Plug-In . SVG Version: 6.00 Build 0)  -->
<svg version="1.1" id="Слой_1" xmlns="http://www.w3.org/2000/svg" xmlns:xlink="http://www.w3.org/1999/xlink" x="0px" y="0px"
	 viewBox="0 0 100 100" style="enable-background:new 0 0 100 100;" xml:space="preserve">
<path d="M97.3,43.3c0-0.3-0.1-0.7-0.2-1c-0.1-0.2-0.1-0.4-0.2-0.6c0-0.1,0-0.1-0.1-0.2c-0.2-0.3-0.4-0.4-0.6-0.6
	c-0.1-0.1-0.2-0.3-0.3-0.4l-6.5-5.3V19.8c0-2.2-1.8-4-3.9-4H65.9l-13.4-11c-1.5-1.2-3.6-1.2-5,0l-13.4,11H14.5c-2.2,0-3.9,1.8-3.9,4
	v15.4l-6.4,5.3c-0.1,0.1-0.2,0.2-0.3,0.3c-0.2,0.2-0.5,0.4-0.6,0.7c0,0.1,0,0.1-0.1,0.2C3,41.9,3,42.1,2.9,42.3
	c-0.1,0.3-0.2,0.7-0.2,1c0,0.1-0.1,0.1-0.1,0.2v51.4c0,2.2,1.8,4,3.9,4h86.9c0,0,0,0,0,0c0.5,0,0.9-0.1,1.4-0.3
	c0.1,0,0.2-0.1,0.3-0.1c0.4-0.2,0.8-0.4,1.1-0.7c0,0,0.1-0.1,0.1-0.1c0.2-0.2,0.4-0.4,0.5-0.7c0-0.1,0-0.2,0.1-0.2
	c0.1-0.2,0.2-0.5,0.3-0.8c0.1-0.3,0.1-0.5,0.2-0.8c0-0.1,0.1-0.2,0.1-0.2V43.5C97.4,43.4,97.3,43.3,97.3,43.3z M50,13l3.4,2.8h-6.8
	L50,13z M18.4,23.7h63.2v22.2L50,64.6L18.4,45.9V23.7z M10.5,90.9V50.4L79,90.9H10.5z M89.5,87.9L57.8,69.2l31.7-18.8L89.5,87.9
	L89.5,87.9z"/>
</svg>
