<?xml version="1.0" encoding="utf-8"?>
<!-- Generator: Adobe Illustrator 21.0.0, SVG Export Plug-In . SVG Version: 6.00 Build 0)  -->
<svg version="1.1" id="Слой_1" xmlns="http://www.w3.org/2000/svg" xmlns:xlink="http://www.w3.org/1999/xlink" x="0px" y="0px"
	 viewBox="0 0 100 100" style="enable-background:new 0 0 100 100;" xml:space="preserve">
<style type="text/css">
	.st0{fill:#E0186C;}
	.st1{fill:#FFFFFF;}
</style>
<g>
	<g>
		<path class="st0" d="M73.8,29.4l1.7-1.5c-4.6-5.2-10.8-8.7-17.6-10L57.4,20C63.7,21.2,69.5,24.5,73.8,29.4z M28.7,27.7l1.7,1.5
			c4.3-4.7,10-8,16.2-9.2l-0.4-2.2C39.4,19.1,33.3,22.6,28.7,27.7z M24.4,39.2l-2.1-0.8c-2.4,6.8-2.4,14.3,0,21.2l2.1-0.8
			C22.2,52.5,22.2,45.5,24.4,39.2z M29.8,71.5C34.3,76,40,79,46.2,80.2l0.4-2.2c-5.7-1.1-11-3.9-15.2-8L29.8,71.5z M58.5,77.7
			l0.5,2.2c5.8-1.3,11.2-4.3,15.4-8.6l-1.6-1.6C68.9,73.7,63.9,76.5,58.5,77.7z M82.4,40.8l-2.2,0.6c0.7,2.5,1,5.1,1,7.6
			c0,3.3-0.6,6.7-1.7,9.8l2.1,0.8C83.8,53.5,84.1,47,82.4,40.8z M76.7,37.7h4.5c0.6,0,1.1-0.5,1.1-1.1V32c0-0.6-0.5-1.1-1.1-1.1
			h-4.5c-0.6,0-1.1,0.5-1.1,1.1l0,0v4.5C75.6,37.2,76.1,37.7,76.7,37.7z M77.9,33.1h2.2v2.3h-2.2V33.1z M54.3,15h-4.5
			c-0.6,0-1.1,0.5-1.1,1.1l0,0v4.5c0,0.6,0.5,1.1,1.1,1.1h4.5c0.6,0,1.1-0.5,1.1-1.1v-4.5C55.4,15.5,54.9,15,54.3,15z M53.1,19.5
			h-2.2v-2.3h2.2V19.5z M28.4,29.7h-4.5c-0.6,0-1.1,0.5-1.1,1.1v4.5c0,0.6,0.5,1.1,1.1,1.1h4.5c0.6,0,1.1-0.5,1.1-1.1v-4.5
			C29.5,30.2,29,29.7,28.4,29.7z M27.2,34.3H25V32h2.3L27.2,34.3L27.2,34.3z M28.4,61.5h-4.5c-0.6,0-1.1,0.5-1.1,1.1v4.5
			c0,0.6,0.5,1.1,1.1,1.1h4.5c0.6,0,1.1-0.5,1.1-1.1l0,0v-4.5C29.5,62,29,61.5,28.4,61.5z M27.2,66H25v-2.3h2.3L27.2,66L27.2,66z
			 M54.3,76.2h-4.5c-0.6,0-1.1,0.5-1.1,1.1l0,0v4.5c0,0.6,0.5,1.1,1.1,1.1h4.5c0.6,0,1.1-0.5,1.1-1.1v-4.5
			C55.4,76.7,54.9,76.2,54.3,76.2z M53.1,80.7h-2.2v-2.3h2.2V80.7z M80.1,61.5h-4.5c-0.6,0-1.1,0.5-1.1,1.1v4.5
			c0,0.6,0.5,1.1,1.1,1.1h4.5c0.6,0,1.1-0.5,1.1-1.1l0,0v-4.5C81.3,62,80.7,61.5,80.1,61.5z M79,66h-2.3v-2.3H79V66z"/>
	</g>
</g>
<path class="st1" d="M52,26.3c-12.4,0-22.5,10.1-22.5,22.7c0,12.5,10.1,22.7,22.5,22.7S74.5,61.5,74.5,49S64.4,26.3,52,26.3z
	 M45.4,29.7c-1.3,1.5-2.4,3.3-3.2,5.1c-1.5-0.2-2.9-0.4-4.2-0.6C40.1,32.2,42.7,30.7,45.4,29.7z M36.2,36.2c1.7,0.3,3.4,0.6,5.2,0.8
	c-1.1,3.5-1.7,7.1-1.8,10.8h-7.8C32,43.6,33.6,39.5,36.2,36.2z M31.8,50.1h7.8c0.1,3.7,0.7,7.3,1.8,10.8c-1.8,0.2-3.6,0.5-5.2,0.8
	C33.6,58.5,32,54.4,31.8,50.1z M38,63.7c1.4-0.2,2.8-0.4,4.2-0.6c0.8,1.9,1.8,3.6,3.2,5.1C42.7,67.3,40.1,65.8,38,63.7z M50.9,69.3
	c-2.4-0.6-4.6-2.9-6.2-6.4c2-0.2,4.1-0.3,6.2-0.3V69.3z M50.9,60.3c-2.4,0-4.8,0.1-7.1,0.4c-1.2-3.4-1.8-7-1.9-10.6h9V60.3z
	 M50.9,47.9h-9c0.1-3.6,0.7-7.2,1.9-10.6c2.3,0.2,4.7,0.3,7.1,0.4V47.9L50.9,47.9z M50.9,35.4c-2.1,0-4.2-0.1-6.2-0.3
	c1.6-3.4,3.8-5.8,6.2-6.4V35.4z M72.2,47.9h-7.8c-0.1-3.7-0.7-7.3-1.8-10.8c1.8-0.2,3.6-0.5,5.2-0.8C70.4,39.5,72,43.6,72.2,47.9z
	 M66,34.3c-1.4,0.2-2.8,0.4-4.2,0.6C61,33,60,31.3,58.6,29.8C61.3,30.7,63.9,32.2,66,34.3z M53.1,28.7c2.4,0.6,4.6,2.9,6.2,6.4
	c-2,0.2-4.1,0.3-6.2,0.3V28.7z M53.1,37.7c2.4,0,4.8-0.1,7.1-0.4c1.2,3.4,1.8,7,1.9,10.6h-9V37.7z M53.1,50.1h9
	c-0.1,3.6-0.7,7.2-1.9,10.6c-2.3-0.2-4.7-0.3-7.1-0.4V50.1z M53.1,69.3v-6.6c2.1,0,4.2,0.1,6.2,0.3C57.7,66.3,55.5,68.7,53.1,69.3z
	 M58.6,68.3c1.3-1.5,2.4-3.3,3.2-5.1c1.5,0.2,2.9,0.4,4.2,0.6C63.9,65.8,61.3,67.3,58.6,68.3z M67.8,61.8c-1.7-0.3-3.4-0.6-5.2-0.8
	c1.1-3.5,1.7-7.1,1.8-10.8h7.8C72,54.4,70.4,58.5,67.8,61.8z"/>
</svg>
