<?xml version="1.0" encoding="utf-8"?>
<!-- Generator: Adobe Illustrator 21.0.0, SVG Export Plug-In . SVG Version: 6.00 Build 0)  -->
<svg version="1.1" id="Слой_1" xmlns="http://www.w3.org/2000/svg" xmlns:xlink="http://www.w3.org/1999/xlink" x="0px" y="0px"
	 viewBox="0 0 100 100" style="enable-background:new 0 0 100 100;" xml:space="preserve">
<style type="text/css">
	.st0{fill:#0349C6;}
	.st1{fill:#E0186C;}
</style>
<g>
	<g>
		<path class="st0" d="M50,38.6c-3.3,0-6,2.7-6,6c0,3.3,2.7,6,6,6c3.3,0,6-2.7,6-6C56,41.3,53.3,38.6,50,38.6z M50,48.2
			c-2,0-3.6-1.6-3.6-3.6c0-2,1.6-3.6,3.6-3.6c2,0,3.6,1.6,3.6,3.6C53.6,46.6,52,48.2,50,48.2z M61.5,51.2c0.2-0.4,0.2-0.8,0-1.2
			l-0.9-1.6c0.1-0.2,0.1-0.4,0.2-0.7l1.7-0.7c0.4-0.2,0.7-0.6,0.7-1.1v-2.7c0-0.5-0.3-0.9-0.7-1.1l-1.7-0.7
			c-0.1-0.2-0.1-0.5-0.2-0.7l0.9-1.6c0.2-0.4,0.2-0.8,0-1.2c-0.5-0.9-1.1-1.7-1.7-2.4c-0.3-0.3-0.7-0.5-1.2-0.4l-1.4,0.3v-7.7
			c0-2.6-1.4-5-3.7-6.3c1.8-1.9,1.8-5-0.2-6.8c-1.9-1.8-5-1.8-6.8,0.2c-1.8,1.9-1.8,4.8,0,6.6c-2.3,1.3-3.7,3.7-3.7,6.3v7.7
			l-1.4-0.3c-0.4-0.1-0.9,0-1.2,0.4c-0.7,0.7-1.2,1.5-1.7,2.4c-0.2,0.4-0.2,0.8,0,1.2l0.9,1.6c-0.1,0.2-0.1,0.4-0.2,0.7l-1.7,0.7
			c-0.4,0.2-0.7,0.6-0.7,1.1v2.7c0,0.5,0.3,0.9,0.7,1.1l1.7,0.7c0.1,0.2,0.1,0.4,0.2,0.7L38.5,50c-0.2,0.4-0.2,0.8,0,1.2
			c0.5,0.9,1.1,1.7,1.7,2.4c0.3,0.3,0.7,0.5,1.2,0.4l1.7-0.4c0.2,0.1,0.3,0.3,0.5,0.4l0.2,1.8c0,0.4,0.3,0.8,0.7,1
			c0.9,0.4,1.8,0.7,2.8,0.9c0.4,0.1,0.9-0.1,1.2-0.4l1.2-1.4h0.6l1.2,1.4c0.3,0.3,0.7,0.5,1.2,0.4c1-0.2,1.9-0.5,2.8-0.9
			c0.4-0.2,0.7-0.6,0.7-1l0.2-1.8c0.2-0.1,0.4-0.3,0.5-0.4l1.7,0.4c0.4,0.1,0.9,0,1.2-0.4C60.4,52.9,61,52.1,61.5,51.2z M50,15.8
			c1.3,0,2.4,1.1,2.4,2.4c0,1.3-1.1,2.4-2.4,2.4c-1.3,0-2.4-1.1-2.4-2.4C47.6,16.9,48.7,15.8,50,15.8z M50,23c2.7,0,4.8,2.1,4.8,4.8
			v4.3c-0.7-0.3-1.4-0.5-2.1-0.7c-0.4-0.1-0.9,0.1-1.2,0.4l-1.2,1.4h-0.6l-1.2-1.4c-0.3-0.3-0.7-0.5-1.2-0.4
			c-0.7,0.2-1.4,0.4-2.1,0.7v-4.3h0C45.2,25.1,47.3,23,50,23z M58.2,49.2l0.9,1.5c-0.2,0.3-0.4,0.6-0.6,0.9l-1.6-0.4
			c-0.4-0.1-0.8,0-1.1,0.3c-0.4,0.3-0.8,0.6-1.2,0.9c-0.3,0.2-0.5,0.5-0.6,0.9l-0.2,1.7c-0.3,0.1-0.6,0.2-1,0.3L51.8,54
			c-0.2-0.3-0.6-0.4-0.9-0.4h-1.7c-0.3,0-0.7,0.2-0.9,0.4l-1.1,1.3c-0.3-0.1-0.6-0.2-1-0.3L46,53.2c0-0.4-0.2-0.7-0.6-0.9
			c-0.4-0.3-0.8-0.6-1.2-0.9c-0.3-0.3-0.7-0.4-1.1-0.3l-1.6,0.4c-0.2-0.3-0.4-0.6-0.6-0.9l0.9-1.5c0.2-0.3,0.2-0.7,0.1-1.1
			c-0.2-0.5-0.3-1-0.5-1.4c-0.1-0.4-0.3-0.7-0.7-0.8l-1.5-0.7V44l1.5-0.7c0.4-0.2,0.6-0.5,0.7-0.8c0.1-0.5,0.3-1,0.5-1.5
			c0.1-0.3,0.1-0.7-0.1-1.1L41,38.5c0.2-0.3,0.4-0.6,0.6-0.9l1.6,0.4c0.4,0.1,0.8,0,1.1-0.3c0.4-0.3,0.8-0.6,1.2-0.9
			c0.3-0.2,0.5-0.5,0.6-0.9l0.2-1.7c0.3-0.1,0.6-0.2,1-0.3l1.1,1.3c0.2,0.3,0.6,0.4,0.9,0.4h1.7c0.3,0,0.7-0.2,0.9-0.4l1.1-1.3
			c0.3,0.1,0.6,0.2,1,0.3L54,36c0,0.4,0.2,0.7,0.6,0.9c0.4,0.3,0.8,0.6,1.2,0.9c0.3,0.3,0.7,0.4,1.1,0.3l1.6-0.4
			c0.2,0.3,0.4,0.6,0.6,0.9L58.2,40c-0.2,0.3-0.2,0.7-0.1,1.1c0.2,0.5,0.3,1,0.5,1.4c0.1,0.4,0.3,0.7,0.7,0.8l1.5,0.7v1.2h0
			l-1.5,0.7c-0.3,0.2-0.6,0.5-0.7,0.8c-0.1,0.5-0.3,1-0.5,1.4C58,48.4,58,48.8,58.2,49.2z M72.8,66.2c-3.3,0-6,2.7-6,6
			c0,3.3,2.7,6,6,6s6-2.7,6-6C78.8,68.9,76.1,66.2,72.8,66.2z M72.8,75.8c-2,0-3.6-1.6-3.6-3.6c0-2,1.6-3.6,3.6-3.6
			c2,0,3.6,1.6,3.6,3.6C76.4,74.2,74.8,75.8,72.8,75.8z M85.2,69.7L83.6,69c-0.1-0.2-0.1-0.5-0.2-0.7l0.9-1.6c0.2-0.4,0.2-0.8,0-1.2
			c-0.5-0.9-1.1-1.7-1.7-2.4c-0.3-0.3-0.7-0.5-1.2-0.4L80,63.1v-7.7c0-2.6-1.4-5-3.7-6.3c1.8-1.9,1.8-5-0.2-6.8
			c-1.9-1.8-5-1.8-6.8,0.2c-1.8,1.9-1.8,4.8,0,6.6c-2.3,1.3-3.7,3.7-3.7,6.3v7.7l-1.4-0.3c-0.4-0.1-0.9,0-1.2,0.4
			c-0.7,0.7-1.2,1.5-1.7,2.4c-0.2,0.4-0.2,0.8,0,1.2l0.9,1.6c-0.1,0.2-0.1,0.4-0.2,0.7l-1.7,0.7c-0.4,0.2-0.7,0.6-0.7,1.1v2.7
			c0,0.5,0.3,0.9,0.7,1.1l1.7,0.7c0.1,0.2,0.1,0.4,0.2,0.7l-0.9,1.6c-0.2,0.4-0.2,0.8,0,1.2c0.5,0.9,1.1,1.7,1.7,2.4
			c0.3,0.3,0.7,0.5,1.2,0.4l1.7-0.4c0.2,0.1,0.3,0.3,0.5,0.4l0.2,1.8c0,0.4,0.3,0.8,0.7,1c0.9,0.4,1.8,0.7,2.8,0.9
			c0.4,0.1,0.9-0.1,1.2-0.4l1.2-1.4h0.6l1.2,1.4c0.3,0.3,0.7,0.5,1.2,0.4c1-0.2,1.9-0.5,2.8-0.9c0.4-0.2,0.7-0.6,0.7-1l0.2-1.8
			c0.2-0.1,0.4-0.3,0.5-0.4l1.7,0.4c0.4,0.1,0.9,0,1.2-0.4c0.7-0.7,1.2-1.5,1.7-2.4c0.2-0.4,0.2-0.8,0-1.2L83.3,76
			c0.1-0.2,0.1-0.4,0.2-0.7l1.7-0.7c0.4-0.2,0.7-0.6,0.7-1.1v-2.7C85.9,70.3,85.6,69.9,85.2,69.7z M72.8,43.4c1.3,0,2.4,1.1,2.4,2.4
			c0,1.3-1.1,2.4-2.4,2.4c-1.3,0-2.4-1.1-2.4-2.4C70.4,44.5,71.5,43.4,72.8,43.4z M72.8,50.6c2.7,0,4.8,2.1,4.8,4.8v4.3
			c-0.7-0.3-1.4-0.5-2.1-0.7c-0.4-0.1-0.9,0.1-1.2,0.4l-1.2,1.4h-0.6l-1.2-1.4c-0.3-0.3-0.7-0.5-1.2-0.4c-0.7,0.2-1.4,0.4-2.1,0.7
			v-4.3h0C68,52.7,70.2,50.6,72.8,50.6z M83.5,72.8L82,73.4c-0.3,0.2-0.6,0.5-0.7,0.8c-0.1,0.5-0.3,1-0.5,1.5
			c-0.1,0.3-0.1,0.7,0.1,1.1l0.9,1.5c-0.2,0.3-0.4,0.6-0.6,0.9l-1.6-0.4c-0.4-0.1-0.8,0-1.1,0.3c-0.4,0.3-0.8,0.6-1.2,0.9
			c-0.3,0.2-0.5,0.5-0.6,0.9l-0.2,1.7c-0.3,0.1-0.6,0.2-1,0.3l-1.1-1.3c-0.2-0.3-0.6-0.4-0.9-0.4H72c-0.3,0-0.7,0.2-0.9,0.4
			l-1.1,1.3c-0.3-0.1-0.6-0.2-1-0.3l-0.2-1.7c0-0.4-0.2-0.7-0.6-0.9c-0.4-0.3-0.8-0.6-1.2-0.9c-0.3-0.3-0.7-0.4-1.1-0.3l-1.6,0.4
			c-0.2-0.3-0.4-0.6-0.6-0.9l0.9-1.5c0.2-0.3,0.2-0.7,0.1-1.1c-0.2-0.5-0.3-1-0.5-1.4c-0.1-0.4-0.3-0.7-0.7-0.8L62,72.7v-1.1
			l1.5-0.7c0.4-0.2,0.6-0.5,0.7-0.8c0.1-0.5,0.3-1,0.5-1.5c0.1-0.3,0.1-0.7-0.1-1.1l-0.9-1.5c0.2-0.3,0.4-0.6,0.6-0.9l1.6,0.4
			c0.4,0.1,0.8,0,1.1-0.3c0.4-0.3,0.8-0.6,1.2-0.9c0.3-0.2,0.5-0.5,0.6-0.9l0.2-1.7c0.3-0.1,0.6-0.2,1-0.3l1.1,1.3
			c0.2,0.3,0.6,0.4,0.9,0.4h1.7c0.3,0,0.7-0.2,0.9-0.4l1.1-1.3c0.3,0.1,0.6,0.2,1,0.3l0.2,1.7c0,0.4,0.2,0.7,0.6,0.9
			c0.4,0.3,0.8,0.6,1.2,0.9c0.3,0.3,0.7,0.4,1.1,0.3l1.6-0.4c0.2,0.3,0.4,0.6,0.6,0.9L81,67.6c-0.2,0.3-0.2,0.7-0.1,1.1
			c0.2,0.5,0.3,1,0.5,1.5c0.1,0.4,0.3,0.7,0.7,0.8l1.5,0.7V72.8z M27.2,66.2c-3.3,0-6,2.7-6,6c0,3.3,2.7,6,6,6c3.3,0,6-2.7,6-6
			C33.2,68.9,30.5,66.2,27.2,66.2z M27.2,75.8c-2,0-3.6-1.6-3.6-3.6c0-2,1.6-3.6,3.6-3.6c2,0,3.6,1.6,3.6,3.6
			C30.8,74.2,29.2,75.8,27.2,75.8z M39.6,69.7L37.9,69c-0.1-0.2-0.1-0.5-0.2-0.7l0.9-1.6c0.2-0.4,0.2-0.8,0-1.2
			c-0.5-0.9-1.1-1.7-1.7-2.4c-0.3-0.3-0.7-0.5-1.2-0.4l-1.4,0.3v-7.7c0-2.6-1.4-5-3.7-6.3c1.8-1.9,1.8-5-0.2-6.8
			c-1.9-1.8-5-1.8-6.8,0.2c-1.8,1.9-1.8,4.8,0,6.6c-2.3,1.3-3.7,3.7-3.7,6.3v7.7l-1.4-0.3c-0.4-0.1-0.9,0-1.2,0.4
			c-0.7,0.7-1.2,1.5-1.7,2.4c-0.2,0.4-0.2,0.8,0,1.2l0.9,1.6c-0.1,0.2-0.1,0.4-0.2,0.7l-1.7,0.7c-0.4,0.2-0.7,0.6-0.7,1.1v2.7
			c0,0.5,0.3,0.9,0.7,1.1l1.7,0.7c0.1,0.2,0.1,0.5,0.2,0.7l-0.9,1.6c-0.2,0.4-0.2,0.8,0,1.2c0.5,0.9,1.1,1.7,1.7,2.4
			c0.3,0.3,0.7,0.5,1.2,0.4l1.7-0.4c0.2,0.1,0.3,0.3,0.5,0.4l0.2,1.8c0,0.4,0.3,0.8,0.7,1c0.9,0.4,1.8,0.7,2.8,0.9
			c0.4,0.1,0.9-0.1,1.2-0.4l1.2-1.4h0.6l1.2,1.4c0.3,0.3,0.7,0.5,1.2,0.4c1-0.2,1.9-0.5,2.8-0.9c0.4-0.2,0.7-0.6,0.7-1l0.2-1.8
			c0.2-0.1,0.4-0.3,0.5-0.4l1.7,0.4c0.4,0.1,0.9,0,1.2-0.4c0.7-0.7,1.2-1.5,1.7-2.4c0.2-0.4,0.2-0.8,0-1.2L37.7,76
			c0.1-0.2,0.1-0.4,0.2-0.7l1.7-0.7c0.4-0.2,0.7-0.6,0.7-1.1v-2.7C40.3,70.3,40,69.9,39.6,69.7z M27.2,43.4c1.3,0,2.4,1.1,2.4,2.4
			c0,1.3-1.1,2.4-2.4,2.4c-1.3,0-2.4-1.1-2.4-2.4C24.8,44.5,25.9,43.4,27.2,43.4z M27.2,50.6c2.7,0,4.8,2.1,4.8,4.8v4.3
			c-0.7-0.3-1.4-0.5-2.1-0.7c-0.4-0.1-0.9,0.1-1.2,0.4l-1.2,1.4h-0.6l-1.2-1.4c-0.3-0.3-0.7-0.5-1.2-0.4c-0.7,0.2-1.4,0.4-2.1,0.7
			v-4.3h0C22.4,52.7,24.5,50.6,27.2,50.6z M37.9,72.8L37.9,72.8l-1.5,0.7c-0.3,0.2-0.6,0.5-0.7,0.8c-0.1,0.5-0.3,1-0.5,1.5
			c-0.1,0.3-0.1,0.7,0.1,1.1l0.9,1.5c-0.2,0.3-0.4,0.6-0.6,0.9L34,78.7c-0.4-0.1-0.8,0-1.1,0.3c-0.4,0.3-0.8,0.6-1.2,0.9
			c-0.3,0.2-0.5,0.5-0.6,0.9L31,82.5c-0.3,0.1-0.6,0.2-1,0.3l-1.1-1.3c-0.2-0.3-0.6-0.4-0.9-0.4h-1.7c-0.3,0-0.7,0.2-0.9,0.4
			l-1.1,1.3c-0.3-0.1-0.6-0.2-1-0.3l-0.2-1.7c0-0.4-0.2-0.7-0.6-0.9c-0.4-0.3-0.8-0.6-1.2-0.9c-0.3-0.3-0.7-0.4-1.1-0.3l-1.6,0.4
			c-0.2-0.3-0.4-0.6-0.6-0.9l0.9-1.5c0.2-0.3,0.2-0.7,0.1-1.1c-0.2-0.5-0.3-1-0.5-1.4c-0.1-0.4-0.3-0.7-0.7-0.8l-1.5-0.7v-1.2
			l1.5-0.7c0.3-0.2,0.6-0.5,0.7-0.8c0.1-0.5,0.3-1,0.5-1.5c0.1-0.3,0.1-0.7-0.1-1.1l-0.9-1.5c0.2-0.3,0.4-0.6,0.6-0.9l1.6,0.4
			c0.4,0.1,0.8,0,1.1-0.3c0.4-0.3,0.8-0.6,1.2-0.9c0.3-0.2,0.5-0.5,0.6-0.9l0.2-1.7c0.3-0.1,0.6-0.2,1-0.3l1.1,1.3
			c0.2,0.3,0.6,0.4,0.9,0.4H28c0.3,0,0.7-0.2,0.9-0.4l1.1-1.3c0.3,0.1,0.6,0.2,1,0.3l0.2,1.7c0,0.4,0.2,0.7,0.6,0.9
			c0.4,0.3,0.8,0.6,1.2,0.9c0.3,0.3,0.7,0.4,1.1,0.3l1.6-0.4c0.2,0.3,0.4,0.6,0.6,0.9l-0.9,1.5c-0.2,0.3-0.2,0.7-0.1,1.1
			c0.2,0.5,0.3,1,0.5,1.5c0.1,0.4,0.3,0.7,0.7,0.8l1.5,0.7V72.8z"/>
	</g>
</g>
<g>
	<g>
		<path class="st1" d="M20.8,37.9l2.2,1c3.2-6.6,8.6-11.8,15.4-14.6l-0.9-2.2C30.1,25.2,24.2,30.8,20.8,37.9z M41.1,80.6l-0.7,2.3
			c6.5,2,13.4,1.9,19.8-0.2l-0.8-2.3C53.5,82.4,47.1,82.5,41.1,80.6z M62.3,22l-0.9,2.2c7,2.9,12.6,8.2,15.8,15.1l2.2-1
			C75.9,30.9,69.8,25.1,62.3,22z"/>
	</g>
</g>
</svg>
