<?xml version="1.0" encoding="utf-8"?>
<!-- Generator: Adobe Illustrator 21.0.0, SVG Export Plug-In . SVG Version: 6.00 Build 0)  -->
<svg version="1.1" id="Слой_1" xmlns="http://www.w3.org/2000/svg" xmlns:xlink="http://www.w3.org/1999/xlink" x="0px" y="0px"
	 viewBox="0 0 100 100" style="enable-background:new 0 0 100 100;" xml:space="preserve">
<style type="text/css">
	.st0{fill:#FFFFFF;}
	.st1{fill:#E0186C;}
</style>
<path class="st0" d="M83.4,41.6C83.4,41.6,83.4,41.6,83.4,41.6c-0.1-0.2-0.1-0.3-0.2-0.3L69.6,26.6c-0.1-0.1-0.2-0.2-0.2-0.2
	c0,0,0,0,0,0h0c-0.2-0.1-0.4-0.2-0.6-0.2H30.3c-0.2,0-0.4,0.1-0.6,0.2c-0.1,0.1-0.2,0.1-0.2,0.2L15.8,41.3c0,0-0.1,0.1-0.1,0.1
	c0,0.1-0.1,0.1-0.1,0.2c0,0.1,0,0.1-0.1,0.2c0,0.1,0,0.1,0,0.2c0,0.1,0,0.1,0,0.2c0,0.1,0,0.1,0,0.2c0,0.1,0.1,0.1,0.1,0.2
	c0,0,0,0.1,0.1,0.1l32.9,40.8c0,0,0,0,0.1,0c0,0,0,0.1,0.1,0.1c0,0,0,0,0,0h0l0,0c0,0,0,0,0,0c0,0,0.1,0,0.1,0.1c0,0,0.1,0,0.1,0.1
	h0c0,0,0,0,0.1,0c0,0,0,0,0.1,0c0,0,0,0,0,0c0.1,0,0.2,0,0.3,0h0c0.1,0,0.2,0,0.3,0c0,0,0,0,0,0c0,0,0,0,0.1,0c0,0,0,0,0.1,0h0
	c0,0,0.1,0,0.1-0.1c0,0,0.1,0,0.1-0.1c0,0,0,0,0,0l0,0h0c0,0,0,0,0,0c0,0,0,0,0.1-0.1c0,0,0,0,0.1,0l32.9-40.8
	c0-0.1,0.1-0.1,0.1-0.2c0,0,0,0,0-0.1c0-0.1,0.1-0.2,0.1-0.4c0,0,0-0.1,0-0.1c0-0.1,0-0.2,0-0.3C83.4,41.7,83.4,41.7,83.4,41.6z
	 M68.9,29.2l10.8,11.7H61.7L68.9,29.2z M66.7,28.5L59.6,40l-8-11.5H66.7z M57.5,40.9h-8h-8l8-11.6L57.5,40.9z M47.3,28.5l-8,11.5
	l-7.1-11.5H47.3z M51.9,78.1l4.8-18.8c0.1-0.4,0-0.8-0.3-1.1c-0.3-0.3-0.7-0.4-1.1-0.3c-0.4,0.1-0.7,0.4-0.8,0.8l-5,19.5l-5-19.5
	c-0.1-0.4-0.4-0.7-0.8-0.8c-0.4-0.1-0.8,0-1.1,0.3c-0.3,0.3-0.4,0.7-0.3,1.1l4.8,18.8l-29-36l11.9-12.9l7.2,11.7h-15
	c-0.6,0-1.1,0.5-1.1,1.1c0,0.6,0.5,1.1,1.1,1.1h16.1l2.8,11.6c0.1,0.5,0.6,0.9,1.1,0.9c0.1,0,0.2,0,0.3,0c0.3-0.1,0.5-0.3,0.7-0.5
	c0.2-0.3,0.2-0.6,0.1-0.9l-2.7-11.1h17.5l-2.7,11.1c-0.1,0.3,0,0.6,0.1,0.9c0.2,0.3,0.4,0.4,0.7,0.5c0.1,0,0.2,0,0.3,0
	c0.5,0,1-0.4,1.1-0.9l2.8-11.6H80L51.9,78.1z"/>
<g>
	<g>
		<path class="st1" d="M31.2,74.8L27.5,73l-1.8-3.7c-0.2-0.4-0.6-0.6-1-0.6c-0.4,0-0.8,0.2-1,0.6L21.9,73l-3.7,1.8
			c-0.4,0.2-0.6,0.6-0.6,1c0,0.4,0.2,0.8,0.6,1v0l3.7,1.8l1.8,3.7c0.2,0.4,0.6,0.6,1,0.6s0.8-0.2,1-0.6l1.8-3.7l3.7-1.8
			c0.4-0.2,0.6-0.6,0.6-1C31.8,75.4,31.6,75,31.2,74.8z M26.1,76.8c-0.2,0.1-0.4,0.3-0.5,0.5l-0.9,2l-0.9-2
			c-0.1-0.2-0.3-0.4-0.5-0.5l-2-0.9l2-0.9c0.2-0.1,0.4-0.3,0.5-0.5l0.9-2l0.9,2c0.1,0.2,0.3,0.4,0.5,0.5l2,0.9L26.1,76.8z
			 M84.9,21.1l-3.7-1.8l-1.8-3.7c-0.2-0.4-0.6-0.6-1-0.6s-0.8,0.2-1,0.6l-1.8,3.7l-3.7,1.8c-0.4,0.2-0.6,0.6-0.6,1
			c0,0.4,0.2,0.8,0.6,1v0l3.7,1.8l1.8,3.7c0.2,0.4,0.6,0.6,1,0.6c0.4,0,0.8-0.2,1-0.6l1.8-3.7l3.7-1.8c0.4-0.2,0.6-0.6,0.6-1
			C85.5,21.7,85.3,21.3,84.9,21.1z M79.8,23.1c-0.2,0.1-0.4,0.3-0.5,0.5l-0.9,2l-0.9-2c-0.1-0.2-0.3-0.4-0.5-0.5l-2-0.9l2-0.9
			c0.2-0.1,0.4-0.3,0.5-0.5l0.9-2l0.9,2c0.1,0.2,0.3,0.4,0.5,0.5l2,0.9L79.8,23.1z M81.1,72.5l-3.7-1.8L75.6,67
			c-0.2-0.4-0.6-0.6-1-0.6s-0.8,0.2-1,0.6l-1.8,3.7L68,72.5c-0.4,0.2-0.6,0.6-0.6,1c0,0.4,0.2,0.8,0.6,1l3.7,1.8l1.8,3.7
			c0.2,0.4,0.6,0.6,1,0.6s0.8-0.2,1-0.6l1.8-3.7l3.7-1.8c0.4-0.2,0.6-0.6,0.6-1C81.7,73.1,81.5,72.7,81.1,72.5z M76,74.5
			c-0.2,0.1-0.4,0.3-0.5,0.5l-0.9,2l-0.9-2c-0.1-0.2-0.3-0.4-0.5-0.5l-2-0.9l2-0.9c0.2-0.1,0.4-0.3,0.5-0.5l0.9-2l0.9,2
			c0.1,0.2,0.3,0.4,0.5,0.5l2,0.9L76,74.5z"/>
	</g>
</g>
</svg>
