<?xml version="1.0" encoding="utf-8"?>
<!-- Generator: Adobe Illustrator 21.0.0, SVG Export Plug-In . SVG Version: 6.00 Build 0)  -->
<svg version="1.1" id="Слой_1" xmlns="http://www.w3.org/2000/svg" xmlns:xlink="http://www.w3.org/1999/xlink" x="0px" y="0px"
	 viewBox="0 0 100 100" style="enable-background:new 0 0 100 100;" xml:space="preserve">
<style type="text/css">
	.st0{fill:#E0186C;}
	.st1{fill:#0349C6;}
</style>
<g>
	<g>
		<path class="st0" d="M38.8,63.1c2.8,4,5.6,7.5,7.4,9.8c0.3,0.3,0.5,0.6,0.8,0.9h-5.6c-0.6,0-1.1,0.5-1.1,1.1
			c0,0.6,0.5,1.1,1.1,1.1h18.1c0.6,0,1.1-0.5,1.1-1.1c0-0.6-0.5-1.1-1.1-1.1H54c0.2-0.3,0.5-0.6,0.8-0.9c1.9-2.3,4.6-5.8,7.4-9.8
			c2.8-3.8,5.3-7.9,7.5-12.1c2.3-4.6,3.5-8.3,3.5-11.2c0-6-2.4-11.8-6.6-16.1c-0.3-0.3-0.7-0.4-1.1-0.3c-0.4,0.1-0.7,0.4-0.8,0.8
			c-0.1,0.4,0,0.8,0.3,1.1c3.8,3.8,6,9,6,14.5c0,2.5-1.1,6-3.2,10.2c-2.2,4.1-4.6,8.1-7.3,11.8c-2.8,3.9-5.5,7.4-7.4,9.7
			c-0.6,0.7-1.2,1.4-1.6,2c-0.2,0.2-0.5,0.4-0.9,0.4c-0.3,0-0.6-0.1-0.9-0.4c-0.5-0.6-1-1.2-1.6-2c-1.8-2.2-4.6-5.7-7.4-9.7
			c-2.7-3.8-5.2-7.7-7.3-11.8c-2.2-4.2-3.2-7.7-3.2-10.2c0-8.2,4.9-15.7,12.5-18.9c5.1-2.1,10.8-2.1,15.9,0c0.4,0.2,0.8,0.1,1.1-0.1
			c0.3-0.2,0.5-0.6,0.4-1c0-0.4-0.3-0.7-0.7-0.9c-11.5-4.9-24.8,0.5-29.7,12.1c-1.2,2.8-1.8,5.8-1.8,8.9c0,2.9,1.2,6.7,3.5,11.2
			C33.5,55.2,36,59.2,38.8,63.1z M84.1,79l-7-12.5c-0.6-1.1-1.8-1.8-3.1-1.8h-8.1c-0.6,0-1.1,0.5-1.1,1.1c0,0.6,0.5,1.1,1.1,1.1H74
			c0.5,0,0.9,0.2,1.1,0.6l7,12.5c0.2,0.3,0.2,0.7,0,1c-0.2,0.4-0.7,0.6-1.1,0.6H20c-0.4,0-0.9-0.2-1.1-0.6c-0.2-0.3-0.2-0.7,0-1
			l7-12.5c0.2-0.4,0.7-0.6,1.1-0.6h8.1c0.6,0,1.1-0.5,1.1-1.1c0-0.6-0.5-1.1-1.1-1.1H27c-1.3,0-2.5,0.7-3.1,1.8l-7,12.5
			c-0.6,1-0.6,2.3,0,3.3c0.6,1.1,1.8,1.7,3.1,1.7h61c1.3,0,2.4-0.6,3.1-1.7C84.6,81.3,84.7,80,84.1,79z"/>
	</g>
</g>
<g>
	<g>
		<path class="st1" d="M57.4,29.2c-0.4,0.1-0.7,0.4-0.8,0.8c-0.1,0.4,0,0.8,0.3,1.1C60,34.2,60.4,39,58,42.6c-2.4,3.6-7,5-11,3.3
			c-4-1.7-6.3-5.9-5.4-10.2c0.8-4.3,4.6-7.3,8.9-7.3c0.6,0,1.1-0.5,1.1-1.1c0-0.6-0.5-1.1-1.1-1.1c-5.4,0-10.1,3.8-11.1,9.1
			c-1.1,5.3,1.8,10.6,6.8,12.7c5,2.1,10.8,0.3,13.8-4.2c3-4.5,2.4-10.5-1.4-14.3C58.2,29.3,57.8,29.1,57.4,29.2z M72,71.6
			c0.6,0,1.1-0.5,1.1-1.1c0-0.6-0.5-1.1-1.1-1.1h-4.5c-0.2,0-0.4,0.1-0.6,0.2l-3.4,2.3c-0.5,0.3-0.7,1.1-0.3,1.6
			c0.3,0.5,1.1,0.7,1.6,0.3l3.1-2.1H72z M75.4,76.2h-9.1c-0.6,0-1.1,0.5-1.1,1.1c0,0.6,0.5,1.1,1.1,1.1h9.1c0.6,0,1.1-0.5,1.1-1.1
			C76.6,76.7,76.1,76.2,75.4,76.2z M37.5,71.8l-3.4-2.3c-0.2-0.1-0.4-0.2-0.6-0.2H29c-0.6,0-1.1,0.5-1.1,1.1c0,0.6,0.5,1.1,1.1,1.1
			h4.2l3.1,2.1c0.2,0.1,0.4,0.2,0.6,0.2c0.5,0,0.9-0.3,1.1-0.8C38.1,72.6,37.9,72.1,37.5,71.8z M34.6,76.2h-9.1
			c-0.6,0-1.1,0.5-1.1,1.1c0,0.6,0.5,1.1,1.1,1.1h9.1c0.6,0,1.1-0.5,1.1-1.1C35.8,76.7,35.3,76.2,34.6,76.2z"/>
	</g>
</g>
</svg>
