<?xml version="1.0" encoding="utf-8"?>
<!-- Generator: Adobe Illustrator 21.0.0, SVG Export Plug-In . SVG Version: 6.00 Build 0)  -->
<svg version="1.1" id="Слой_1" xmlns="http://www.w3.org/2000/svg" xmlns:xlink="http://www.w3.org/1999/xlink" x="0px" y="0px"
	 viewBox="0 0 100 100" style="enable-background:new 0 0 100 100;" xml:space="preserve">
<style type="text/css">
	.st0{fill:#0349C6;}
	.st1{fill:#E0186C;}
</style>
<path class="st0" d="M78.9,68.1l-12.3-8.2c-1.6-1-3.7-0.7-4.8,0.8l-3.6,4.6c-0.5,0.6-1.3,0.8-2,0.4l-0.7-0.4
	c-2.3-1.2-5.1-2.8-10.8-8.5c-5.7-5.7-7.2-8.5-8.5-10.8l-0.4-0.7c-0.4-0.7-0.2-1.5,0.4-2l4.6-3.6c1.5-1.2,1.8-3.3,0.8-4.8l-8.2-12.3
	c-1.1-1.6-3.2-2.1-4.8-1.1l-5.2,3.1c-1.6,1-2.8,2.5-3.3,4.3c-1.9,6.8-0.5,18.5,16.8,35.7C50.6,78.3,60.8,82,67.8,82
	c1.6,0,3.2-0.2,4.8-0.6c1.8-0.5,3.4-1.7,4.3-3.3l3.1-5.2C81,71.3,80.5,69.1,78.9,68.1z M78.2,71.9L75.1,77c-0.7,1.2-1.8,2-3.1,2.4
	c-6.3,1.7-17.2,0.3-33.7-16.2c-16.5-16.5-18-27.5-16.2-33.7c0.4-1.3,1.2-2.4,2.4-3.1l5.2-3.1c0.7-0.4,1.6-0.2,2.1,0.5l4.5,6.7
	l3.8,5.6c0.4,0.7,0.3,1.6-0.3,2.1L35,41.8c-1.4,1.1-1.8,3-0.9,4.6l0.4,0.7c1.3,2.4,2.9,5.3,8.8,11.2c5.9,5.9,8.9,7.5,11.2,8.8
	l0.7,0.4c1.5,0.9,3.5,0.5,4.6-0.9l3.6-4.6c0.5-0.6,1.4-0.8,2.1-0.3l12.3,8.2C78.5,70.2,78.7,71.1,78.2,71.9z"/>
<g>
	<g>
		<path class="st1" d="M50.1,30.1c-0.6,0-1,0.5-1,1c0,0.6,0.5,1,1,1c9.5,0,17.3,7.7,17.3,17.3c0,0.6,0.5,1,1,1c0.6,0,1-0.5,1-1
			C69.4,38.8,60.7,30.2,50.1,30.1z M50.1,36.2c-0.6,0-1,0.5-1,1c0,0.6,0.5,1,1,1c6.2,0,11.2,5,11.2,11.2c0,0.6,0.5,1,1,1
			c0.6,0,1-0.5,1-1C63.3,42.2,57.4,36.2,50.1,36.2z M50.1,42.3c-0.6,0-1,0.5-1,1c0,0.6,0.5,1,1,1c2.8,0,5.1,2.3,5.1,5.1
			c0,0.6,0.5,1,1,1c0.6,0,1-0.5,1-1C57.2,45.5,54,42.3,50.1,42.3z"/>
	</g>
</g>
</svg>
