<svg xmlns="http://www.w3.org/2000/svg" width="21" height="21" viewBox="0 0 21 21">
  <metadata><?xpacket begin="﻿" id="W5M0MpCehiHzreSzNTczkc9d"?>
<x:xmpmeta xmlns:x="adobe:ns:meta/" x:xmptk="Adobe XMP Core 5.6-c142 79.160924, 2017/07/13-01:06:39        ">
   <rdf:RDF xmlns:rdf="http://www.w3.org/1999/02/22-rdf-syntax-ns#">
      <rdf:Description rdf:about=""/>
   </rdf:RDF>
</x:xmpmeta>
                                                                                                    
                                                                                                    
                                                                                                    
                                                                                                    
                                                                                                    
                                                                                                    
                                                                                                    
                                                                                                    
                                                                                                    
                                                                                                    
                                                                                                    
                                                                                                    
                                                                                                    
                                                                                                    
                                                                                                    
                                                                                                    
                                                                                                    
                                                                                                    
                                                                                                    
                                                                                                    
                           
<?xpacket end="w"?></metadata>
<defs>
    <style>
      .cls-1 {
        fill: #de1c6e;
        fill-rule: evenodd;
      }
    </style>
  </defs>
  <path id="Фигура_31" data-name="Фигура 31" class="cls-1" d="M384.68,6793.43h1.64v1.64h-1.64v-1.64Zm8.859-7.79h-0.984V6784h-1.641v1.64H380.086V6784h-1.641v1.64h-0.984A2.461,2.461,0,0,0,375,6788.1v14.44a2.461,2.461,0,0,0,2.461,2.46H385.9a7.234,7.234,0,0,1-1.462-1.64h-6.977a0.822,0.822,0,0,1-.82-0.82v-10.83h17.718v1.73A7.115,7.115,0,0,1,396,6794.9v-6.8A2.461,2.461,0,0,0,393.539,6785.64Zm0.82,4.43H376.641v-1.97a0.822,0.822,0,0,1,.82-0.82h0.984v1.64h1.641v-1.64h10.828v1.64h1.641v-1.64h0.984a0.822,0.822,0,0,1,.82.82v1.97Zm-3.9,3.86a5.535,5.535,0,1,0,5.537,5.53A5.539,5.539,0,0,0,390.463,6793.93Zm0,9.43a3.9,3.9,0,1,1,3.9-3.9A3.9,3.9,0,0,1,390.463,6803.36Zm0.779-6.65H389.6v3.57h3.035v-1.64h-1.395v-1.93Zm-9.844,0h1.641v1.65H381.4v-1.65Zm-3.281,0h1.641v1.65h-1.641v-1.65Zm0-3.28h1.641v1.64h-1.641v-1.64Zm0,6.57h1.641v1.64h-1.641V6800Zm3.281-6.57h1.641v1.64H381.4v-1.64Zm0,6.57h1.641v1.64H381.4V6800Z" transform="translate(-375 -6784)"/>
</svg>
