<svg xmlns="http://www.w3.org/2000/svg" width="14.16" height="17" viewBox="0 0 14.16 17">
  <metadata><?xpacket begin="﻿" id="W5M0MpCehiHzreSzNTczkc9d"?>
<x:xmpmeta xmlns:x="adobe:ns:meta/" x:xmptk="Adobe XMP Core 5.6-c142 79.160924, 2017/07/13-01:06:39        ">
   <rdf:RDF xmlns:rdf="http://www.w3.org/1999/02/22-rdf-syntax-ns#">
      <rdf:Description rdf:about=""/>
   </rdf:RDF>
</x:xmpmeta>
                                                                                                    
                                                                                                    
                                                                                                    
                                                                                                    
                                                                                                    
                                                                                                    
                                                                                                    
                                                                                                    
                                                                                                    
                                                                                                    
                                                                                                    
                                                                                                    
                                                                                                    
                                                                                                    
                                                                                                    
                                                                                                    
                                                                                                    
                                                                                                    
                                                                                                    
                                                                                                    
                           
<?xpacket end="w"?></metadata>
<defs>
    <style>
      .cls-1 {
        fill: #89b4f4;
        fill-rule: evenodd;
      }
    </style>
  </defs>
  <path id="Фигура_19" data-name="Фигура 19" class="cls-1" d="M1310.03,71.669V70.962a4.95,4.95,0,1,0-9.9,0v0.707a2.123,2.123,0,0,0-2.12,2.123v7.077a2.123,2.123,0,0,0,2.12,2.122h9.9a2.13,2.13,0,0,0,2.12-2.122V73.792A2.13,2.13,0,0,0,1310.03,71.669Zm-8.49-.707a3.535,3.535,0,1,1,7.07,0v0.707h-7.07V70.962Zm9.19,9.907a0.7,0.7,0,0,1-.7.707h-9.9a0.71,0.71,0,0,1-.71-0.707V73.792a0.71,0.71,0,0,1,.71-0.707h9.9a0.7,0.7,0,0,1,.7.707v7.077Zm-5.65-6.723a2.119,2.119,0,0,0-.71,4.115v1.192a0.71,0.71,0,0,0,.71.708,0.7,0.7,0,0,0,.7-0.708V78.262A2.117,2.117,0,0,0,1305.08,74.146Zm0,2.831a0.708,0.708,0,1,1,0-1.416A0.708,0.708,0,0,1,1305.08,76.977Z" transform="translate(-1298 -66)"/>
</svg>
