<svg xmlns="http://www.w3.org/2000/svg" width="16.97" height="17" viewBox="0 0 16.97 17">
  <metadata><?xpacket begin="﻿" id="W5M0MpCehiHzreSzNTczkc9d"?>
<x:xmpmeta xmlns:x="adobe:ns:meta/" x:xmptk="Adobe XMP Core 5.6-c142 79.160924, 2017/07/13-01:06:39        ">
   <rdf:RDF xmlns:rdf="http://www.w3.org/1999/02/22-rdf-syntax-ns#">
      <rdf:Description rdf:about=""/>
   </rdf:RDF>
</x:xmpmeta>
                                                                                                    
                                                                                                    
                                                                                                    
                                                                                                    
                                                                                                    
                                                                                                    
                                                                                                    
                                                                                                    
                                                                                                    
                                                                                                    
                                                                                                    
                                                                                                    
                                                                                                    
                                                                                                    
                                                                                                    
                                                                                                    
                                                                                                    
                                                                                                    
                                                                                                    
                                                                                                    
                           
<?xpacket end="w"?></metadata>
<defs>
    <style>
      .cls-1 {
        fill: #89b4f4;
        fill-rule: evenodd;
      }
    </style>
  </defs>
  <path id="Фигура_18" data-name="Фигура 18" class="cls-1" d="M1414.1,66.009a4.244,4.244,0,0,0-4.23,4.246v1.415a4.191,4.191,0,0,0,.72,2.367,7.066,7.066,0,0,0-3.55,6.124v0.708a2.123,2.123,0,0,0,2.12,2.122h6.36a0.708,0.708,0,0,0,0-1.415h-6.36a0.71,0.71,0,0,1-.71-0.707V80.161a5.675,5.675,0,0,1,3.15-5.073,4.228,4.228,0,0,0,6.74-3.419V70.254A4.246,4.246,0,0,0,1414.1,66.009Zm2.83,5.661a2.825,2.825,0,1,1-5.65,0V70.254a2.825,2.825,0,1,1,5.65,0v1.415h0Zm6.36,6.369h-2.83V75.208a0.711,0.711,0,0,0-.71-0.708,0.7,0.7,0,0,0-.7.708v2.831h-2.83a0.707,0.707,0,0,0,0,1.415h2.83v2.831a0.7,0.7,0,0,0,.7.708,0.711,0.711,0,0,0,.71-0.708V79.453h2.83A0.707,0.707,0,0,0,1423.29,78.039Z" transform="translate(-1407.03 -66)"/>
</svg>
