<svg xmlns="http://www.w3.org/2000/svg" width="39" height="37" viewBox="0 0 39 37">
  <metadata><?xpacket begin="﻿" id="W5M0MpCehiHzreSzNTczkc9d"?>
<x:xmpmeta xmlns:x="adobe:ns:meta/" x:xmptk="Adobe XMP Core 5.6-c142 79.160924, 2017/07/13-01:06:39        ">
   <rdf:RDF xmlns:rdf="http://www.w3.org/1999/02/22-rdf-syntax-ns#">
      <rdf:Description rdf:about=""/>
   </rdf:RDF>
</x:xmpmeta>
                                                                                                    
                                                                                                    
                                                                                                    
                                                                                                    
                                                                                                    
                                                                                                    
                                                                                                    
                                                                                                    
                                                                                                    
                                                                                                    
                                                                                                    
                                                                                                    
                                                                                                    
                                                                                                    
                                                                                                    
                                                                                                    
                                                                                                    
                                                                                                    
                                                                                                    
                                                                                                    
                           
<?xpacket end="w"?></metadata>
<defs>
    <style>
      .cls-1 {
        fill: #de1c6e;
        fill-rule: evenodd;
      }
    </style>
  </defs>
  <path id="Фигура_52" data-name="Фигура 52" class="cls-1" d="M402.3,985.1a0.773,0.773,0,0,0,.758-0.788,8.523,8.523,0,0,1,8.344-8.673h18.2v7.068L440,974.855,429.606,967v7.068H411.4a10.072,10.072,0,0,0-9.861,10.249A0.773,0.773,0,0,0,402.3,985.1ZM431.123,970.1l6.3,4.759-6.3,4.759V970.1Zm7.585,15.8a0.774,0.774,0,0,0-.758.789,8.523,8.523,0,0,1-8.344,8.672H411.4v-7.067l-10.392,7.856L411.4,1004v-7.07h18.2a10.072,10.072,0,0,0,9.861-10.249A0.774,0.774,0,0,0,438.708,985.892ZM409.885,1000.9l-6.3-4.758,6.3-4.759v9.517Z" transform="translate(-401 -967)"/>
</svg>
